Oswald-Regular-Round.ufo
<glyph name="exclam" format="1">
  <advance width="375"/>
  <unicode hex="0021"/>
  <outline>
    <contour>
      <point x="225.0" y="384.0" type="line" smooth="yes"/>
      <point x="278.654881065" y="384.0"/>
      <point x="320.0" y="425.345118935"/>
      <point x="320.0" y="479.0" type="curve" smooth="yes"/>
      <point x="320.0" y="1692.0" type="line" smooth="yes"/>
      <point x="320.0" y="1748.47882217"/>
      <point x="276.478822174" y="1792.0"/>
      <point x="220.0" y="1792.0" type="curve" smooth="yes"/>
      <point x="164.0" y="1792.0" type="line" smooth="yes"/>
      <point x="108.200889997" y="1792.0"/>
      <point x="66.0070590253" y="1747.84470144"/>
      <point x="68.5407660919" y="1692.10314598" type="curve" smooth="yes"/>
      <point x="123.686272213" y="478.90201132" type="line" smooth="yes"/>
      <point x="126.15036461" y="424.691978584"/>
      <point x="168.733994061" y="384.0"/>
      <point x="223.0" y="384.0" type="curve" smooth="yes"/>
    </contour>
    <contour>
      <point x="220.0" y="0.0" type="line" smooth="yes"/>
      <point x="276.478822174" y="0.0"/>
      <point x="320.0" y="43.521177826"/>
      <point x="320.0" y="100.0" type="curve" smooth="yes"/>
      <point x="320.0" y="156.0" type="line" smooth="yes"/>
      <point x="320.0" y="212.478822174"/>
      <point x="276.478822174" y="256.0"/>
      <point x="220.0" y="256.0" type="curve" smooth="yes"/>
      <point x="164.0" y="256.0" type="line" smooth="yes"/>
      <point x="107.521177826" y="256.0"/>
      <point x="64.0" y="212.478822174"/>
      <point x="64.0" y="156.0" type="curve"/>
      <point x="64.0" y="100.0" type="line" smooth="yes"/>
      <point x="64.0" y="43.521177826"/>
      <point x="107.521177826" y="0.0"/>
      <point x="164.0" y="0.0" type="curve" smooth="yes"/>
    </contour>
  </outline>
</glyph>
<glyph name="quotedbl" format="1">
  <advance width="704"/>
  <unicode hex="0022"/>
  <outline>
    <contour>
      <point x="191.0" y="1408.0" type="line" smooth="yes"/>
      <point x="227.9456198" y="1408.0"/>
      <point x="258.28331372" y="1433.69988232"/>
      <point x="264.3571362" y="1470.1428172" type="curve" smooth="yes"/>
      <point x="301.560101269" y="1693.36060762" type="line" smooth="yes"/>
      <point x="310.409813192" y="1746.45887915"/>
      <point x="271.830696088" y="1792.0"/>
      <point x="218.0" y="1792.0" type="curve" smooth="yes"/>
      <point x="162.0" y="1792.0" type="line" smooth="yes"/>
      <point x="108.169303912" y="1792.0"/>
      <point x="69.5901868077" y="1746.45887915"/>
      <point x="78.4398987305" y="1693.36060762" type="curve" smooth="yes"/>
      <point x="115.6428638" y="1470.1428172" type="line" smooth="yes"/>
      <point x="121.71668628" y="1433.69988232"/>
      <point x="152.0543802" y="1408.0"/>
      <point x="189.0" y="1408.0" type="curve" smooth="yes"/>
    </contour>
    <contour>
      <point x="514.0" y="1408.0" type="line" smooth="yes"/>
      <point x="550.9456198" y="1408.0"/>
      <point x="581.28331372" y="1433.69988232"/>
      <point x="587.3571362" y="1470.1428172" type="curve" smooth="yes"/>
      <point x="624.560101269" y="1693.36060762" type="line" smooth="yes"/>
      <point x="633.409813192" y="1746.45887915"/>
      <point x="594.830696088" y="1792.0"/>
      <point x="541.0" y="1792.0" type="curve" smooth="yes"/>
      <point x="485.0" y="1792.0" type="line" smooth="yes"/>
      <point x="431.169303912" y="1792.0"/>
      <point x="392.590186808" y="1746.45887915"/>
      <point x="401.439898731" y="1693.36060762" type="curve" smooth="yes"/>
      <point x="438.6428638" y="1470.1428172" type="line" smooth="yes"/>
      <point x="444.71668628" y="1433.69988232"/>
      <point x="475.0543802" y="1408.0"/>
      <point x="512.0" y="1408.0" type="curve" smooth="yes"/>
    </contour>
  </outline>
</glyph>
<glyph name="numbersign" format="1">
  <advance width="1088"/>
  <unicode hex="0023"/>
  <outline>
    <contour>
      <point x="940" y="1216" type="line"/>
      <point x="1007.90599193" y="1692.99818721" type="line" smooth="yes"/>
      <point x="1015.55080733" y="1746.69835389"/>
      <point x="976.241599393" y="1792.0"/>
      <point x="922.0" y="1792.0" type="curve" smooth="yes"/>
      <point x="866.0" y="1792.0" type="line" smooth="yes"/>
      <point x="807.637816287" y="1792.0"/>
      <point x="760.131562812" y="1750.77780707"/>
      <point x="751.905991929" y="1692.99818721" type="curve" smooth="yes"/>
      <point x="684" y="1216" type="line"/>
      <point x="492" y="1216" type="line"/>
      <point x="559.905991929" y="1692.99818721" type="line" smooth="yes"/>
      <point x="567.550807325" y="1746.69835389"/>
      <point x="528.241599393" y="1792.0"/>
      <point x="474.0" y="1792.0" type="curve" smooth="yes"/>
      <point x="418.0" y="1792.0" type="line" smooth="yes"/>
      <point x="359.637816287" y="1792.0"/>
      <point x="312.131562812" y="1750.77780707"/>
      <point x="303.905991929" y="1692.99818721" type="curve" smooth="yes"/>
      <point x="236" y="1216" type="line"/>
      <point x="159.0" y="1216.0" type="line" smooth="yes"/>
      <point x="105.345118935" y="1216.0"/>
      <point x="64.0" y="1174.65488107"/>
      <point x="64.0" y="1121.0" type="curve"/>
      <point x="64.0" y="1119.0" type="line" smooth="yes"/>
      <point x="64.0" y="1065.34511893"/>
      <point x="105.345118935" y="1024.0"/>
      <point x="159.0" y="1024.0" type="curve" smooth="yes"/>
      <point x="209" y="1024" type="line"/>
      <point x="181" y="832" type="line"/>
      <point x="159.0" y="832.0" type="line" smooth="yes"/>
      <point x="105.345118935" y="832.0"/>
      <point x="64.0" y="790.654881065"/>
      <point x="64.0" y="737.0" type="curve"/>
      <point x="64.0" y="729.0" type="line" smooth="yes"/>
      <point x="64.0" y="678.733848265"/>
      <point x="102.733848265" y="640.0"/>
      <point x="153.0" y="640.0" type="curve" smooth="yes"/>
      <point x="154" y="640" type="line"/>
      <point x="77.9254831399" y="99.0256578838" type="line" smooth="yes"/>
      <point x="70.3680306981" y="45.2837738535"/>
      <point x="109.729334014" y="0.0"/>
      <point x="164.0" y="0.0" type="curve" smooth="yes"/>
      <point x="220.0" y="0.0" type="line" smooth="yes"/>
      <point x="278.341606362" y="0.0"/>
      <point x="325.801132582" y="41.2524983638"/>
      <point x="333.92548314" y="99.0256578838" type="curve" smooth="yes"/>
      <point x="410" y="640" type="line"/>
      <point x="602" y="640" type="line"/>
      <point x="525.92548314" y="99.0256578838" type="line" smooth="yes"/>
      <point x="518.368030698" y="45.2837738535"/>
      <point x="557.729334014" y="0.0"/>
      <point x="612.0" y="0.0" type="curve" smooth="yes"/>
      <point x="668.0" y="0.0" type="line" smooth="yes"/>
      <point x="726.341606362" y="0.0"/>
      <point x="773.801132582" y="41.2524983638"/>
      <point x="781.92548314" y="99.0256578838" type="curve" smooth="yes"/>
      <point x="858" y="640" type="line"/>
      <point x="929.0" y="640.0" type="line" smooth="yes"/>
      <point x="982.654881065" y="640.0"/>
      <point x="1024.0" y="681.345118935"/>
      <point x="1024.0" y="735.0" type="curve" smooth="yes"/>
      <point x="1024.0" y="737.0" type="line" smooth="yes"/>
      <point x="1024.0" y="790.654881065"/>
      <point x="982.654881065" y="832.0"/>
      <point x="929.0" y="832.0" type="curve" smooth="yes"/>
      <point x="885" y="832" type="line"/>
      <point x="913" y="1024" type="line"/>
      <point x="929.0" y="1024.0" type="line" smooth="yes"/>
      <point x="982.654881065" y="1024.0"/>
      <point x="1024.0" y="1065.34511893"/>
      <point x="1024.0" y="1119.0" type="curve" smooth="yes"/>
      <point x="1024.0" y="1133.0" type="line" smooth="yes"/>
      <point x="1024.0" y="1179.8774224"/>
      <point x="987.877422404" y="1216.0"/>
      <point x="941.0" y="1216.0" type="curve" smooth="yes"/>
    </contour>
    <contour>
      <point x="657" y="1024" type="line"/>
      <point x="630" y="832" type="line"/>
      <point x="437" y="832" type="line"/>
      <point x="465" y="1024" type="line"/>
    </contour>
  </outline>
</glyph>
<glyph name="dollar" format="1">
  <advance width="1216"/>
  <unicode hex="0024"/>
  <outline>
    <contour>
      <point x="127" y="1378" type="curve" smooth="yes"/>
      <point x="127" y="1230"/>
      <point x="188" y="1066"/>
      <point x="320" y="960" type="curve" smooth="yes"/>
      <point x="576" y="755" type="line"/>
      <point x="576" y="200" type="line"/>
      <point x="555" y="208" type="line"/>
      <point x="456.131835938" y="253.510742188"/>
      <point x="410.829904318" y="358.129051208"/>
      <point x="393.005559538" y="476.441358791" type="curve" smooth="yes"/>
      <point x="384.325481033" y="534.056947511"/>
      <point x="338.490838996" y="564.622709749"/>
      <point x="281.964740275" y="550.491185069" type="curve" smooth="yes"/>
      <point x="218.052509899" y="534.513127475" type="line" smooth="yes"/>
      <point x="167.5337275" y="521.883431875"/>
      <point x="130.026268065" y="463.837011999"/>
      <point x="139.270639802" y="412.590566491" type="curve" smooth="yes"/>
      <point x="150.083274603" y="352.650408745"/>
      <point x="167.845214844" y="297.268066406"/>
      <point x="192" y="247" type="curve" smooth="yes"/>
      <point x="250" y="128"/>
      <point x="364" y="1"/>
      <point x="576" y="-15" type="curve"/>
      <point x="576.0" y="-65.0" type="line" smooth="yes"/>
      <point x="576.0" y="-100.58165797"/>
      <point x="603.41834203" y="-128.0"/>
      <point x="639.0" y="-128.0" type="curve" smooth="yes"/>
      <point x="641.0" y="-128.0" type="line" smooth="yes"/>
      <point x="676.58165797" y="-128.0"/>
      <point x="704.0" y="-100.58165797"/>
      <point x="704.0" y="-65.0" type="curve" smooth="yes"/>
      <point x="704" y="-15" type="line"/>
      <point x="964" y="11"/>
      <point x="1088" y="197"/>
      <point x="1088" y="401" type="curve" smooth="yes"/>
      <point x="1088" y="577"/>
      <point x="994" y="767"/>
      <point x="832" y="896" type="curve" smooth="yes"/>
      <point x="704" y="998" type="line"/>
      <point x="704" y="1564" type="line"/>
      <point x="724" y="1549" type="line" smooth="yes"/>
      <point x="775.379394531" y="1507.21142578"/>
      <point x="804.232135773" y="1447.58925104"/>
      <point x="819.238767276" y="1379.13552094" type="curve" smooth="yes"/>
      <point x="832.346977749" y="1319.34156241"/>
      <point x="877.466842081" y="1291.36671052"/>
      <point x="936.853056831" y="1306.21326421" type="curve" smooth="yes"/>
      <point x="998.656734659" y="1321.66418366" type="line" smooth="yes"/>
      <point x="1048.34938269" y="1334.08734567"/>
      <point x="1084.96048698" y="1392.99301221"/>
      <point x="1074.10094808" y="1443.05062539" type="curve" smooth="yes"/>
      <point x="1041.86768413" y="1591.63154334"/>
      <point x="953.743896484" y="1732.69775391"/>
      <point x="745" y="1790" type="curve"/>
      <point x="704" y="1799" type="line"/>
      <point x="704.0" y="1857.0" type="line" smooth="yes"/>
      <point x="704.0" y="1892.58165797"/>
      <point x="676.58165797" y="1920.0"/>
      <point x="641.0" y="1920.0" type="curve" smooth="yes"/>
      <point x="639.0" y="1920.0" type="line" smooth="yes"/>
      <point x="603.41834203" y="1920.0"/>
      <point x="576.0" y="1892.58165797"/>
      <point x="576.0" y="1857.0" type="curve" smooth="yes"/>
      <point x="576" y="1810" type="line"/>
      <point x="283" y="1810"/>
      <point x="127" y="1608"/>
    </contour>
    <contour>
      <point x="576" y="1600" type="curve"/>
      <point x="576" y="1101" type="line"/>
      <point x="512" y="1152" type="line" smooth="yes"/>
      <point x="425" y="1221"/>
      <point x="384" y="1317"/>
      <point x="384" y="1405" type="curve" smooth="yes"/>
      <point x="384" y="1485"/>
      <point x="415" y="1553"/>
      <point x="489" y="1584" type="curve" smooth="yes"/>
      <point x="514" y="1595"/>
      <point x="543" y="1600"/>
    </contour>
    <contour>
      <point x="704" y="198" type="curve"/>
      <point x="704" y="648" type="line"/>
      <point x="724" y="628" type="line" smooth="yes"/>
      <point x="796" y="556"/>
      <point x="832" y="479"/>
      <point x="832" y="384" type="curve" smooth="yes"/>
      <point x="832" y="279"/>
      <point x="789" y="217"/>
    </contour>
  </outline>
</glyph>
<glyph name="percent" format="1">
  <advance width="1999"/>
  <unicode hex="0025"/>
  <outline>
    <contour>
      <point x="444" y="541" type="curve" smooth="yes"/>
      <point x="631" y="541"/>
      <point x="811" y="678"/>
      <point x="811" y="1032" type="curve" smooth="yes"/>
      <point x="811" y="1477"/>
      <point x="547" y="1516"/>
      <point x="444" y="1516" type="curve" smooth="yes"/>
      <point x="341" y="1516"/>
      <point x="78" y="1477"/>
      <point x="78" y="1032" type="curve" smooth="yes"/>
      <point x="78" y="678"/>
      <point x="257" y="541"/>
    </contour>
    <contour>
      <point x="444" y="1321" type="curve" smooth="yes"/>
      <point x="564" y="1321"/>
      <point x="578" y="1139"/>
      <point x="578" y="1032" type="curve" smooth="yes"/>
      <point x="578" y="924"/>
      <point x="557" y="735"/>
      <point x="444" y="735" type="curve" smooth="yes"/>
      <point x="332" y="735"/>
      <point x="311" y="926"/>
      <point x="311" y="1032" type="curve" smooth="yes"/>
      <point x="311" y="1139"/>
      <point x="326" y="1321"/>
    </contour>
    <contour>
      <point x="1554" y="0" type="curve" smooth="yes"/>
      <point x="1741" y="0"/>
      <point x="1921" y="137"/>
      <point x="1921" y="492" type="curve" smooth="yes"/>
      <point x="1921" y="936"/>
      <point x="1657" y="975"/>
      <point x="1554" y="975" type="curve" smooth="yes"/>
      <point x="1451" y="975"/>
      <point x="1188" y="936"/>
      <point x="1188" y="492" type="curve" smooth="yes"/>
      <point x="1188" y="137"/>
      <point x="1367" y="0"/>
    </contour>
    <contour>
      <point x="1554" y="780" type="curve" smooth="yes"/>
      <point x="1674" y="780"/>
      <point x="1688" y="599"/>
      <point x="1688" y="492" type="curve" smooth="yes"/>
      <point x="1688" y="383"/>
      <point x="1667" y="195"/>
      <point x="1554" y="195" type="curve" smooth="yes"/>
      <point x="1442" y="195"/>
      <point x="1421" y="385"/>
      <point x="1421" y="492" type="curve" smooth="yes"/>
      <point x="1421" y="599"/>
      <point x="1436" y="780"/>
    </contour>
    <contour>
      <point x="871.0" y="0.0" type="line" smooth="yes"/>
      <point x="929.856760198" y="0.0"/>
      <point x="978.514642341" y="40.4511598333"/>
      <point x="989.264585815" y="98.3178768333" type="curve" smooth="yes"/>
      <point x="1234.73541419" y="1419.68212317" type="line" smooth="yes"/>
      <point x="1244.49854143" y="1472.23682939"/>
      <point x="1206.45386609" y="1518.0"/>
      <point x="1153.0" y="1518.0" type="curve" smooth="yes"/>
      <point x="1134.0" y="1518.0" type="line" smooth="yes"/>
      <point x="1075.13603113" y="1518.0"/>
      <point x="1026.46092467" y="1477.56071958"/>
      <point x="1015.6728179" y="1419.69377234" type="curve" smooth="yes"/>
      <point x="769.3271821" y="98.3062276577" type="line" smooth="yes"/>
      <point x="759.532644928" y="45.7687455863"/>
      <point x="797.557320606" y="0.0"/>
      <point x="851.0" y="0.0" type="curve" smooth="yes"/>
    </contour>
  </outline>
</glyph>
<glyph name="ampersand" format="1">
  <advance width="1344"/>
  <unicode hex="0026"/>
  <outline>
    <contour>
      <point x="896" y="157" type="curve"/>
      <point x="964.930664062" y="89.5205078125"/>
      <point x="1035.44075298" y="27.8322401047"/>
      <point x="1117.46234014" y="-0.942602752708" type="curve" smooth="yes"/>
      <point x="1157.242831" y="-14.8984089374"/>
      <point x="1216.0" y="26.7564244707"/>
      <point x="1216.0" y="68.9138909423" type="curve" smooth="yes"/>
      <point x="1216.0" y="113.106301868" type="line" smooth="yes"/>
      <point x="1216.0" y="218.233648363"/>
      <point x="1209.07268718" y="231.295612318"/>
      <point x="1122.043741" y="290.267821932" type="curve" smooth="yes"/>
      <point x="1093.92577195" y="309.321008682"/>
      <point x="1070.40771484" y="332.619628906"/>
      <point x="1057" y="350" type="curve"/>
      <point x="1113.1796875" y="435.830078125"/>
      <point x="1178.49177456" y="602.025272369"/>
      <point x="1204.48103336" y="732.673076976" type="curve" smooth="yes"/>
      <point x="1213.7476049" y="779.256061036"/>
      <point x="1170.46235603" y="832.0"/>
      <point x="1122.96663252" y="832.0" type="curve" smooth="yes"/>
      <point x="1061.37328325" y="832.0" type="line" smooth="yes"/>
      <point x="1002.04142546" y="832.0"/>
      <point x="955.461725244" y="791.62322216"/>
      <point x="947.039864647" y="732.892126367" type="curve" smooth="yes"/>
      <point x="932.3230474" y="630.262215376"/>
      <point x="916.843261719" y="558.318359375"/>
      <point x="896" y="512" type="curve"/>
      <point x="640" y="896" type="line"/>
      <point x="780" y="1036"/>
      <point x="960" y="1286"/>
      <point x="960" y="1472" type="curve" smooth="yes"/>
      <point x="960" y="1675"/>
      <point x="788" y="1810"/>
      <point x="576" y="1810" type="curve" smooth="yes"/>
      <point x="333" y="1810"/>
      <point x="192" y="1629"/>
      <point x="192" y="1408" type="curve" smooth="yes"/>
      <point x="192" y="1258"/>
      <point x="303" y="1060"/>
      <point x="384" y="896" type="curve"/>
      <point x="207" y="741"/>
      <point x="128" y="550"/>
      <point x="128" y="384" type="curve" smooth="yes"/>
      <point x="128" y="160"/>
      <point x="267" y="-18"/>
      <point x="512" y="-18" type="curve" smooth="yes"/>
      <point x="663" y="-18"/>
      <point x="807" y="44"/>
    </contour>
    <contour>
      <point x="448" y="1408" type="curve" smooth="yes"/>
      <point x="448" y="1508"/>
      <point x="491" y="1600"/>
      <point x="576" y="1600" type="curve" smooth="yes"/>
      <point x="656" y="1600"/>
      <point x="704" y="1548"/>
      <point x="704" y="1472" type="curve" smooth="yes"/>
      <point x="704" y="1346"/>
      <point x="610" y="1105"/>
      <point x="545" y="1024" type="curve"/>
      <point x="497" y="1141"/>
      <point x="448" y="1316"/>
    </contour>
    <contour>
      <point x="613" y="503" type="curve" smooth="yes"/>
      <point x="736" y="320" type="line"/>
      <point x="693" y="266"/>
      <point x="615" y="192"/>
      <point x="512" y="192" type="curve" smooth="yes"/>
      <point x="419" y="192"/>
      <point x="384" y="281"/>
      <point x="384" y="384" type="curve" smooth="yes"/>
      <point x="384" y="494"/>
      <point x="425" y="629"/>
      <point x="481" y="704" type="curve"/>
      <point x="486" y="691"/>
      <point x="552" y="597"/>
    </contour>
  </outline>
</glyph>
<glyph name="quotesingle" format="1">
  <advance width="384"/>
  <unicode hex="0027"/>
  <outline>
    <contour>
      <point x="191.0" y="1408.0" type="line" smooth="yes"/>
      <point x="227.9456198" y="1408.0"/>
      <point x="258.28331372" y="1433.69988232"/>
      <point x="264.3571362" y="1470.1428172" type="curve" smooth="yes"/>
      <point x="301.560101269" y="1693.36060762" type="line" smooth="yes"/>
      <point x="310.409813192" y="1746.45887915"/>
      <point x="271.830696088" y="1792.0"/>
      <point x="218.0" y="1792.0" type="curve" smooth="yes"/>
      <point x="162.0" y="1792.0" type="line" smooth="yes"/>
      <point x="108.169303912" y="1792.0"/>
      <point x="69.5901868077" y="1746.45887915"/>
      <point x="78.4398987305" y="1693.36060762" type="curve" smooth="yes"/>
      <point x="115.6428638" y="1470.1428172" type="line" smooth="yes"/>
      <point x="121.71668628" y="1433.69988232"/>
      <point x="152.0543802" y="1408.0"/>
      <point x="189.0" y="1408.0" type="curve" smooth="yes"/>
    </contour>
  </outline>
</glyph>
<glyph name="parenleft" format="1">
  <advance width="640"/>
  <unicode hex="0028"/>
  <outline>
    <contour>
      <point x="481.344822834" y="-56.2897192879" type="curve" smooth="yes"/>
      <point x="527.200558484" y="-64.5305332464"/>
      <point x="576.0" y="-23.7191650964"/>
      <point x="576.0" y="21.6996342974" type="curve"/>
      <point x="576.0" y="-41.2154201943" type="line"/>
      <point x="576.0" y="81.6707433086"/>
      <point x="578.133793526" y="76.9521750879"/>
      <point x="485.861809194" y="158.111833096" type="curve" smooth="yes"/>
      <point x="407.788833618" y="226.782470703"/>
      <point x="384.0" y="426.78125"/>
      <point x="384" y="896" type="curve" smooth="yes"/>
      <point x="384.0" y="1365.21875"/>
      <point x="407.788833618" y="1565.2175293"/>
      <point x="485.861809194" y="1633.8881669" type="curve" smooth="yes"/>
      <point x="577.688628193" y="1714.65627089"/>
      <point x="576.0" y="1710.92211985"/>
      <point x="576.0" y="1808.1710044" type="curve"/>
      <point x="576.0" y="1769.12882804" type="line"/>
      <point x="576.0" y="1815.10773095"/>
      <point x="526.598764974" y="1856.42238389"/>
      <point x="481.344822834" y="1848.28971929" type="curve" smooth="yes"/>
      <point x="251.10476619" y="1806.91287851"/>
      <point x="128.0" y="1586.68847656"/>
      <point x="128" y="896" type="curve" smooth="yes"/>
      <point x="128.0" y="205.311523438"/>
      <point x="251.10476619" y="-14.9128785133"/>
    </contour>
  </outline>
</glyph>
<glyph name="parenright" format="1">
  <advance width="640"/>
  <unicode hex="0029"/>
  <outline>
    <contour>
      <point x="158.655177166" y="1848.28971929" type="curve" smooth="yes"/>
      <point x="112.799441516" y="1856.53053325"/>
      <point x="64.0" y="1815.7191651"/>
      <point x="64.0" y="1770.3003657" type="curve"/>
      <point x="64.0" y="1833.21542019" type="line"/>
      <point x="64.0" y="1710.32925669"/>
      <point x="61.8662064741" y="1715.04782491"/>
      <point x="154.138190806" y="1633.8881669" type="curve" smooth="yes"/>
      <point x="232.211166382" y="1565.2175293"/>
      <point x="256.0" y="1365.21875"/>
      <point x="256" y="896" type="curve" smooth="yes"/>
      <point x="256.0" y="426.78125"/>
      <point x="232.211166382" y="226.782470703"/>
      <point x="154.138190806" y="158.111833096" type="curve" smooth="yes"/>
      <point x="62.3113718067" y="77.3437291052"/>
      <point x="64.0" y="81.0778801526"/>
      <point x="64.0" y="-16.1710044007" type="curve"/>
      <point x="64.0" y="22.8711719564" type="line"/>
      <point x="64.0" y="-23.1077309524"/>
      <point x="113.401235026" y="-64.4223838887"/>
      <point x="158.655177166" y="-56.2897192879" type="curve" smooth="yes"/>
      <point x="388.89523381" y="-14.9128785133"/>
      <point x="512.0" y="205.311523438"/>
      <point x="512" y="896" type="curve" smooth="yes"/>
      <point x="512.0" y="1586.68847656"/>
      <point x="388.89523381" y="1806.91287851"/>
    </contour>
  </outline>
</glyph>
<glyph name="asterisk" format="1">
  <advance width="896"/>
  <unicode hex="002A"/>
  <outline>
    <contour>
      <point x="578.287303861" y="982.27311555" type="line" smooth="yes"/>
      <point x="599.707906846" y="938.962845282"/>
      <point x="650.563140487" y="923.87291213"/>
      <point x="692.139524611" y="948.490507993" type="curve" smooth="yes"/>
      <point x="693.860475389" y="949.509492007" type="line" smooth="yes"/>
      <point x="735.340643091" y="974.07011762"/>
      <point x="746.338451832" y="1025.88427126"/>
      <point x="718.411453078" y="1065.17690904" type="curve" smooth="yes"/>
      <point x="597" y="1236" type="line"/>
      <point x="774.602914231" y="1304.41513038" type="line" smooth="yes"/>
      <point x="819.509125287" y="1321.71363192"/>
      <point x="840.904413266" y="1369.56376171"/>
      <point x="823.854304023" y="1414.56486971" type="curve" smooth="yes"/>
      <point x="823.145695977" y="1416.43513029" type="line" smooth="yes"/>
      <point x="806.73735649" y="1459.74238697"/>
      <point x="758.834955451" y="1477.66753707"/>
      <point x="718.027129728" y="1455.77065498" type="curve" smooth="yes"/>
      <point x="547" y="1364" type="line"/>
      <point x="566.85927486" y="1569.44077441" type="line" smooth="yes"/>
      <point x="571.886044891" y="1621.4418437"/>
      <point x="533.243464894" y="1664.0"/>
      <point x="481.0" y="1664.0" type="curve" smooth="yes"/>
      <point x="479.0" y="1664.0" type="line" smooth="yes"/>
      <point x="426.705544408" y="1664.0"/>
      <point x="387.968602822" y="1621.47925548"/>
      <point x="392.828297902" y="1569.41109391" type="curve" smooth="yes"/>
      <point x="412" y="1364" type="line"/>
      <point x="241.904413599" y="1455.64333635" type="line" smooth="yes"/>
      <point x="201.155364259" y="1477.59792619"/>
      <point x="153.253984545" y="1459.71953298"/>
      <point x="136.854304023" y="1416.43513029" type="curve" smooth="yes"/>
      <point x="136.145695977" y="1414.56486971" type="line" smooth="yes"/>
      <point x="119.110411171" y="1369.6028885"/>
      <point x="140.574847627" y="1321.81581686"/>
      <point x="185.500393349" y="1304.68467491" type="curve" smooth="yes"/>
      <point x="363" y="1237" type="line"/>
      <point x="241.449946728" y="1065.27521544" type="line" smooth="yes"/>
      <point x="213.583728752" y="1025.9060819"/>
      <point x="224.635925356" y="974.083991565"/>
      <point x="266.139524611" y="949.509492007" type="curve" smooth="yes"/>
      <point x="267.860475389" y="948.490507993" type="line" smooth="yes"/>
      <point x="309.436859513" y="923.87291213"/>
      <point x="360.292093154" y="938.962845282"/>
      <point x="381.712696139" y="982.27311555" type="curve" smooth="yes"/>
      <point x="480" y="1181" type="line"/>
    </contour>
  </outline>
</glyph>
<glyph name="plus" format="1">
  <advance width="704"/>
  <unicode hex="002B"/>
  <outline>
    <contour>
      <point x="448" y="576" type="line"/>
      <point x="545.0" y="576.0" type="line" smooth="yes"/>
      <point x="598.654881065" y="576.0"/>
      <point x="640.0" y="617.345118935"/>
      <point x="640.0" y="671.0" type="curve" smooth="yes"/>
      <point x="640.0" y="673.0" type="line" smooth="yes"/>
      <point x="640.0" y="726.654881065"/>
      <point x="598.654881065" y="768.0"/>
      <point x="545.0" y="768.0" type="curve" smooth="yes"/>
      <point x="448" y="768" type="line"/>
      <point x="448.0" y="865.0" type="line" smooth="yes"/>
      <point x="448.0" y="918.654881065"/>
      <point x="406.654881065" y="960.0"/>
      <point x="353.0" y="960.0" type="curve" smooth="yes"/>
      <point x="351.0" y="960.0" type="line" smooth="yes"/>
      <point x="297.345118935" y="960.0"/>
      <point x="256.0" y="918.654881065"/>
      <point x="256.0" y="865.0" type="curve"/>
      <point x="256" y="768" type="line"/>
      <point x="159.0" y="768.0" type="line" smooth="yes"/>
      <point x="105.345118935" y="768.0"/>
      <point x="64.0" y="726.654881065"/>
      <point x="64.0" y="673.0" type="curve"/>
      <point x="64.0" y="671.0" type="line" smooth="yes"/>
      <point x="64.0" y="617.345118935"/>
      <point x="105.345118935" y="576.0"/>
      <point x="159.0" y="576.0" type="curve" smooth="yes"/>
      <point x="256" y="576" type="line"/>
      <point x="256.0" y="479.0" type="line" smooth="yes"/>
      <point x="256.0" y="425.345118935"/>
      <point x="297.345118935" y="384.0"/>
      <point x="351.0" y="384.0" type="curve" smooth="yes"/>
      <point x="353.0" y="384.0" type="line" smooth="yes"/>
      <point x="406.654881065" y="384.0"/>
      <point x="448.0" y="425.345118935"/>
      <point x="448.0" y="479.0" type="curve" smooth="yes"/>
    </contour>
  </outline>
</glyph>
<glyph name="comma" format="1">
  <advance width="408"/>
  <unicode hex="002C"/>
  <outline>
    <contour>
      <point x="204" y="0" type="line"/>
      <point x="204.0" y="-34.6508789062"/>
      <point x="204.0" y="-91.8331007957"/>
      <point x="145.559329137" y="-116.301968994" type="curve" smooth="yes"/>
      <point x="103.093083646" y="-134.08241108"/>
      <point x="92.8472496204" y="-161.694499241"/>
      <point x="113.436208443" y="-202.872416885" type="curve" smooth="yes"/>
      <point x="114.650858121" y="-205.301716242" type="line" smooth="yes"/>
      <point x="129.095413425" y="-234.190826849"/>
      <point x="178.974563193" y="-256.519949275"/>
      <point x="210.143310547" y="-248.050292969" type="curve" smooth="yes"/>
      <point x="318.895050853" y="-218.498580396"/>
      <point x="330.590642066" y="-103.066881352"/>
      <point x="331.848432087" y="155.990369433" type="curve" smooth="yes"/>
      <point x="332.121474962" y="212.226891538"/>
      <point x="288.560380333" y="256.0"/>
      <point x="232.323195385" y="256.0" type="curve" smooth="yes"/>
      <point x="176.0" y="256.0" type="line" smooth="yes"/>
      <point x="119.521177826" y="256.0"/>
      <point x="76.0" y="212.478822174"/>
      <point x="76.0" y="156.0" type="curve" smooth="yes"/>
      <point x="76.0" y="100.0" type="line" smooth="yes"/>
      <point x="76.0" y="43.521177826"/>
      <point x="119.521177826" y="0.0"/>
      <point x="176.0" y="0.0" type="curve" smooth="yes"/>
    </contour>
  </outline>
</glyph>
<glyph name="period" format="1">
  <advance width="384"/>
  <unicode hex="002E"/>
  <outline>
    <contour>
      <point x="220.0" y="0.0" type="line" smooth="yes"/>
      <point x="276.478822174" y="0.0"/>
      <point x="320.0" y="43.521177826"/>
      <point x="320.0" y="100.0" type="curve" smooth="yes"/>
      <point x="320.0" y="156.0" type="line" smooth="yes"/>
      <point x="320.0" y="212.478822174"/>
      <point x="276.478822174" y="256.0"/>
      <point x="220.0" y="256.0" type="curve" smooth="yes"/>
      <point x="164.0" y="256.0" type="line" smooth="yes"/>
      <point x="107.521177826" y="256.0"/>
      <point x="64.0" y="212.478822174"/>
      <point x="64.0" y="156.0" type="curve"/>
      <point x="64.0" y="100.0" type="line" smooth="yes"/>
      <point x="64.0" y="43.521177826"/>
      <point x="107.521177826" y="0.0"/>
      <point x="164.0" y="0.0" type="curve" smooth="yes"/>
    </contour>
  </outline>
</glyph>
<glyph name="slash" format="1">
  <advance width="832"/>
  <unicode hex="002F"/>
  <outline>
    <contour>
      <point x="156.0" y="0.0" type="line" smooth="yes"/>
      <point x="216.153606401" y="0.0"/>
      <point x="268.193362248" y="37.9349047705"/>
      <point x="286.600918041" y="95.2028561285" type="curve" smooth="yes"/>
      <point x="801.399081959" y="1696.79714387" type="line" smooth="yes"/>
      <point x="816.998810757" y="1745.32963347"/>
      <point x="782.97797647" y="1792.0"/>
      <point x="732.0" y="1792.0" type="curve" smooth="yes"/>
      <point x="675.0" y="1792.0" type="line" smooth="yes"/>
      <point x="614.850963338" y="1792.0"/>
      <point x="562.824432978" y="1754.05458069"/>
      <point x="544.447245431" y="1696.78167619" type="curve" smooth="yes"/>
      <point x="30.5527545691" y="95.218323805" type="line" smooth="yes"/>
      <point x="14.974736934" y="46.6690931925"/>
      <point x="49.0127228957" y="0.0"/>
      <point x="100.0" y="0.0" type="curve" smooth="yes"/>
    </contour>
  </outline>
</glyph>
<glyph name="zero" format="1">
  <advance width="1152"/>
  <unicode hex="0030"/>
  <outline>
    <contour>
      <point x="1024" y="512" type="curve" smooth="yes"/>
      <point x="1024" y="1280" type="line" smooth="yes"/>
      <point x="1024" y="1763"/>
      <point x="704" y="1810"/>
      <point x="576" y="1810" type="curve" smooth="yes"/>
      <point x="448" y="1810"/>
      <point x="128" y="1763"/>
      <point x="128" y="1280" type="curve" smooth="yes"/>
      <point x="128" y="512" type="line" smooth="yes"/>
      <point x="128" y="133"/>
      <point x="346" y="-18"/>
      <point x="576" y="-18" type="curve" smooth="yes"/>
      <point x="806" y="-18"/>
      <point x="1024" y="133"/>
    </contour>
    <contour>
      <point x="384" y="512" type="curve" smooth="yes"/>
      <point x="384" y="1280" type="line" smooth="yes"/>
      <point x="384" y="1396"/>
      <point x="395" y="1600"/>
      <point x="576" y="1600" type="curve" smooth="yes"/>
      <point x="757" y="1600"/>
      <point x="768" y="1396"/>
      <point x="768" y="1280" type="curve" smooth="yes"/>
      <point x="768" y="512" type="line" smooth="yes"/>
      <point x="768" y="400"/>
      <point x="745" y="192"/>
      <point x="576" y="192" type="curve" smooth="yes"/>
      <point x="407" y="192"/>
      <point x="384" y="400"/>
    </contour>
  </outline>
</glyph>
<glyph name="one" format="1">
  <advance width="640"/>
  <unicode hex="0031"/>
  <outline>
    <contour>
      <point x="256" y="1408" type="line"/>
      <point x="256.0" y="100.0" type="line" smooth="yes"/>
      <point x="256.0" y="43.521177826"/>
      <point x="299.521177826" y="0.0"/>
      <point x="356.0" y="0.0" type="curve" smooth="yes"/>
      <point x="412.0" y="0.0" type="line" smooth="yes"/>
      <point x="468.478822174" y="0.0"/>
      <point x="512.0" y="43.521177826"/>
      <point x="512.0" y="100.0" type="curve" smooth="yes"/>
      <point x="512.0" y="1697.0" type="line" smooth="yes"/>
      <point x="512.0" y="1750.65488107"/>
      <point x="470.654881065" y="1792.0"/>
      <point x="417.0" y="1792.0" type="curve"/>
      <point x="450.126777366" y="1792.0" type="line"/>
      <point x="359.574697495" y="1792.0"/>
      <point x="328.029754437" y="1779.12612123"/>
      <point x="263.334922762" y="1715.76794951" type="curve" smooth="yes"/>
      <point x="230.11595071" y="1683.23531466"/>
      <point x="190.420841882" y="1657.41300011"/>
      <point x="151.372202395" y="1637.30250968" type="curve" smooth="yes"/>
      <point x="90.6670568943" y="1606.03867401"/>
      <point x="64.0" y="1562.30900273"/>
      <point x="64.0" y="1497.30483847" type="curve"/>
      <point x="64.0" y="1503.0" type="line"/>
      <point x="64.0" y="1449.34511893"/>
      <point x="105.345118935" y="1408.0"/>
      <point x="159.0" y="1408.0" type="curve" smooth="yes"/>
    </contour>
  </outline>
</glyph>
<glyph name="two" format="1">
  <advance width="1089"/>
  <unicode hex="0032"/>
  <outline>
    <contour>
      <point x="353" y="1280" type="line" smooth="yes"/>
      <point x="353" y="1472"/>
      <point x="417" y="1600"/>
      <point x="545" y="1600" type="curve" smooth="yes"/>
      <point x="673" y="1600"/>
      <point x="737" y="1472"/>
      <point x="737" y="1344" type="curve" smooth="yes"/>
      <point x="737" y="1253"/>
      <point x="726" y="1154"/>
      <point x="545" y="896" type="curve" smooth="yes"/>
      <point x="153.432049275" y="337.863054646" type="line" smooth="yes"/>
      <point x="118.119867589" y="287.529432644"/>
      <point x="96.0" y="217.485150072"/>
      <point x="96.0" y="156.0" type="curve"/>
      <point x="96.0" y="100.0" type="line" smooth="yes"/>
      <point x="96.0" y="43.521177826"/>
      <point x="139.521177826" y="0.0"/>
      <point x="196.0" y="0.0" type="curve" smooth="yes"/>
      <point x="893.0" y="0.0" type="line" smooth="yes"/>
      <point x="949.478822174" y="0.0"/>
      <point x="993.0" y="43.521177826"/>
      <point x="993.0" y="100.0" type="curve" smooth="yes"/>
      <point x="993.0" y="156.0" type="line" smooth="yes"/>
      <point x="993.0" y="212.478822174"/>
      <point x="949.478822174" y="256.0"/>
      <point x="893.0" y="256.0" type="curve" smooth="yes"/>
      <point x="353" y="256" type="line"/>
      <point x="801" y="832" type="line"/>
      <point x="931" y="1018"/>
      <point x="993" y="1151"/>
      <point x="993" y="1344" type="curve" smooth="yes"/>
      <point x="993" y="1600"/>
      <point x="865" y="1810"/>
      <point x="545" y="1810" type="curve" smooth="yes"/>
      <point x="225" y="1810"/>
      <point x="97" y="1600"/>
      <point x="97" y="1280" type="curve" smooth="yes"/>
      <point x="97.0" y="1247.0" type="line" smooth="yes"/>
      <point x="97.0" y="1229.57389565"/>
      <point x="110.573895647" y="1216.0"/>
      <point x="128.0" y="1216.0" type="curve" smooth="yes"/>
      <point x="322.0" y="1216.0" type="line" smooth="yes"/>
      <point x="339.426104353" y="1216.0"/>
      <point x="353.0" y="1229.57389565"/>
      <point x="353.0" y="1247.0" type="curve" smooth="yes"/>
    </contour>
  </outline>
</glyph>
<glyph name="three" format="1">
  <advance width="1088"/>
  <unicode hex="0033"/>
  <outline>
    <contour>
      <point x="992" y="512" type="curve" smooth="yes"/>
      <point x="992" y="820"/>
      <point x="839" y="925"/>
      <point x="736" y="960" type="curve"/>
      <point x="839" y="992"/>
      <point x="992" y="1088"/>
      <point x="992" y="1344" type="curve" smooth="yes"/>
      <point x="992" y="1600"/>
      <point x="864" y="1810"/>
      <point x="544" y="1810" type="curve" smooth="yes"/>
      <point x="224" y="1810"/>
      <point x="96" y="1600"/>
      <point x="96" y="1344" type="curve" smooth="yes"/>
      <point x="96.0" y="1311.0" type="line" smooth="yes"/>
      <point x="96.0" y="1293.57389565"/>
      <point x="109.573895647" y="1280.0"/>
      <point x="127.0" y="1280.0" type="curve" smooth="yes"/>
      <point x="246.518032544" y="1280.0" type="line" smooth="yes"/>
      <point x="308.002234736" y="1280.0"/>
      <point x="350.44308956" y="1318.72233781"/>
      <point x="356.065124512" y="1379.94896472" type="curve" smooth="yes"/>
      <point x="371.980041504" y="1553.2699585"/>
      <point x="434.625" y="1600.0"/>
      <point x="544" y="1600" type="curve" smooth="yes"/>
      <point x="672" y="1600"/>
      <point x="736" y="1536"/>
      <point x="736" y="1344" type="curve" smooth="yes"/>
      <point x="736.0" y="1190.109375"/>
      <point x="694.884853363" y="1118.44904327"/>
      <point x="579.700207938" y="1096.06465267" type="curve" smooth="yes"/>
      <point x="513.143835041" y="1083.13043004"/>
      <point x="480.0" y="1042.92553726"/>
      <point x="480.0" y="975.124026296" type="curve" smooth="yes"/>
      <point x="480.0" y="954.797368486" type="line" smooth="yes"/>
      <point x="480.0" y="877.321895487"/>
      <point x="505.44169488" y="842.055384406"/>
      <point x="578.962408625" y="817.618658625" type="curve" smooth="yes"/>
      <point x="694.709335327" y="779.146835327"/>
      <point x="736.0" y="666.21875"/>
      <point x="736" y="512" type="curve" smooth="yes"/>
      <point x="736" y="256"/>
      <point x="672" y="192"/>
      <point x="544" y="192" type="curve" smooth="yes"/>
      <point x="434.625" y="192.0"/>
      <point x="371.980041504" y="238.730041504"/>
      <point x="356.065124512" y="412.051035285" type="curve" smooth="yes"/>
      <point x="350.44308956" y="473.27766219"/>
      <point x="308.002234736" y="512.0"/>
      <point x="246.518032544" y="512.0" type="curve" smooth="yes"/>
      <point x="127.0" y="512.0" type="line" smooth="yes"/>
      <point x="109.573895647" y="512.0"/>
      <point x="96.0" y="498.426104353"/>
      <point x="96.0" y="481.0" type="curve" smooth="yes"/>
      <point x="96" y="448" type="line" smooth="yes"/>
      <point x="96" y="192"/>
      <point x="224" y="-18"/>
      <point x="544" y="-18" type="curve" smooth="yes"/>
      <point x="864" y="-18"/>
      <point x="992" y="192"/>
    </contour>
  </outline>
</glyph>
<glyph name="four" format="1">
  <advance width="1126"/>
  <unicode hex="0034"/>
  <outline>
    <contour>
      <point x="764.0" y="0.0" type="line" smooth="yes"/>
      <point x="820.478822174" y="0.0"/>
      <point x="864.0" y="43.521177826"/>
      <point x="864.0" y="100.0" type="curve" smooth="yes"/>
      <point x="864" y="460" type="line"/>
      <point x="962.0" y="460.0" type="line" smooth="yes"/>
      <point x="1018.47882217" y="460.0"/>
      <point x="1062.0" y="503.521177826"/>
      <point x="1062.0" y="560.0" type="curve" smooth="yes"/>
      <point x="1062.0" y="602.0" type="line" smooth="yes"/>
      <point x="1062.0" y="658.478822174"/>
      <point x="1018.47882217" y="702.0"/>
      <point x="962.0" y="702.0" type="curve" smooth="yes"/>
      <point x="864" y="702" type="line"/>
      <point x="864.0" y="1693.0" type="line" smooth="yes"/>
      <point x="864.0" y="1749.47882217"/>
      <point x="820.478822174" y="1793.0"/>
      <point x="764.0" y="1793.0" type="curve" smooth="yes"/>
      <point x="644.0" y="1793.0" type="line" smooth="yes"/>
      <point x="583.087860448" y="1793.0"/>
      <point x="528.635656778" y="1757.05841139"/>
      <point x="504.692800665" y="1701.04923013" type="curve" smooth="yes"/>
      <point x="135.307199335" y="836.950769874" type="line" smooth="yes"/>
      <point x="111.957921127" y="782.330136921"/>
      <point x="96.0" y="704.402039839"/>
      <point x="96.0" y="645.0" type="curve" smooth="yes"/>
      <point x="96.0" y="560.0" type="line" smooth="yes"/>
      <point x="96.0" y="503.521177826"/>
      <point x="139.521177826" y="460.0"/>
      <point x="196.0" y="460.0" type="curve" smooth="yes"/>
      <point x="608" y="460" type="line"/>
      <point x="608.0" y="100.0" type="line" smooth="yes"/>
      <point x="608.0" y="43.521177826"/>
      <point x="651.521177826" y="0.0"/>
      <point x="708.0" y="0.0" type="curve" smooth="yes"/>
    </contour>
    <contour>
      <point x="608" y="1472" type="line"/>
      <point x="608" y="702" type="line"/>
      <point x="352" y="702" type="line"/>
    </contour>
  </outline>
</glyph>
<glyph name="five" format="1">
  <advance width="1152"/>
  <unicode hex="0035"/>
  <outline>
    <contour>
      <point x="268.0" y="1792.0" type="line" smooth="yes"/>
      <point x="211.521177826" y="1792.0"/>
      <point x="168.0" y="1748.47882217"/>
      <point x="168.0" y="1692.0" type="curve"/>
      <point x="168.0" y="926.0" type="line"/>
      <point x="168.0" y="869.521177826"/>
      <point x="211.521177826" y="826.0"/>
      <point x="268.0" y="826.0" type="curve"/>
      <point x="244.480205788" y="826.0" type="line"/>
      <point x="344.27617301" y="826.0"/>
      <point x="371.636813408" y="837.653668584"/>
      <point x="440.783987667" y="909.61131839" type="curve" smooth="yes"/>
      <point x="475.232425928" y="945.45990777"/>
      <point x="522.015625" y="974.0"/>
      <point x="577" y="974" type="curve" smooth="yes"/>
      <point x="758" y="974"/>
      <point x="768" y="834"/>
      <point x="768" y="658" type="curve" smooth="yes"/>
      <point x="768" y="345"/>
      <point x="748" y="186"/>
      <point x="557" y="186" type="curve" smooth="yes"/>
      <point x="400" y="186"/>
      <point x="384" y="334"/>
      <point x="384" y="472" type="curve" smooth="yes"/>
      <point x="384.0" y="493.0" type="line" smooth="yes"/>
      <point x="384.0" y="503.640932927"/>
      <point x="375.640932927" y="512.0"/>
      <point x="365.0" y="512.0" type="curve" smooth="yes"/>
      <point x="224.065715666" y="512.0" type="line" smooth="yes"/>
      <point x="171.42980719" y="512.0"/>
      <point x="127.53395568" y="464.510827215"/>
      <point x="131.666925033" y="412.037429903" type="curve" smooth="yes"/>
      <point x="150.871141806" y="168.215032324"/>
      <point x="251.466064453" y="-18.0"/>
      <point x="571" y="-18" type="curve" smooth="yes"/>
      <point x="969" y="-18"/>
      <point x="1024" y="348"/>
      <point x="1024" y="640" type="curve" smooth="yes"/>
      <point x="1024" y="949"/>
      <point x="925" y="1166"/>
      <point x="640" y="1166" type="curve" smooth="yes"/>
      <point x="509" y="1166"/>
      <point x="429" y="1130"/>
      <point x="384" y="1102" type="curve"/>
      <point x="400" y="1536" type="line"/>
      <point x="860.0" y="1536.0" type="line" smooth="yes"/>
      <point x="916.478822174" y="1536.0"/>
      <point x="960.0" y="1579.52117783"/>
      <point x="960.0" y="1636.0" type="curve" smooth="yes"/>
      <point x="960.0" y="1692.0" type="line" smooth="yes"/>
      <point x="960.0" y="1748.47882217"/>
      <point x="916.478822174" y="1792.0"/>
      <point x="860.0" y="1792.0" type="curve" smooth="yes"/>
    </contour>
  </outline>
</glyph>
<glyph name="six" format="1">
  <advance width="1152"/>
  <unicode hex="0036"/>
  <outline>
    <contour>
      <point x="1024" y="576" type="curve" smooth="yes"/>
      <point x="1024" y="832"/>
      <point x="960" y="1088"/>
      <point x="640" y="1088" type="curve" smooth="yes"/>
      <point x="485" y="1088"/>
      <point x="414" y="1012"/>
      <point x="384" y="960" type="curve"/>
      <point x="384" y="1216" type="line" smooth="yes"/>
      <point x="384" y="1472"/>
      <point x="448" y="1600"/>
      <point x="576" y="1600" type="curve" smooth="yes"/>
      <point x="680.998291016" y="1600.0"/>
      <point x="741.026890397" y="1558.88485336"/>
      <point x="760.720003916" y="1443.70020794" type="curve" smooth="yes"/>
      <point x="771.883613574" y="1378.40446793"/>
      <point x="812.669423772" y="1344.0"/>
      <point x="878.912610919" y="1344.0" type="curve" smooth="yes"/>
      <point x="930.833231055" y="1344.0" type="line" smooth="yes"/>
      <point x="980.664573899" y="1344.0"/>
      <point x="1024.29096489" y="1394.40573957"/>
      <point x="1017.14283021" y="1443.72172988" type="curve" smooth="yes"/>
      <point x="980.797041893" y="1694.47645494"/>
      <point x="803.71875" y="1810.0"/>
      <point x="576" y="1810" type="curve" smooth="yes"/>
      <point x="256" y="1810"/>
      <point x="128" y="1536"/>
      <point x="128" y="1152" type="curve" smooth="yes"/>
      <point x="128" y="576" type="line" smooth="yes"/>
      <point x="128" y="192"/>
      <point x="320" y="-18"/>
      <point x="576" y="-18" type="curve" smooth="yes"/>
      <point x="896" y="-18"/>
      <point x="1024" y="256"/>
    </contour>
    <contour>
      <point x="576" y="896" type="curve" smooth="yes"/>
      <point x="768" y="896"/>
      <point x="768" y="704"/>
      <point x="768" y="512" type="curve" smooth="yes"/>
      <point x="768" y="320"/>
      <point x="704" y="192"/>
      <point x="576" y="192" type="curve" smooth="yes"/>
      <point x="448" y="192"/>
      <point x="384" y="320"/>
      <point x="384" y="512" type="curve" smooth="yes"/>
      <point x="384" y="768" type="line"/>
      <point x="412" y="820"/>
      <point x="473" y="896"/>
    </contour>
  </outline>
</glyph>
<glyph name="seven" format="1">
  <advance width="845"/>
  <unicode hex="0037"/>
  <outline>
    <contour>
      <point x="537" y="1579" type="line"/>
      <point x="229.338469952" y="97.9098904095" type="line" smooth="yes"/>
      <point x="218.543136781" y="45.9408932238"/>
      <point x="255.921606215" y="0.0"/>
      <point x="309.0" y="0.0" type="curve" smooth="yes"/>
      <point x="355.0" y="0.0" type="line" smooth="yes"/>
      <point x="413.960454385" y="0.0"/>
      <point x="462.867436362" y="40.2783781867"/>
      <point x="474.170378825" y="98.1452830028" type="curve" smooth="yes"/>
      <point x="769.401920811" y="1609.62210378" type="line" smooth="yes"/>
      <point x="775.837999613" y="1642.57245814"/>
      <point x="781.0" y="1695.92696078"/>
      <point x="781.0" y="1729.5" type="curve" smooth="yes"/>
      <point x="781.0" y="1731.5" type="line" smooth="yes"/>
      <point x="781.0" y="1765.66968742"/>
      <point x="754.669687415" y="1792.0"/>
      <point x="720.5" y="1792.0" type="curve" smooth="yes"/>
      <point x="164.0" y="1792.0" type="line" smooth="yes"/>
      <point x="107.521177826" y="1792.0"/>
      <point x="64.0" y="1748.47882217"/>
      <point x="64.0" y="1692.0" type="curve"/>
      <point x="64.0" y="1679.0" type="line" smooth="yes"/>
      <point x="64.0" y="1622.52117783"/>
      <point x="107.521177826" y="1579.0"/>
      <point x="164.0" y="1579.0" type="curve" smooth="yes"/>
    </contour>
  </outline>
</glyph>
<glyph name="eight" format="1">
  <advance width="1088"/>
  <unicode hex="0038"/>
  <outline>
    <contour>
      <point x="705" y="1344" type="curve" smooth="yes"/>
      <point x="705" y="1216"/>
      <point x="688" y="1063"/>
      <point x="545" y="1063" type="curve" smooth="yes"/>
      <point x="401" y="1063"/>
      <point x="383" y="1216"/>
      <point x="383" y="1344" type="curve" smooth="yes"/>
      <point x="383" y="1466"/>
      <point x="410" y="1600"/>
      <point x="545" y="1600" type="curve" smooth="yes"/>
      <point x="677" y="1600"/>
      <point x="705" y="1466"/>
    </contour>
    <contour>
      <point x="122" y="1344" type="curve" smooth="yes"/>
      <point x="122" y="1186"/>
      <point x="152" y="1049"/>
      <point x="290" y="946" type="curve"/>
      <point x="170" y="869"/>
      <point x="96" y="769"/>
      <point x="96" y="511" type="curve" smooth="yes"/>
      <point x="96" y="192"/>
      <point x="213" y="-18"/>
      <point x="545" y="-18" type="curve" smooth="yes"/>
      <point x="877" y="-18"/>
      <point x="992" y="192"/>
      <point x="992" y="511" type="curve" smooth="yes"/>
      <point x="992" y="771"/>
      <point x="918" y="867"/>
      <point x="799" y="946" type="curve"/>
      <point x="937" y="1050"/>
      <point x="966" y="1186"/>
      <point x="966" y="1344" type="curve" smooth="yes"/>
      <point x="966" y="1631"/>
      <point x="829" y="1810"/>
      <point x="545" y="1810" type="curve" smooth="yes"/>
      <point x="260" y="1810"/>
      <point x="122" y="1631"/>
    </contour>
    <contour>
      <point x="352" y="511" type="curve" smooth="yes"/>
      <point x="352" y="636"/>
      <point x="373" y="818"/>
      <point x="545" y="818" type="curve" smooth="yes"/>
      <point x="716" y="818"/>
      <point x="736" y="636"/>
      <point x="736" y="511" type="curve" smooth="yes"/>
      <point x="736" y="384"/>
      <point x="736" y="192"/>
      <point x="545" y="192" type="curve" smooth="yes"/>
      <point x="352" y="192"/>
      <point x="352" y="384"/>
    </contour>
  </outline>
</glyph>
<glyph name="nine" format="1">
  <advance width="1152"/>
  <unicode hex="0039"/>
  <outline>
    <contour>
      <point x="128" y="1216" type="curve" smooth="yes"/>
      <point x="128" y="960"/>
      <point x="192" y="704"/>
      <point x="512" y="704" type="curve" smooth="yes"/>
      <point x="666" y="704"/>
      <point x="737" y="780"/>
      <point x="768" y="832" type="curve"/>
      <point x="768" y="576" type="line" smooth="yes"/>
      <point x="768" y="320"/>
      <point x="704" y="192"/>
      <point x="576" y="192" type="curve" smooth="yes"/>
      <point x="471.001708984" y="192.0"/>
      <point x="410.973109603" y="233.115146637"/>
      <point x="391.279996084" y="348.299792062" type="curve" smooth="yes"/>
      <point x="380.116386426" y="413.595532066"/>
      <point x="339.330576228" y="448.0"/>
      <point x="273.087389081" y="448.0" type="curve" smooth="yes"/>
      <point x="221.166768945" y="448.0" type="line" smooth="yes"/>
      <point x="171.335426101" y="448.0"/>
      <point x="127.709035113" y="397.594260425"/>
      <point x="134.857169786" y="348.278270115" type="curve" smooth="yes"/>
      <point x="171.202958107" y="97.5235450566"/>
      <point x="348.28125" y="-18.0"/>
      <point x="576" y="-18" type="curve" smooth="yes"/>
      <point x="896" y="-18"/>
      <point x="1024" y="256"/>
      <point x="1024" y="640" type="curve" smooth="yes"/>
      <point x="1024" y="1216" type="line" smooth="yes"/>
      <point x="1024" y="1600"/>
      <point x="832" y="1810"/>
      <point x="576" y="1810" type="curve" smooth="yes"/>
      <point x="256" y="1810"/>
      <point x="128" y="1536"/>
    </contour>
    <contour>
      <point x="576" y="896" type="curve" smooth="yes"/>
      <point x="384" y="896"/>
      <point x="384" y="1088"/>
      <point x="384" y="1280" type="curve" smooth="yes"/>
      <point x="384" y="1472"/>
      <point x="448" y="1600"/>
      <point x="576" y="1600" type="curve" smooth="yes"/>
      <point x="704" y="1600"/>
      <point x="768" y="1472"/>
      <point x="768" y="1280" type="curve" smooth="yes"/>
      <point x="768" y="1024" type="line"/>
      <point x="739" y="971"/>
      <point x="678" y="896"/>
    </contour>
  </outline>
</glyph>
<glyph name="colon" format="1">
  <advance width="439"/>
  <unicode hex="003A"/>
  <outline>
    <contour>
      <point x="284.0" y="832.0" type="line" smooth="yes"/>
      <point x="340.478822174" y="832.0"/>
      <point x="384.0" y="875.521177826"/>
      <point x="384.0" y="932.0" type="curve" smooth="yes"/>
      <point x="384.0" y="988.0" type="line" smooth="yes"/>
      <point x="384.0" y="1044.47882217"/>
      <point x="340.478822174" y="1088.0"/>
      <point x="284.0" y="1088.0" type="curve" smooth="yes"/>
      <point x="228.0" y="1088.0" type="line" smooth="yes"/>
      <point x="171.521177826" y="1088.0"/>
      <point x="128.0" y="1044.47882217"/>
      <point x="128.0" y="988.0" type="curve" smooth="yes"/>
      <point x="128.0" y="932.0" type="line"/>
      <point x="128.0" y="875.521177826"/>
      <point x="171.521177826" y="832.0"/>
      <point x="228.0" y="832.0" type="curve" smooth="yes"/>
    </contour>
    <contour>
      <point x="284.0" y="256.0" type="line" smooth="yes"/>
      <point x="340.478822174" y="256.0"/>
      <point x="384.0" y="299.521177826"/>
      <point x="384.0" y="356.0" type="curve" smooth="yes"/>
      <point x="384.0" y="412.0" type="line" smooth="yes"/>
      <point x="384.0" y="468.478822174"/>
      <point x="340.478822174" y="512.0"/>
      <point x="284.0" y="512.0" type="curve" smooth="yes"/>
      <point x="228.0" y="512.0" type="line" smooth="yes"/>
      <point x="171.521177826" y="512.0"/>
      <point x="128.0" y="468.478822174"/>
      <point x="128.0" y="412.0" type="curve" smooth="yes"/>
      <point x="128.0" y="356.0" type="line"/>
      <point x="128.0" y="299.521177826"/>
      <point x="171.521177826" y="256.0"/>
      <point x="228.0" y="256.0" type="curve" smooth="yes"/>
    </contour>
  </outline>
</glyph>
<glyph name="semicolon" format="1">
  <advance width="384"/>
  <unicode hex="003B"/>
  <outline>
    <contour>
      <point x="220.0" y="832.0" type="line" smooth="yes"/>
      <point x="276.478822174" y="832.0"/>
      <point x="320.0" y="875.521177826"/>
      <point x="320.0" y="932.0" type="curve" smooth="yes"/>
      <point x="320.0" y="988.0" type="line" smooth="yes"/>
      <point x="320.0" y="1044.47882217"/>
      <point x="276.478822174" y="1088.0"/>
      <point x="220.0" y="1088.0" type="curve" smooth="yes"/>
      <point x="164.0" y="1088.0" type="line" smooth="yes"/>
      <point x="107.521177826" y="1088.0"/>
      <point x="64.0" y="1044.47882217"/>
      <point x="64.0" y="988.0" type="curve"/>
      <point x="64.0" y="932.0" type="line" smooth="yes"/>
      <point x="64.0" y="875.521177826"/>
      <point x="107.521177826" y="832.0"/>
      <point x="164.0" y="832.0" type="curve" smooth="yes"/>
    </contour>
    <contour>
      <point x="192" y="256" type="line"/>
      <point x="192.0" y="221.349121094"/>
      <point x="192.0" y="164.166899204"/>
      <point x="133.559329137" y="139.698031006" type="curve" smooth="yes"/>
      <point x="91.0930836459" y="121.91758892"/>
      <point x="80.8472496204" y="94.3055007592"/>
      <point x="101.436208443" y="53.1275831147" type="curve" smooth="yes"/>
      <point x="102.650858121" y="50.6982837575" type="line" smooth="yes"/>
      <point x="117.095413425" y="21.8091731509"/>
      <point x="166.974563193" y="-0.519949274513"/>
      <point x="198.143310547" y="7.94970703125" type="curve" smooth="yes"/>
      <point x="306.895050853" y="37.5014196038"/>
      <point x="318.590642066" y="152.933118648"/>
      <point x="319.848432087" y="411.990369433" type="curve" smooth="yes"/>
      <point x="320.121474962" y="468.226891538"/>
      <point x="276.560380333" y="512.0"/>
      <point x="220.323195385" y="512.0" type="curve" smooth="yes"/>
      <point x="164.0" y="512.0" type="line" smooth="yes"/>
      <point x="107.521177826" y="512.0"/>
      <point x="64.0" y="468.478822174"/>
      <point x="64.0" y="412.0" type="curve"/>
      <point x="64.0" y="356.0" type="line" smooth="yes"/>
      <point x="64.0" y="299.521177826"/>
      <point x="107.521177826" y="256.0"/>
      <point x="164.0" y="256.0" type="curve" smooth="yes"/>
    </contour>
  </outline>
</glyph>
<glyph name="less" format="1">
  <advance width="832"/>
  <unicode hex="003C"/>
  <outline>
    <contour>
      <point x="622.076807948" y="121.346234436" type="line" smooth="yes"/>
      <point x="658.166074938" y="96.0837475432"/>
      <point x="704.0" y="119.947435535"/>
      <point x="704.0" y="164.0" type="curve" smooth="yes"/>
      <point x="704.0" y="220.0" type="line" smooth="yes"/>
      <point x="704.0" y="282.014782301"/>
      <point x="673.122789045" y="342.124073028"/>
      <point x="622.712560241" y="378.243902148" type="curve" smooth="yes"/>
      <point x="256" y="641" type="line"/>
      <point x="622.54074189" y="901.996644337" type="line" smooth="yes"/>
      <point x="673.050872883" y="937.962563504"/>
      <point x="704.0" y="997.993382011"/>
      <point x="704.0" y="1060.0" type="curve" smooth="yes"/>
      <point x="704.0" y="1116.0" type="line" smooth="yes"/>
      <point x="704.0" y="1160.05256446"/>
      <point x="658.166074938" y="1183.91625246"/>
      <point x="622.076807948" y="1158.65376556" type="curve" smooth="yes"/>
      <point x="145.923192052" y="825.346234436" type="line" smooth="yes"/>
      <point x="95.1444130263" y="789.801089118"/>
      <point x="64.0" y="729.983399028"/>
      <point x="64.0" y="668.0" type="curve"/>
      <point x="64.0" y="612.0" type="line"/>
      <point x="64.0" y="550.016600972"/>
      <point x="95.1444130263" y="490.198910882"/>
      <point x="145.923192052" y="454.653765564" type="curve" smooth="yes"/>
    </contour>
  </outline>
</glyph>
<glyph name="equal" format="1">
  <advance width="704"/>
  <unicode hex="003D"/>
  <outline>
    <contour>
      <point x="640.0" y="673.0" type="line" smooth="yes"/>
      <point x="640.0" y="726.654881065"/>
      <point x="598.654881065" y="768.0"/>
      <point x="545.0" y="768.0" type="curve" smooth="yes"/>
      <point x="159.0" y="768.0" type="line" smooth="yes"/>
      <point x="105.345118935" y="768.0"/>
      <point x="64.0" y="726.654881065"/>
      <point x="64.0" y="673.0" type="curve"/>
      <point x="64.0" y="671.0" type="line" smooth="yes"/>
      <point x="64.0" y="617.345118935"/>
      <point x="105.345118935" y="576.0"/>
      <point x="159.0" y="576.0" type="curve" smooth="yes"/>
      <point x="545.0" y="576.0" type="line" smooth="yes"/>
      <point x="598.654881065" y="576.0"/>
      <point x="640.0" y="617.345118935"/>
      <point x="640.0" y="671.0" type="curve" smooth="yes"/>
    </contour>
    <contour>
      <point x="640.0" y="352.0" type="line" smooth="yes"/>
      <point x="640.0" y="405.654881065"/>
      <point x="598.654881065" y="447.0"/>
      <point x="545.0" y="447.0" type="curve" smooth="yes"/>
      <point x="159.0" y="447.0" type="line" smooth="yes"/>
      <point x="105.345118935" y="447.0"/>
      <point x="64.0" y="405.654881065"/>
      <point x="64.0" y="352.0" type="curve"/>
      <point x="64.0" y="350.0" type="line" smooth="yes"/>
      <point x="64.0" y="296.345118935"/>
      <point x="105.345118935" y="255.0"/>
      <point x="159.0" y="255.0" type="curve" smooth="yes"/>
      <point x="545.0" y="255.0" type="line" smooth="yes"/>
      <point x="598.654881065" y="255.0"/>
      <point x="640.0" y="296.345118935"/>
      <point x="640.0" y="350.0" type="curve" smooth="yes"/>
    </contour>
  </outline>
</glyph>
<glyph name="greater" format="1">
  <advance width="832"/>
  <unicode hex="003E"/>
  <outline>
    <contour>
      <point x="209.923192052" y="1158.65376556" type="line" smooth="yes"/>
      <point x="173.833925062" y="1183.91625246"/>
      <point x="128.0" y="1160.05256446"/>
      <point x="128.0" y="1116.0" type="curve" smooth="yes"/>
      <point x="128.0" y="1060.0" type="line"/>
      <point x="128.0" y="997.993382011"/>
      <point x="158.949127117" y="937.962563504"/>
      <point x="209.45925811" y="901.996644337" type="curve" smooth="yes"/>
      <point x="576" y="641" type="line"/>
      <point x="209.287439759" y="378.243902148" type="line" smooth="yes"/>
      <point x="158.877210955" y="342.124073028"/>
      <point x="128.0" y="282.014782301"/>
      <point x="128.0" y="220.0" type="curve"/>
      <point x="128.0" y="164.0" type="line"/>
      <point x="128.0" y="119.947435535"/>
      <point x="173.833925062" y="96.0837475432"/>
      <point x="209.923192052" y="121.346234436" type="curve" smooth="yes"/>
      <point x="686.076807948" y="454.653765564" type="line" smooth="yes"/>
      <point x="736.855586974" y="490.198910882"/>
      <point x="768.0" y="550.016600972"/>
      <point x="768.0" y="612.0" type="curve" smooth="yes"/>
      <point x="768.0" y="668.0" type="line" smooth="yes"/>
      <point x="768.0" y="729.983399028"/>
      <point x="736.855586974" y="789.801089118"/>
      <point x="686.076807948" y="825.346234436" type="curve" smooth="yes"/>
    </contour>
  </outline>
</glyph>
<glyph name="question" format="1">
  <advance width="1152"/>
  <unicode hex="003F"/>
  <outline>
    <contour>
      <point x="640" y="640" type="line"/>
      <point x="899" y="764"/>
      <point x="1025" y="959"/>
      <point x="1025" y="1216" type="curve" smooth="yes"/>
      <point x="1025" y="1472"/>
      <point x="897" y="1664"/>
      <point x="576" y="1664" type="curve" smooth="yes"/>
      <point x="320" y="1664"/>
      <point x="128" y="1536"/>
      <point x="128" y="1216" type="curve" smooth="yes"/>
      <point x="128.0" y="1183.0" type="line" smooth="yes"/>
      <point x="128.0" y="1165.57389565"/>
      <point x="141.573895647" y="1152.0"/>
      <point x="159.0" y="1152.0" type="curve" smooth="yes"/>
      <point x="272.691956786" y="1152.0" type="line" smooth="yes"/>
      <point x="339.318600043" y="1152.0"/>
      <point x="379.965153862" y="1186.09097113"/>
      <point x="391.564189911" y="1251.70020794" type="curve" smooth="yes"/>
      <point x="411.927646637" y="1366.88485336"/>
      <point x="473.40625" y="1408.0"/>
      <point x="576" y="1408" type="curve" smooth="yes"/>
      <point x="704" y="1408"/>
      <point x="768" y="1344"/>
      <point x="768" y="1216" type="curve" smooth="yes"/>
      <point x="768.0" y="1100.0859375"/>
      <point x="715.515352011" y="931.687227011"/>
      <point x="467.959131798" y="758.332843277" type="curve" smooth="yes"/>
      <point x="412.588110352" y="719.558583065"/>
      <point x="384.0" y="664.63885315"/>
      <point x="384.0" y="597.041565698" type="curve" smooth="yes"/>
      <point x="384.0" y="484.0" type="line" smooth="yes"/>
      <point x="384.0" y="427.521177826"/>
      <point x="427.521177826" y="384.0"/>
      <point x="484.0" y="384.0" type="curve" smooth="yes"/>
      <point x="540.0" y="384.0" type="line" smooth="yes"/>
      <point x="596.478822174" y="384.0"/>
      <point x="640.0" y="427.521177826"/>
      <point x="640.0" y="484.0" type="curve" smooth="yes"/>
    </contour>
    <contour>
      <point x="540.0" y="0.0" type="line" smooth="yes"/>
      <point x="596.478822174" y="0.0"/>
      <point x="640.0" y="43.521177826"/>
      <point x="640.0" y="100.0" type="curve" smooth="yes"/>
      <point x="640.0" y="156.0" type="line" smooth="yes"/>
      <point x="640.0" y="212.478822174"/>
      <point x="596.478822174" y="256.0"/>
      <point x="540.0" y="256.0" type="curve" smooth="yes"/>
      <point x="484.0" y="256.0" type="line" smooth="yes"/>
      <point x="427.521177826" y="256.0"/>
      <point x="384.0" y="212.478822174"/>
      <point x="384.0" y="156.0" type="curve" smooth="yes"/>
      <point x="384.0" y="100.0" type="line" smooth="yes"/>
      <point x="384.0" y="43.521177826"/>
      <point x="427.521177826" y="0.0"/>
      <point x="484.0" y="0.0" type="curve" smooth="yes"/>
    </contour>
  </outline>
</glyph>
<glyph name="at" format="1">
  <advance width="1782"/>
  <unicode hex="0040"/>
  <outline>
    <contour>
      <point x="884" y="502" type="curve" smooth="yes"/>
      <point x="820" y="502"/>
      <point x="768" y="553"/>
      <point x="768" y="693" type="curve" smooth="yes"/>
      <point x="768" y="851"/>
      <point x="775" y="996"/>
      <point x="904" y="996" type="curve" smooth="yes"/>
      <point x="946" y="996"/>
      <point x="955" y="966"/>
      <point x="958" y="945" type="curve"/>
      <point x="958" y="542" type="line"/>
      <point x="955" y="524"/>
      <point x="942" y="502"/>
    </contour>
    <contour>
      <point x="1286" y="292" type="curve" smooth="yes"/>
      <point x="1350" y="292"/>
      <point x="1654" y="320"/>
      <point x="1654" y="768" type="curve" smooth="yes"/>
      <point x="1654" y="1280"/>
      <point x="1376" y="1572"/>
      <point x="896" y="1572" type="curve" smooth="yes"/>
      <point x="445" y="1572"/>
      <point x="128" y="1280"/>
      <point x="128" y="768" type="curve" smooth="yes"/>
      <point x="128" y="128"/>
      <point x="406" y="-128"/>
      <point x="958" y="-128" type="curve" smooth="yes"/>
      <point x="1052.125" y="-128.0"/>
      <point x="1155.44261265" y="-114.481451988"/>
      <point x="1250.05924422" y="-96.9876059517" type="curve" smooth="yes"/>
      <point x="1300.21144743" y="-87.7148712663"/>
      <point x="1327.44822897" y="-34.1473710404"/>
      <point x="1305.39323768" y="11.839632068" type="curve" smooth="yes"/>
      <point x="1299.17518585" y="24.8049316251" type="line" smooth="yes"/>
      <point x="1272.12865929" y="81.1998167977"/>
      <point x="1218.53336902" y="106.541748438"/>
      <point x="1157.78446189" y="91.6599489829" type="curve" smooth="yes"/>
      <point x="1092.58779126" y="75.6885706782"/>
      <point x="1022.47998047" y="64.0"/>
      <point x="958" y="64" type="curve" smooth="yes"/>
      <point x="702" y="64"/>
      <point x="384" y="128"/>
      <point x="384" y="768" type="curve" smooth="yes"/>
      <point x="384" y="1280"/>
      <point x="702" y="1380"/>
      <point x="896" y="1380" type="curve" smooth="yes"/>
      <point x="1215" y="1380"/>
      <point x="1398" y="1221"/>
      <point x="1398" y="768" type="curve" smooth="yes"/>
      <point x="1398" y="576"/>
      <point x="1343" y="502"/>
      <point x="1282" y="502" type="curve" smooth="yes"/>
      <point x="1213" y="502"/>
      <point x="1214" y="569"/>
      <point x="1214" y="620" type="curve" smooth="yes"/>
      <point x="1214.0" y="1088.0" type="line" smooth="yes"/>
      <point x="1214.0" y="1144.47882217"/>
      <point x="1170.47882217" y="1188.0"/>
      <point x="1114.0" y="1188.0" type="curve" smooth="yes"/>
      <point x="1058.0" y="1188.0" type="line" smooth="yes"/>
      <point x="1001.52117783" y="1188.0"/>
      <point x="958.0" y="1144.47882217"/>
      <point x="958.0" y="1088.0" type="curve" smooth="yes"/>
      <point x="958" y="1061" type="line"/>
      <point x="956" y="1114"/>
      <point x="929" y="1197"/>
      <point x="816" y="1197" type="curve" smooth="yes"/>
      <point x="656" y="1197"/>
      <point x="512" y="1038"/>
      <point x="512" y="693" type="curve" smooth="yes"/>
      <point x="512" y="541"/>
      <point x="591" y="292"/>
      <point x="840" y="292" type="curve" smooth="yes"/>
      <point x="935" y="292"/>
      <point x="987" y="368"/>
      <point x="1011" y="420" type="curve"/>
      <point x="1043" y="368"/>
      <point x="1125" y="292"/>
    </contour>
  </outline>
</glyph>
<glyph name="A" format="1">
  <advance width="1140"/>
  <unicode hex="0041"/>
  <outline>
    <contour>
      <point x="805.047091127" y="97.7802414077" type="line" smooth="yes"/>
      <point x="817.442965" y="39.9328299992"/>
      <point x="866.83936532" y="0.0"/>
      <point x="926.0" y="0.0" type="curve" smooth="yes"/>
      <point x="982.0" y="0.0" type="line" smooth="yes"/>
      <point x="1034.96520312" y="0.0"/>
      <point x="1072.14484187" y="45.9907379359"/>
      <point x="1061.04709113" y="97.7802414077" type="curve" smooth="yes"/>
      <point x="718.952908873" y="1694.21975859" type="line" smooth="yes"/>
      <point x="706.557035" y="1752.06717"/>
      <point x="657.16063468" y="1792.0"/>
      <point x="598.0" y="1792.0" type="curve" smooth="yes"/>
      <point x="542.0" y="1792.0" type="line" smooth="yes"/>
      <point x="482.83936532" y="1792.0"/>
      <point x="433.442965" y="1752.06717"/>
      <point x="421.047091127" y="1694.21975859" type="curve" smooth="yes"/>
      <point x="78.9529088731" y="97.7802414077" type="line" smooth="yes"/>
      <point x="67.8551581291" y="45.9907379359"/>
      <point x="105.034796881" y="0.0"/>
      <point x="158.0" y="0.0" type="curve" smooth="yes"/>
      <point x="214.0" y="0.0" type="line" smooth="yes"/>
      <point x="273.16063468" y="0.0"/>
      <point x="322.557035" y="39.9328299992"/>
      <point x="334.952908873" y="97.7802414077" type="curve" smooth="yes"/>
      <point x="410" y="448" type="line"/>
      <point x="730" y="448" type="line"/>
    </contour>
    <contour>
      <point x="570" y="1408" type="line"/>
      <point x="698" y="640" type="line"/>
      <point x="442" y="640" type="line"/>
    </contour>
  </outline>
</glyph>
<glyph name="B" format="1">
  <advance width="1184"/>
  <unicode hex="0042"/>
  <outline>
    <contour>
      <point x="128.0" y="100.0" type="line"/>
      <point x="128.0" y="43.521177826"/>
      <point x="171.521177826" y="0.0"/>
      <point x="228.0" y="0.0" type="curve" smooth="yes"/>
      <point x="576" y="0" type="line" smooth="yes"/>
      <point x="896" y="0"/>
      <point x="1088" y="212"/>
      <point x="1088" y="512" type="curve" smooth="yes"/>
      <point x="1088" y="791"/>
      <point x="960" y="896"/>
      <point x="768" y="960" type="curve"/>
      <point x="1000" y="1024"/>
      <point x="1058" y="1152"/>
      <point x="1058" y="1344" type="curve" smooth="yes"/>
      <point x="1058" y="1536"/>
      <point x="960" y="1792"/>
      <point x="512" y="1792" type="curve" smooth="yes"/>
      <point x="228.0" y="1792.0" type="line" smooth="yes"/>
      <point x="171.521177826" y="1792.0"/>
      <point x="128.0" y="1748.47882217"/>
      <point x="128.0" y="1692.0" type="curve" smooth="yes"/>
    </contour>
    <contour>
      <point x="512" y="832" type="line" smooth="yes"/>
      <point x="704" y="832"/>
      <point x="832" y="768"/>
      <point x="832" y="512" type="curve" smooth="yes"/>
      <point x="832" y="256"/>
      <point x="704" y="192"/>
      <point x="512" y="192" type="curve" smooth="yes"/>
      <point x="384" y="192" type="line"/>
      <point x="384" y="832" type="line"/>
    </contour>
    <contour>
      <point x="832" y="1344" type="curve" smooth="yes"/>
      <point x="832" y="1057"/>
      <point x="640" y="1024"/>
      <point x="512" y="1024" type="curve" smooth="yes"/>
      <point x="384" y="1024" type="line"/>
      <point x="384" y="1600" type="line"/>
      <point x="640" y="1600"/>
      <point x="832" y="1600"/>
    </contour>
  </outline>
</glyph>
<glyph name="C" format="1">
  <advance width="1216"/>
  <unicode hex="0043"/>
  <outline>
    <contour>
      <point x="864" y="576" type="line" smooth="yes"/>
      <point x="864" y="384"/>
      <point x="800" y="192"/>
      <point x="608" y="192" type="curve" smooth="yes"/>
      <point x="416" y="192"/>
      <point x="352" y="384"/>
      <point x="352" y="576" type="curve" smooth="yes"/>
      <point x="352" y="1216" type="line" smooth="yes"/>
      <point x="352" y="1472"/>
      <point x="416" y="1600"/>
      <point x="608" y="1600" type="curve" smooth="yes"/>
      <point x="773.140625" y="1600.0"/>
      <point x="843.588798523" y="1505.30754852"/>
      <point x="860.067360724" y="1315.92264557" type="curve" smooth="yes"/>
      <point x="865.371221832" y="1254.96640382"/>
      <point x="907.875357234" y="1216.0"/>
      <point x="969.061910907" y="1216.0" type="curve" smooth="yes"/>
      <point x="1024.3541831" y="1216.0" type="line" smooth="yes"/>
      <point x="1076.43724069" y="1216.0"/>
      <point x="1120.35646237" y="1264.04101654"/>
      <point x="1115.69694274" y="1315.91522752" type="curve" smooth="yes"/>
      <point x="1089.01317134" y="1612.9843884"/>
      <point x="936.430908203" y="1810.0"/>
      <point x="608" y="1810" type="curve" smooth="yes"/>
      <point x="224" y="1810"/>
      <point x="96" y="1536"/>
      <point x="96" y="1152" type="curve" smooth="yes"/>
      <point x="96" y="641" type="line" smooth="yes"/>
      <point x="96" y="257"/>
      <point x="224" y="-18"/>
      <point x="608" y="-18" type="curve" smooth="yes"/>
      <point x="992" y="-18"/>
      <point x="1120" y="256"/>
      <point x="1120" y="576" type="curve" smooth="yes"/>
      <point x="1120.0" y="609.0" type="line" smooth="yes"/>
      <point x="1120.0" y="626.426104353"/>
      <point x="1106.42610435" y="640.0"/>
      <point x="1089.0" y="640.0" type="curve" smooth="yes"/>
      <point x="895.0" y="640.0" type="line" smooth="yes"/>
      <point x="877.573895647" y="640.0"/>
      <point x="864.0" y="626.426104353"/>
      <point x="864.0" y="609.0" type="curve" smooth="yes"/>
    </contour>
  </outline>
</glyph>
<glyph name="D" format="1">
  <advance width="1120"/>
  <unicode hex="0044"/>
  <outline>
    <contour>
      <point x="1024" y="576" type="curve" smooth="yes"/>
      <point x="1024" y="1280" type="line" smooth="yes"/>
      <point x="1024" y="1664"/>
      <point x="896" y="1792"/>
      <point x="512" y="1792" type="curve" smooth="yes"/>
      <point x="228.0" y="1792.0" type="line" smooth="yes"/>
      <point x="171.521177826" y="1792.0"/>
      <point x="128.0" y="1748.47882217"/>
      <point x="128.0" y="1692.0" type="curve" smooth="yes"/>
      <point x="128.0" y="100.0" type="line"/>
      <point x="128.0" y="43.521177826"/>
      <point x="171.521177826" y="0.0"/>
      <point x="228.0" y="0.0" type="curve" smooth="yes"/>
      <point x="510" y="0" type="line" smooth="yes"/>
      <point x="897" y="0"/>
      <point x="1024" y="192"/>
    </contour>
    <contour>
      <point x="384" y="1600" type="line"/>
      <point x="507" y="1600" type="line" smooth="yes"/>
      <point x="768" y="1600"/>
      <point x="768" y="1472"/>
      <point x="768" y="1216" type="curve" smooth="yes"/>
      <point x="768" y="640" type="line" smooth="yes"/>
      <point x="768" y="320"/>
      <point x="768" y="192"/>
      <point x="512" y="192" type="curve" smooth="yes"/>
      <point x="384" y="192" type="line"/>
    </contour>
  </outline>
</glyph>
<glyph name="E" format="1">
  <advance width="896"/>
  <unicode hex="0045"/>
  <outline>
    <contour>
      <point x="384" y="1024" type="line"/>
      <point x="384" y="1600" type="line"/>
      <point x="737.0" y="1600.0" type="line" smooth="yes"/>
      <point x="790.654881065" y="1600.0"/>
      <point x="832.0" y="1641.34511893"/>
      <point x="832.0" y="1695.0" type="curve" smooth="yes"/>
      <point x="832.0" y="1697.0" type="line" smooth="yes"/>
      <point x="832.0" y="1750.65488107"/>
      <point x="790.654881065" y="1792.0"/>
      <point x="737.0" y="1792.0" type="curve" smooth="yes"/>
      <point x="228.0" y="1792.0" type="line" smooth="yes"/>
      <point x="171.521177826" y="1792.0"/>
      <point x="128.0" y="1748.47882217"/>
      <point x="128.0" y="1692.0" type="curve" smooth="yes"/>
      <point x="128.0" y="100.0" type="line"/>
      <point x="128.0" y="43.521177826"/>
      <point x="171.521177826" y="0.0"/>
      <point x="228.0" y="0.0" type="curve" smooth="yes"/>
      <point x="737.0" y="0.0" type="line" smooth="yes"/>
      <point x="790.654881065" y="0.0"/>
      <point x="832.0" y="41.3451189347"/>
      <point x="832.0" y="95.0" type="curve" smooth="yes"/>
      <point x="832.0" y="97.0" type="line" smooth="yes"/>
      <point x="832.0" y="150.654881065"/>
      <point x="790.654881065" y="192.0"/>
      <point x="737.0" y="192.0" type="curve" smooth="yes"/>
      <point x="384" y="192" type="line"/>
      <point x="384" y="832" type="line"/>
      <point x="609.0" y="832.0" type="line" smooth="yes"/>
      <point x="662.654881065" y="832.0"/>
      <point x="704.0" y="873.345118935"/>
      <point x="704.0" y="927.0" type="curve" smooth="yes"/>
      <point x="704.0" y="929.0" type="line" smooth="yes"/>
      <point x="704.0" y="982.654881065"/>
      <point x="662.654881065" y="1024.0"/>
      <point x="609.0" y="1024.0" type="curve" smooth="yes"/>
    </contour>
  </outline>
</glyph>
<glyph name="G" format="1">
  <advance width="1216"/>
  <unicode hex="0047"/>
  <outline>
    <contour>
      <point x="608" y="1810" type="curve" smooth="yes"/>
      <point x="224" y="1810"/>
      <point x="96" y="1536"/>
      <point x="96" y="1152" type="curve" smooth="yes"/>
      <point x="96" y="698" type="line" smooth="yes"/>
      <point x="96" y="128"/>
      <point x="288" y="-18"/>
      <point x="608" y="-18" type="curve" smooth="yes"/>
      <point x="761" y="-18"/>
      <point x="833" y="105"/>
      <point x="864" y="192" type="curve"/>
      <point x="897.958362228" y="90.1249133148" type="line" smooth="yes"/>
      <point x="916.058334612" y="35.8249961631"/>
      <point x="965.762861681" y="0.0"/>
      <point x="1023.0" y="0.0" type="curve" smooth="yes"/>
      <point x="1025.0" y="0.0" type="line" smooth="yes"/>
      <point x="1078.65488107" y="0.0"/>
      <point x="1120.0" y="41.3451189347"/>
      <point x="1120.0" y="95.0" type="curve" smooth="yes"/>
      <point x="1120.0" y="796.0" type="line" smooth="yes"/>
      <point x="1120.0" y="852.478822174"/>
      <point x="1076.47882217" y="896.0"/>
      <point x="1020.0" y="896.0" type="curve" smooth="yes"/>
      <point x="703.0" y="896.0" type="line" smooth="yes"/>
      <point x="649.345118935" y="896.0"/>
      <point x="608.0" y="854.654881065"/>
      <point x="608.0" y="801.0" type="curve" smooth="yes"/>
      <point x="608.0" y="799.0" type="line" smooth="yes"/>
      <point x="608.0" y="745.345118935"/>
      <point x="649.345118935" y="704.0"/>
      <point x="703.0" y="704.0" type="curve" smooth="yes"/>
      <point x="864" y="704" type="line"/>
      <point x="864" y="640" type="line" smooth="yes"/>
      <point x="864" y="256"/>
      <point x="736" y="192"/>
      <point x="608" y="192" type="curve" smooth="yes"/>
      <point x="480" y="192"/>
      <point x="352" y="256"/>
      <point x="352" y="640" type="curve" smooth="yes"/>
      <point x="352" y="1216" type="line" smooth="yes"/>
      <point x="352" y="1472"/>
      <point x="416" y="1600"/>
      <point x="608" y="1600" type="curve" smooth="yes"/>
      <point x="773.140625" y="1600.0"/>
      <point x="843.588798523" y="1505.30754852"/>
      <point x="860.067360724" y="1315.92264557" type="curve" smooth="yes"/>
      <point x="865.371221832" y="1254.96640382"/>
      <point x="907.875357234" y="1216.0"/>
      <point x="969.061910907" y="1216.0" type="curve" smooth="yes"/>
      <point x="1024.40648601" y="1216.0" type="line" smooth="yes"/>
      <point x="1076.44479422" y="1216.0"/>
      <point x="1120.35788465" y="1264.07788557"/>
      <point x="1115.65556328" y="1315.9033011" type="curve" smooth="yes"/>
      <point x="1086.85729885" y="1633.29590464"/>
      <point x="915.137695312" y="1810.0"/>
    </contour>
  </outline>
</glyph>
<glyph name="H" format="1">
  <advance width="1216"/>
  <unicode hex="0048"/>
  <outline>
    <contour>
      <point x="988.0" y="0.0" type="line" smooth="yes"/>
      <point x="1044.47882217" y="0.0"/>
      <point x="1088.0" y="43.521177826"/>
      <point x="1088.0" y="100.0" type="curve" smooth="yes"/>
      <point x="1088.0" y="1692.0" type="line" smooth="yes"/>
      <point x="1088.0" y="1748.47882217"/>
      <point x="1044.47882217" y="1792.0"/>
      <point x="988.0" y="1792.0" type="curve" smooth="yes"/>
      <point x="932.0" y="1792.0" type="line" smooth="yes"/>
      <point x="875.521177826" y="1792.0"/>
      <point x="832.0" y="1748.47882217"/>
      <point x="832.0" y="1692.0" type="curve" smooth="yes"/>
      <point x="832" y="1024" type="line"/>
      <point x="384" y="1024" type="line"/>
      <point x="384.0" y="1692.0" type="line" smooth="yes"/>
      <point x="384.0" y="1748.47882217"/>
      <point x="340.478822174" y="1792.0"/>
      <point x="284.0" y="1792.0" type="curve" smooth="yes"/>
      <point x="228.0" y="1792.0" type="line" smooth="yes"/>
      <point x="171.521177826" y="1792.0"/>
      <point x="128.0" y="1748.47882217"/>
      <point x="128.0" y="1692.0" type="curve" smooth="yes"/>
      <point x="128.0" y="100.0" type="line"/>
      <point x="128.0" y="43.521177826"/>
      <point x="171.521177826" y="0.0"/>
      <point x="228.0" y="0.0" type="curve" smooth="yes"/>
      <point x="284.0" y="0.0" type="line" smooth="yes"/>
      <point x="340.478822174" y="0.0"/>
      <point x="384.0" y="43.521177826"/>
      <point x="384.0" y="100.0" type="curve" smooth="yes"/>
      <point x="384" y="832" type="line"/>
      <point x="832" y="832" type="line"/>
      <point x="832.0" y="100.0" type="line" smooth="yes"/>
      <point x="832.0" y="43.521177826"/>
      <point x="875.521177826" y="0.0"/>
      <point x="932.0" y="0.0" type="curve" smooth="yes"/>
    </contour>
  </outline>
</glyph>
<glyph name="I" format="1">
  <advance width="542"/>
  <unicode hex="0049"/>
  <outline>
    <contour>
      <point x="296.0" y="0.0" type="line" smooth="yes"/>
      <point x="352.478822174" y="0.0"/>
      <point x="396.0" y="43.521177826"/>
      <point x="396.0" y="100.0" type="curve" smooth="yes"/>
      <point x="396.0" y="1692.0" type="line" smooth="yes"/>
      <point x="396.0" y="1748.47882217"/>
      <point x="352.478822174" y="1792.0"/>
      <point x="296.0" y="1792.0" type="curve" smooth="yes"/>
      <point x="240.0" y="1792.0" type="line" smooth="yes"/>
      <point x="183.521177826" y="1792.0"/>
      <point x="140.0" y="1748.47882217"/>
      <point x="140.0" y="1692.0" type="curve"/>
      <point x="140.0" y="100.0" type="line"/>
      <point x="140.0" y="43.521177826"/>
      <point x="183.521177826" y="0.0"/>
      <point x="240.0" y="0.0" type="curve" smooth="yes"/>
    </contour>
  </outline>
</glyph>
<glyph name="J" format="1">
  <advance width="640"/>
  <unicode hex="004A"/>
  <outline>
    <contour>
      <point x="256" y="448" type="line" smooth="yes"/>
      <point x="256.0" y="240.0625"/>
      <point x="213.77538681" y="201.023452759"/>
      <point x="95.0289709577" y="193.694100384" type="curve" smooth="yes"/>
      <point x="38.2378949818" y="190.188800416"/>
      <point x="-7.03755464009e-15" y="149.517990242"/>
      <point x="-1.74512168878e-14" y="92.8286533384" type="curve"/>
      <point x="1.15729122519e-14" y="63.0" type="line"/>
      <point x="5.03666772081e-15" y="27.4183420304"/>
      <point x="27.4183420304" y="0.0"/>
      <point x="63.0" y="0.0" type="curve" smooth="yes"/>
      <point x="128" y="0" type="line" smooth="yes"/>
      <point x="448" y="0"/>
      <point x="512" y="128"/>
      <point x="512" y="448" type="curve" smooth="yes"/>
      <point x="512.0" y="1692.0" type="line" smooth="yes"/>
      <point x="512.0" y="1748.47882217"/>
      <point x="468.478822174" y="1792.0"/>
      <point x="412.0" y="1792.0" type="curve" smooth="yes"/>
      <point x="356.0" y="1792.0" type="line" smooth="yes"/>
      <point x="299.521177826" y="1792.0"/>
      <point x="256.0" y="1748.47882217"/>
      <point x="256.0" y="1692.0" type="curve"/>
    </contour>
  </outline>
</glyph>
<glyph name="K" format="1">
  <advance width="1216"/>
  <unicode hex="004B"/>
  <outline>
    <contour>
      <point x="1040.01876581" y="1704.26288604" type="line" smooth="yes"/>
      <point x="1062.54151977" y="1745.44735044"/>
      <point x="1034.94075579" y="1792.0"/>
      <point x="988.0" y="1792.0" type="curve" smooth="yes"/>
      <point x="868.0" y="1792.0" type="line" smooth="yes"/>
      <point x="806.688557634" y="1792.0"/>
      <point x="750.697951036" y="1757.39590207"/>
      <point x="723.27864045" y="1702.5572809" type="curve" smooth="yes"/>
      <point x="384" y="1024" type="line"/>
      <point x="384.0" y="1692.0" type="line" smooth="yes"/>
      <point x="384.0" y="1748.47882217"/>
      <point x="340.478822174" y="1792.0"/>
      <point x="284.0" y="1792.0" type="curve" smooth="yes"/>
      <point x="228.0" y="1792.0" type="line" smooth="yes"/>
      <point x="171.521177826" y="1792.0"/>
      <point x="128.0" y="1748.47882217"/>
      <point x="128.0" y="1692.0" type="curve" smooth="yes"/>
      <point x="128.0" y="100.0" type="line"/>
      <point x="128.0" y="43.521177826"/>
      <point x="171.521177826" y="0.0"/>
      <point x="228.0" y="0.0" type="curve" smooth="yes"/>
      <point x="284.0" y="0.0" type="line" smooth="yes"/>
      <point x="340.478822174" y="0.0"/>
      <point x="384.0" y="43.521177826"/>
      <point x="384.0" y="100.0" type="curve" smooth="yes"/>
      <point x="384" y="576" type="line"/>
      <point x="512" y="832" type="line"/>
      <point x="796.102092069" y="93.3345606203" type="line" smooth="yes"/>
      <point x="817.867514566" y="36.744462129"/>
      <point x="871.36854889" y="0.0"/>
      <point x="932.0" y="0.0" type="curve" smooth="yes"/>
      <point x="1052.0" y="0.0" type="line" smooth="yes"/>
      <point x="1101.50633892" y="0.0"/>
      <point x="1132.73787349" y="46.6752642333"/>
      <point x="1113.85238682" y="92.43786891" type="curve" smooth="yes"/>
      <point x="703" y="1088" type="line"/>
    </contour>
  </outline>
</glyph>
<glyph name="L" format="1">
  <advance width="896"/>
  <unicode hex="004C"/>
  <outline>
    <contour>
      <point x="832.0" y="97.0" type="line" smooth="yes"/>
      <point x="832.0" y="150.654881065"/>
      <point x="790.654881065" y="192.0"/>
      <point x="737.0" y="192.0" type="curve" smooth="yes"/>
      <point x="384" y="192" type="line"/>
      <point x="384.0" y="1692.0" type="line" smooth="yes"/>
      <point x="384.0" y="1748.47882217"/>
      <point x="340.478822174" y="1792.0"/>
      <point x="284.0" y="1792.0" type="curve" smooth="yes"/>
      <point x="228.0" y="1792.0" type="line" smooth="yes"/>
      <point x="171.521177826" y="1792.0"/>
      <point x="128.0" y="1748.47882217"/>
      <point x="128.0" y="1692.0" type="curve" smooth="yes"/>
      <point x="128.0" y="100.0" type="line"/>
      <point x="128.0" y="43.521177826"/>
      <point x="171.521177826" y="0.0"/>
      <point x="228.0" y="0.0" type="curve" smooth="yes"/>
      <point x="737.0" y="0.0" type="line" smooth="yes"/>
      <point x="790.654881065" y="0.0"/>
      <point x="832.0" y="41.3451189347"/>
      <point x="832.0" y="95.0" type="curve" smooth="yes"/>
    </contour>
  </outline>
</glyph>
<glyph name="M" format="1">
  <advance width="1472"/>
  <unicode hex="004D"/>
  <outline>
    <contour>
      <point x="1088" y="1414" type="line"/>
      <point x="1088.0" y="100.0" type="line" smooth="yes"/>
      <point x="1088.0" y="43.521177826"/>
      <point x="1131.52117783" y="0.0"/>
      <point x="1188.0" y="0.0" type="curve" smooth="yes"/>
      <point x="1244.0" y="0.0" type="line" smooth="yes"/>
      <point x="1300.47882217" y="0.0"/>
      <point x="1344.0" y="43.521177826"/>
      <point x="1344.0" y="100.0" type="curve" smooth="yes"/>
      <point x="1344.0" y="1692.0" type="line" smooth="yes"/>
      <point x="1344.0" y="1748.47882217"/>
      <point x="1300.47882217" y="1792.0"/>
      <point x="1244.0" y="1792.0" type="curve" smooth="yes"/>
      <point x="1090.0" y="1792.0" type="line" smooth="yes"/>
      <point x="1031.15024682" y="1792.0"/>
      <point x="982.509094152" y="1751.53731172"/>
      <point x="971.796206762" y="1693.67084913" type="curve" smooth="yes"/>
      <point x="736" y="420" type="line"/>
      <point x="500.203793238" y="1693.67084913" type="line" smooth="yes"/>
      <point x="489.490905848" y="1751.53731172"/>
      <point x="440.849753178" y="1792.0"/>
      <point x="382.0" y="1792.0" type="curve" smooth="yes"/>
      <point x="228.0" y="1792.0" type="line" smooth="yes"/>
      <point x="171.521177826" y="1792.0"/>
      <point x="128.0" y="1748.47882217"/>
      <point x="128.0" y="1692.0" type="curve" smooth="yes"/>
      <point x="128.0" y="100.0" type="line"/>
      <point x="128.0" y="43.521177826"/>
      <point x="171.521177826" y="0.0"/>
      <point x="228.0" y="0.0" type="curve" smooth="yes"/>
      <point x="284.0" y="0.0" type="line" smooth="yes"/>
      <point x="340.478822174" y="0.0"/>
      <point x="384.0" y="43.521177826"/>
      <point x="384.0" y="100.0" type="curve" smooth="yes"/>
      <point x="384" y="1414" type="line"/>
      <point x="623.075700845" y="93.4803086116" type="line" smooth="yes"/>
      <point x="633.028001964" y="38.5093954011"/>
      <point x="679.135435232" y="0.0"/>
      <point x="735.0" y="0.0" type="curve" smooth="yes"/>
      <point x="737.0" y="0.0" type="line" smooth="yes"/>
      <point x="792.864564768" y="0.0"/>
      <point x="838.971998036" y="38.5093954011"/>
      <point x="848.924299155" y="93.4803086116" type="curve" smooth="yes"/>
    </contour>
  </outline>
</glyph>
<glyph name="N" format="1">
  <advance width="1152"/>
  <unicode hex="004E"/>
  <outline>
    <contour>
      <point x="1024.0" y="1692.0" type="line" smooth="yes"/>
      <point x="1024.0" y="1748.47882217"/>
      <point x="980.478822174" y="1792.0"/>
      <point x="924.0" y="1792.0" type="curve" smooth="yes"/>
      <point x="868.0" y="1792.0" type="line" smooth="yes"/>
      <point x="811.521177826" y="1792.0"/>
      <point x="768.0" y="1748.47882217"/>
      <point x="768.0" y="1692.0" type="curve" smooth="yes"/>
      <point x="768" y="684" type="line"/>
      <point x="355.610786308" y="1703.92689458" type="line" smooth="yes"/>
      <point x="333.971956095" y="1757.44435859"/>
      <point x="282.726579032" y="1792.0"/>
      <point x="225.0" y="1792.0" type="curve" smooth="yes"/>
      <point x="223.0" y="1792.0" type="line" smooth="yes"/>
      <point x="169.345118935" y="1792.0"/>
      <point x="128.0" y="1750.65488107"/>
      <point x="128.0" y="1697.0" type="curve" smooth="yes"/>
      <point x="128.0" y="100.0" type="line"/>
      <point x="128.0" y="43.521177826"/>
      <point x="171.521177826" y="0.0"/>
      <point x="228.0" y="0.0" type="curve" smooth="yes"/>
      <point x="284.0" y="0.0" type="line" smooth="yes"/>
      <point x="340.478822174" y="0.0"/>
      <point x="384.0" y="43.521177826"/>
      <point x="384.0" y="100.0" type="curve" smooth="yes"/>
      <point x="384" y="1192" type="line"/>
      <point x="809.720221966" y="84.0119987267" type="line" smooth="yes"/>
      <point x="829.291050587" y="33.0765670311"/>
      <point x="877.434117482" y="0.0"/>
      <point x="932.0" y="0.0" type="curve" smooth="yes"/>
      <point x="934.0" y="0.0" type="line" smooth="yes"/>
      <point x="984.830939957" y="0.0"/>
      <point x="1024.0" y="39.1690600434"/>
      <point x="1024.0" y="90.0" type="curve" smooth="yes"/>
    </contour>
  </outline>
</glyph>
<glyph name="O" format="1">
  <advance width="1216"/>
  <unicode hex="004F"/>
  <outline>
    <contour>
      <point x="608" y="1810" type="curve" smooth="yes"/>
      <point x="208" y="1810"/>
      <point x="96" y="1536"/>
      <point x="96" y="1216" type="curve" smooth="yes"/>
      <point x="96" y="576" type="line" smooth="yes"/>
      <point x="96" y="256"/>
      <point x="208" y="-18"/>
      <point x="608" y="-18" type="curve" smooth="yes"/>
      <point x="1000" y="-18"/>
      <point x="1120" y="256"/>
      <point x="1120" y="576" type="curve" smooth="yes"/>
      <point x="1120" y="1216" type="line" smooth="yes"/>
      <point x="1120" y="1536"/>
      <point x="1000" y="1810"/>
    </contour>
    <contour>
      <point x="608" y="1600" type="curve" smooth="yes"/>
      <point x="800" y="1600"/>
      <point x="864" y="1472"/>
      <point x="864" y="1280" type="curve" smooth="yes"/>
      <point x="864" y="512" type="line" smooth="yes"/>
      <point x="864" y="320"/>
      <point x="800" y="192"/>
      <point x="608" y="192" type="curve" smooth="yes"/>
      <point x="416" y="192"/>
      <point x="352" y="320"/>
      <point x="352" y="512" type="curve" smooth="yes"/>
      <point x="352" y="1280" type="line" smooth="yes"/>
      <point x="352" y="1472"/>
      <point x="416" y="1600"/>
    </contour>
  </outline>
</glyph>
<glyph name="P" format="1">
  <advance width="1088"/>
  <unicode hex="0050"/>
  <outline>
    <contour>
      <point x="128.0" y="100.0" type="line"/>
      <point x="128.0" y="43.521177826"/>
      <point x="171.521177826" y="0.0"/>
      <point x="228.0" y="0.0" type="curve" smooth="yes"/>
      <point x="284.0" y="0.0" type="line" smooth="yes"/>
      <point x="340.478822174" y="0.0"/>
      <point x="384.0" y="43.521177826"/>
      <point x="384.0" y="100.0" type="curve" smooth="yes"/>
      <point x="384" y="832" type="line"/>
      <point x="576" y="832" type="line" smooth="yes"/>
      <point x="832" y="832"/>
      <point x="1024" y="960"/>
      <point x="1024" y="1280" type="curve" smooth="yes"/>
      <point x="1024" y="1600"/>
      <point x="896" y="1792"/>
      <point x="576" y="1792" type="curve" smooth="yes"/>
      <point x="228.0" y="1792.0" type="line" smooth="yes"/>
      <point x="171.521177826" y="1792.0"/>
      <point x="128.0" y="1748.47882217"/>
      <point x="128.0" y="1692.0" type="curve" smooth="yes"/>
    </contour>
    <contour>
      <point x="384" y="1600" type="line"/>
      <point x="448" y="1600" type="line" smooth="yes"/>
      <point x="768" y="1600"/>
      <point x="768" y="1472"/>
      <point x="768" y="1280" type="curve" smooth="yes"/>
      <point x="768" y="1088"/>
      <point x="704" y="1024"/>
      <point x="448" y="1024" type="curve" smooth="yes"/>
      <point x="384" y="1024" type="line"/>
    </contour>
  </outline>
</glyph>
<glyph name="Q" format="1">
  <advance width="1216"/>
  <unicode hex="0051"/>
  <outline>
    <contour>
      <point x="608" y="1810" type="curve" smooth="yes"/>
      <point x="208" y="1810"/>
      <point x="96" y="1536"/>
      <point x="96" y="1216" type="curve" smooth="yes"/>
      <point x="96" y="576" type="line" smooth="yes"/>
      <point x="96" y="256"/>
      <point x="208" y="-18"/>
      <point x="608" y="-18" type="curve" smooth="yes"/>
      <point x="656" y="-18"/>
      <point x="700" y="-14"/>
      <point x="741" y="-6" type="curve"/>
      <point x="810.191894531" y="-88.44140625"/>
      <point x="879.925608695" y="-150.293666482"/>
      <point x="962.165885097" y="-177.199089567" type="curve" smooth="yes"/>
      <point x="1003.02345281" y="-190.565899527"/>
      <point x="1056.0" y="-152.157943334"/>
      <point x="1056.0" y="-112.897509754" type="curve"/>
      <point x="1056.0" y="-131.992909654" type="line"/>
      <point x="1056.0" y="-41.2586223773"/>
      <point x="1043.44548609" y="-19.920020585"/>
      <point x="964.133102417" y="24.1510207355" type="curve" smooth="yes"/>
      <point x="943.596450806" y="35.5625"/>
      <point x="926.21875" y="49.78125"/>
      <point x="912" y="64" type="curve"/>
      <point x="1067" y="171"/>
      <point x="1120" y="360"/>
      <point x="1120" y="576" type="curve" smooth="yes"/>
      <point x="1120" y="1216" type="line" smooth="yes"/>
      <point x="1120" y="1536"/>
      <point x="1000" y="1810"/>
    </contour>
    <contour>
      <point x="608" y="1600" type="curve" smooth="yes"/>
      <point x="800" y="1600"/>
      <point x="864" y="1472"/>
      <point x="864" y="1280" type="curve" smooth="yes"/>
      <point x="864" y="512" type="line" smooth="yes"/>
      <point x="864" y="320"/>
      <point x="800" y="192"/>
      <point x="608" y="192" type="curve" smooth="yes"/>
      <point x="416" y="192"/>
      <point x="352" y="320"/>
      <point x="352" y="512" type="curve" smooth="yes"/>
      <point x="352" y="1280" type="line" smooth="yes"/>
      <point x="352" y="1472"/>
      <point x="416" y="1600"/>
    </contour>
  </outline>
</glyph>
<glyph name="R" format="1">
  <advance width="1152"/>
  <unicode hex="0052"/>
  <outline>
    <contour>
      <point x="800" y="896" type="line"/>
      <point x="888" y="927"/>
      <point x="1024" y="1028"/>
      <point x="1024" y="1312" type="curve" smooth="yes"/>
      <point x="1024" y="1600"/>
      <point x="896" y="1792"/>
      <point x="448" y="1792" type="curve" smooth="yes"/>
      <point x="228.0" y="1792.0" type="line" smooth="yes"/>
      <point x="171.521177826" y="1792.0"/>
      <point x="128.0" y="1748.47882217"/>
      <point x="128.0" y="1692.0" type="curve" smooth="yes"/>
      <point x="128.0" y="100.0" type="line"/>
      <point x="128.0" y="43.521177826"/>
      <point x="171.521177826" y="0.0"/>
      <point x="228.0" y="0.0" type="curve" smooth="yes"/>
      <point x="284.0" y="0.0" type="line" smooth="yes"/>
      <point x="340.478822174" y="0.0"/>
      <point x="384.0" y="43.521177826"/>
      <point x="384.0" y="100.0" type="curve" smooth="yes"/>
      <point x="384" y="832" type="line"/>
      <point x="576" y="832" type="line"/>
      <point x="804.381744246" y="95.5131348354" type="line" smooth="yes"/>
      <point x="822.170346141" y="38.1483411262"/>
      <point x="873.940413632" y="0.0"/>
      <point x="934.0" y="0.0" type="curve" smooth="yes"/>
      <point x="988.0" y="0.0" type="line" smooth="yes"/>
      <point x="1038.97797647" y="0.0"/>
      <point x="1072.99881076" y="46.6703665328"/>
      <point x="1057.39908196" y="95.2028561285" type="curve" smooth="yes"/>
    </contour>
    <contour>
      <point x="448" y="1600" type="line" smooth="yes"/>
      <point x="640" y="1600"/>
      <point x="768" y="1536"/>
      <point x="768" y="1312" type="curve" smooth="yes"/>
      <point x="768" y="1088"/>
      <point x="640" y="1024"/>
      <point x="448" y="1024" type="curve" smooth="yes"/>
      <point x="384" y="1024" type="line"/>
      <point x="384" y="1600" type="line"/>
    </contour>
  </outline>
</glyph>
<glyph name="S" format="1">
  <advance width="1132"/>
  <unicode hex="0053"/>
  <outline>
    <contour>
      <point x="1056" y="401" type="curve" smooth="yes"/>
      <point x="1056" y="577"/>
      <point x="962" y="766"/>
      <point x="800" y="896" type="curve" smooth="yes"/>
      <point x="480" y="1152" type="line" smooth="yes"/>
      <point x="394" y="1221"/>
      <point x="352" y="1317"/>
      <point x="352" y="1405" type="curve" smooth="yes"/>
      <point x="352" y="1510"/>
      <point x="408" y="1600"/>
      <point x="544" y="1600" type="curve" smooth="yes"/>
      <point x="698.926269531" y="1600.0"/>
      <point x="762.408015013" y="1489.33465242"/>
      <point x="786.898085732" y="1379.13287525" type="curve" smooth="yes"/>
      <point x="800.22867057" y="1319.14717098"/>
      <point x="845.261717182" y="1291.3154293"/>
      <point x="904.876079519" y="1306.21901988" type="curve" smooth="yes"/>
      <point x="966.560287675" y="1321.64007192" type="line" smooth="yes"/>
      <point x="1016.1639202" y="1334.04098005"/>
      <point x="1052.41400388" y="1392.9758117"/>
      <point x="1041.10928474" y="1442.84069119" type="curve" smooth="yes"/>
      <point x="1030.28523421" y="1490.58535147"/>
      <point x="1014.20361328" y="1535.59326172"/>
      <point x="992" y="1577" type="curve" smooth="yes"/>
      <point x="928" y="1693"/>
      <point x="796" y="1810"/>
      <point x="544" y="1810" type="curve" smooth="yes"/>
      <point x="251" y="1810"/>
      <point x="95" y="1608"/>
      <point x="95" y="1378" type="curve" smooth="yes"/>
      <point x="95" y="1230"/>
      <point x="156" y="1065"/>
      <point x="288" y="960" type="curve" smooth="yes"/>
      <point x="608" y="704" type="line" smooth="yes"/>
      <point x="736" y="601"/>
      <point x="800" y="512"/>
      <point x="800" y="384" type="curve" smooth="yes"/>
      <point x="800" y="256"/>
      <point x="736" y="192"/>
      <point x="608" y="192" type="curve" smooth="yes"/>
      <point x="445.699707031" y="192.0"/>
      <point x="383.461042583" y="336.605192184"/>
      <point x="361.635215958" y="476.434257241" type="curve" smooth="yes"/>
      <point x="352.62371562" y="534.167221434"/>
      <point x="306.635998922" y="564.65899973"/>
      <point x="249.948601897" y="550.487150474" type="curve" smooth="yes"/>
      <point x="186.052509899" y="534.513127475" type="line" smooth="yes"/>
      <point x="135.5337275" y="521.883431875"/>
      <point x="98.0262680654" y="463.837011999"/>
      <point x="107.270639802" y="412.590566491" type="curve" smooth="yes"/>
      <point x="118.083274603" y="352.650408745"/>
      <point x="135.845214844" y="297.268066406"/>
      <point x="160" y="247" type="curve" smooth="yes"/>
      <point x="224" y="114"/>
      <point x="352" y="-18"/>
      <point x="608" y="-18" type="curve" smooth="yes"/>
      <point x="914" y="-18"/>
      <point x="1056" y="181"/>
    </contour>
  </outline>
</glyph>
<glyph name="T" format="1">
  <advance width="1024"/>
  <unicode hex="0054"/>
  <outline>
    <contour>
      <point x="64.0" y="1664.0" type="line" smooth="yes"/>
      <point x="64.0" y="1607.52117783"/>
      <point x="107.521177826" y="1564.0"/>
      <point x="164.0" y="1564.0" type="curve" smooth="yes"/>
      <point x="384" y="1564" type="line"/>
      <point x="384.0" y="100.0" type="line" smooth="yes"/>
      <point x="384.0" y="43.521177826"/>
      <point x="427.521177826" y="0.0"/>
      <point x="484.0" y="0.0" type="curve" smooth="yes"/>
      <point x="540.0" y="0.0" type="line" smooth="yes"/>
      <point x="596.478822174" y="0.0"/>
      <point x="640.0" y="43.521177826"/>
      <point x="640.0" y="100.0" type="curve" smooth="yes"/>
      <point x="640" y="1564" type="line"/>
      <point x="860.0" y="1564.0" type="line" smooth="yes"/>
      <point x="916.478822174" y="1564.0"/>
      <point x="960.0" y="1607.52117783"/>
      <point x="960.0" y="1664.0" type="curve" smooth="yes"/>
      <point x="960.0" y="1692.0" type="line" smooth="yes"/>
      <point x="960.0" y="1748.47882217"/>
      <point x="916.478822174" y="1792.0"/>
      <point x="860.0" y="1792.0" type="curve" smooth="yes"/>
      <point x="164.0" y="1792.0" type="line" smooth="yes"/>
      <point x="107.521177826" y="1792.0"/>
      <point x="64.0" y="1748.47882217"/>
      <point x="64.0" y="1692.0" type="curve"/>
    </contour>
  </outline>
</glyph>
<glyph name="U" format="1">
  <advance width="1280"/>
  <unicode hex="0055"/>
  <outline>
    <contour>
      <point x="1152" y="640" type="curve" smooth="yes"/>
      <point x="1152.0" y="1692.0" type="line" smooth="yes"/>
      <point x="1152.0" y="1748.47882217"/>
      <point x="1108.47882217" y="1792.0"/>
      <point x="1052.0" y="1792.0" type="curve" smooth="yes"/>
      <point x="996.0" y="1792.0" type="line" smooth="yes"/>
      <point x="939.521177826" y="1792.0"/>
      <point x="896.0" y="1748.47882217"/>
      <point x="896.0" y="1692.0" type="curve" smooth="yes"/>
      <point x="896" y="640" type="line" smooth="yes"/>
      <point x="896" y="448"/>
      <point x="896" y="192"/>
      <point x="640" y="192" type="curve" smooth="yes"/>
      <point x="384" y="192"/>
      <point x="384" y="448"/>
      <point x="384" y="640" type="curve" smooth="yes"/>
      <point x="384.0" y="1692.0" type="line" smooth="yes"/>
      <point x="384.0" y="1748.47882217"/>
      <point x="340.478822174" y="1792.0"/>
      <point x="284.0" y="1792.0" type="curve" smooth="yes"/>
      <point x="228.0" y="1792.0" type="line" smooth="yes"/>
      <point x="171.521177826" y="1792.0"/>
      <point x="128.0" y="1748.47882217"/>
      <point x="128.0" y="1692.0" type="curve" smooth="yes"/>
      <point x="128" y="640" type="line" smooth="yes"/>
      <point x="128" y="320"/>
      <point x="192" y="-19"/>
      <point x="640" y="-19" type="curve" smooth="yes"/>
      <point x="1088" y="-19"/>
      <point x="1152" y="320"/>
    </contour>
  </outline>
</glyph>
<glyph name="V" format="1">
  <advance width="1152"/>
  <unicode hex="0056"/>
  <outline>
    <contour>
      <point x="509" y="832" type="line"/>
      <point x="339.316703392" y="1693.88341134" type="line" smooth="yes"/>
      <point x="327.924275617" y="1751.74971115"/>
      <point x="278.977080838" y="1792.0"/>
      <point x="220.0" y="1792.0" type="curve" smooth="yes"/>
      <point x="164.0" y="1792.0" type="line" smooth="yes"/>
      <point x="111.034796881" y="1792.0"/>
      <point x="73.8551581291" y="1746.00926206"/>
      <point x="84.9529088731" y="1694.21975859" type="curve" smooth="yes"/>
      <point x="427.047091127" y="97.7802414077" type="line" smooth="yes"/>
      <point x="439.442965" y="39.9328299992"/>
      <point x="488.83936532" y="0.0"/>
      <point x="548.0" y="0.0" type="curve" smooth="yes"/>
      <point x="604.0" y="0.0" type="line" smooth="yes"/>
      <point x="663.16063468" y="0.0"/>
      <point x="712.557035" y="39.9328299992"/>
      <point x="724.952908873" y="97.7802414077" type="curve" smooth="yes"/>
      <point x="1067.04709113" y="1694.21975859" type="line" smooth="yes"/>
      <point x="1078.14484187" y="1746.00926206"/>
      <point x="1040.96520312" y="1792.0"/>
      <point x="988.0" y="1792.0" type="curve" smooth="yes"/>
      <point x="932.0" y="1792.0" type="line" smooth="yes"/>
      <point x="873.022919162" y="1792.0"/>
      <point x="824.075724383" y="1751.74971115"/>
      <point x="812.683296608" y="1693.88341134" type="curve" smooth="yes"/>
      <point x="643" y="832" type="line"/>
      <point x="575" y="384" type="line"/>
    </contour>
  </outline>
</glyph>
<glyph name="W" format="1">
  <advance width="1664"/>
  <unicode hex="0057"/>
  <outline>
    <contour>
      <point x="576" y="960" type="line"/>
      <point x="513" y="448" type="line"/>
      <point x="448" y="960" type="line"/>
      <point x="335.205718425" y="1693.16283023" type="line" smooth="yes"/>
      <point x="326.310864004" y="1750.97938397"/>
      <point x="278.496771886" y="1792.0"/>
      <point x="220.0" y="1792.0" type="curve" smooth="yes"/>
      <point x="164.0" y="1792.0" type="line" smooth="yes"/>
      <point x="110.373158358" y="1792.0"/>
      <point x="72.1519671163" y="1746.34898415"/>
      <point x="81.5790638484" y="1693.55724245" type="curve" smooth="yes"/>
      <point x="366.420936152" y="98.4427575508" type="line" smooth="yes"/>
      <point x="376.753452773" y="40.5806644714"/>
      <point x="425.222600302" y="0.0"/>
      <point x="484.0" y="0.0" type="curve" smooth="yes"/>
      <point x="540.0" y="0.0" type="line" smooth="yes"/>
      <point x="598.496771886" y="0.0"/>
      <point x="646.310864004" y="41.0206160292"/>
      <point x="655.205718425" y="98.8371697651" type="curve" smooth="yes"/>
      <point x="768" y="832" type="line"/>
      <point x="832" y="1344" type="line"/>
      <point x="896" y="832" type="line"/>
      <point x="1008.79428157" y="98.8371697651" type="line" smooth="yes"/>
      <point x="1017.689136" y="41.0206160292"/>
      <point x="1065.50322811" y="0.0"/>
      <point x="1124.0" y="0.0" type="curve" smooth="yes"/>
      <point x="1180.0" y="0.0" type="line" smooth="yes"/>
      <point x="1238.7773997" y="0.0"/>
      <point x="1287.24654723" y="40.5806644714"/>
      <point x="1297.57906385" y="98.4427575508" type="curve" smooth="yes"/>
      <point x="1582.42093615" y="1693.55724245" type="line" smooth="yes"/>
      <point x="1591.84803288" y="1746.34898415"/>
      <point x="1553.62684164" y="1792.0"/>
      <point x="1500.0" y="1792.0" type="curve" smooth="yes"/>
      <point x="1444.0" y="1792.0" type="line" smooth="yes"/>
      <point x="1385.50322811" y="1792.0"/>
      <point x="1337.689136" y="1750.97938397"/>
      <point x="1328.79428157" y="1693.16283023" type="curve" smooth="yes"/>
      <point x="1216" y="960" type="line"/>
      <point x="1151" y="448" type="line"/>
      <point x="1088" y="960" type="line"/>
      <point x="975.205718425" y="1693.16283023" type="line" smooth="yes"/>
      <point x="966.310864004" y="1750.97938397"/>
      <point x="918.496771886" y="1792.0"/>
      <point x="860.0" y="1792.0" type="curve" smooth="yes"/>
      <point x="804.0" y="1792.0" type="line" smooth="yes"/>
      <point x="745.503228114" y="1792.0"/>
      <point x="697.689135996" y="1750.97938397"/>
      <point x="688.794281575" y="1693.16283023" type="curve" smooth="yes"/>
    </contour>
  </outline>
</glyph>
<glyph name="X" format="1">
  <advance width="1152"/>
  <unicode hex="0058"/>
  <outline>
    <contour>
      <point x="984.0" y="0.0" type="line" smooth="yes"/>
      <point x="1034.65067421" y="0.0"/>
      <point x="1068.16911405" y="46.7411917465"/>
      <point x="1051.92076549" y="94.7149550655" type="curve" smooth="yes"/>
      <point x="768" y="933" type="line"/>
      <point x="1053.09097602" y="1698.29108876" type="line" smooth="yes"/>
      <point x="1070.54548801" y="1745.14554438"/>
      <point x="1038.0" y="1792.0"/>
      <point x="988.0" y="1792.0" type="curve" smooth="yes"/>
      <point x="932.0" y="1792.0" type="line" smooth="yes"/>
      <point x="871.518583758" y="1792.0"/>
      <point x="818.494798138" y="1754.86069488"/>
      <point x="797.825693691" y="1698.02065765" type="curve" smooth="yes"/>
      <point x="576" y="1088" type="line"/>
      <point x="354.174306309" y="1698.02065765" type="line" smooth="yes"/>
      <point x="333.505201862" y="1754.86069488"/>
      <point x="280.481416242" y="1792.0"/>
      <point x="220.0" y="1792.0" type="curve" smooth="yes"/>
      <point x="164.0" y="1792.0" type="line" smooth="yes"/>
      <point x="113.949232285" y="1792.0"/>
      <point x="81.3657589396" y="1745.16671886"/>
      <point x="98.7668185175" y="1698.23823631" type="curve" smooth="yes"/>
      <point x="384" y="929" type="line"/>
      <point x="98.3855620708" y="94.6106514583" type="line" smooth="yes"/>
      <point x="82.0005909866" y="46.7438648634"/>
      <point x="115.40655639" y="0.0"/>
      <point x="166.0" y="0.0" type="curve" smooth="yes"/>
      <point x="222.0" y="0.0" type="line" smooth="yes"/>
      <point x="282.228856761" y="0.0"/>
      <point x="334.488206083" y="37.7596152439"/>
      <point x="353.400168731" y="94.9422424618" type="curve" smooth="yes"/>
      <point x="576" y="768" type="line"/>
      <point x="798.599831269" y="94.9422424618" type="line" smooth="yes"/>
      <point x="817.511793917" y="37.7596152439"/>
      <point x="869.771143239" y="0.0"/>
      <point x="930.0" y="0.0" type="curve" smooth="yes"/>
    </contour>
  </outline>
</glyph>
<glyph name="Y" format="1">
  <advance width="1082"/>
  <unicode hex="0059"/>
  <outline>
    <contour>
      <point x="669" y="576" type="line"/>
      <point x="1022.88686321" y="1696.64173349" type="line" smooth="yes"/>
      <point x="1038.2662004" y="1745.34296793"/>
      <point x="1004.07185379" y="1792.0"/>
      <point x="953.0" y="1792.0" type="curve" smooth="yes"/>
      <point x="897.0" y="1792.0" type="line" smooth="yes"/>
      <point x="837.151446664" y="1792.0"/>
      <point x="785.969549286" y="1753.3934225"/>
      <point x="769.52788721" y="1695.84760524" type="curve" smooth="yes"/>
      <point x="541" y="896" type="line"/>
      <point x="312.47211279" y="1695.84760524" type="line" smooth="yes"/>
      <point x="296.030450714" y="1753.3934225"/>
      <point x="244.848553336" y="1792.0"/>
      <point x="185.0" y="1792.0" type="curve" smooth="yes"/>
      <point x="129.0" y="1792.0" type="line" smooth="yes"/>
      <point x="77.928146213" y="1792.0"/>
      <point x="43.7337995998" y="1745.34296793"/>
      <point x="59.1131367937" y="1696.64173349" type="curve" smooth="yes"/>
      <point x="413" y="576" type="line"/>
      <point x="413.0" y="100.0" type="line" smooth="yes"/>
      <point x="413.0" y="43.521177826"/>
      <point x="456.521177826" y="0.0"/>
      <point x="513.0" y="0.0" type="curve" smooth="yes"/>
      <point x="569.0" y="0.0" type="line" smooth="yes"/>
      <point x="625.478822174" y="0.0"/>
      <point x="669.0" y="43.521177826"/>
      <point x="669.0" y="100.0" type="curve" smooth="yes"/>
    </contour>
  </outline>
</glyph>
<glyph name="Z" format="1">
  <advance width="960"/>
  <unicode hex="005A"/>
  <outline>
    <contour>
      <point x="896.0" y="1697.0" type="line" smooth="yes"/>
      <point x="896.0" y="1750.65488107"/>
      <point x="854.654881065" y="1792.0"/>
      <point x="801.0" y="1792.0" type="curve" smooth="yes"/>
      <point x="223.0" y="1792.0" type="line" smooth="yes"/>
      <point x="169.345118935" y="1792.0"/>
      <point x="128.0" y="1750.65488107"/>
      <point x="128.0" y="1697.0" type="curve" smooth="yes"/>
      <point x="128.0" y="1695.0" type="line"/>
      <point x="128.0" y="1641.34511893"/>
      <point x="169.345118935" y="1600.0"/>
      <point x="223.0" y="1600.0" type="curve" smooth="yes"/>
      <point x="640" y="1600" type="line"/>
      <point x="99.9701203434" y="279.92696084" type="line" smooth="yes"/>
      <point x="78.6833566908" y="227.892649689"/>
      <point x="64.0" y="153.220066202"/>
      <point x="64.0" y="97.0" type="curve"/>
      <point x="64.0" y="95.0" type="line" smooth="yes"/>
      <point x="64.0" y="41.3451189347"/>
      <point x="105.345118935" y="0.0"/>
      <point x="159.0" y="0.0" type="curve" smooth="yes"/>
      <point x="801.0" y="0.0" type="line" smooth="yes"/>
      <point x="854.654881065" y="0.0"/>
      <point x="896.0" y="41.3451189347"/>
      <point x="896.0" y="95.0" type="curve" smooth="yes"/>
      <point x="896.0" y="97.0" type="line" smooth="yes"/>
      <point x="896.0" y="150.654881065"/>
      <point x="854.654881065" y="192.0"/>
      <point x="801.0" y="192.0" type="curve" smooth="yes"/>
      <point x="320" y="192" type="line"/>
      <point x="860.029879657" y="1512.07303916" type="line" smooth="yes"/>
      <point x="881.316643309" y="1564.10735031"/>
      <point x="896.0" y="1638.7799338"/>
      <point x="896.0" y="1695.0" type="curve" smooth="yes"/>
    </contour>
  </outline>
</glyph>
<glyph name="bracketleft" format="1">
  <advance width="768"/>
  <unicode hex="005B"/>
  <outline>
    <contour>
      <point x="577.0" y="-64.0" type="line" smooth="yes"/>
      <point x="612.58165797" y="-64.0"/>
      <point x="640.0" y="-36.5816579696"/>
      <point x="640.0" y="-1.0" type="curve" smooth="yes"/>
      <point x="640.0" y="1.0" type="line" smooth="yes"/>
      <point x="640.0" y="36.5816579696"/>
      <point x="612.58165797" y="64.0"/>
      <point x="577.0" y="64.0" type="curve" smooth="yes"/>
      <point x="384" y="64" type="line"/>
      <point x="384" y="1728" type="line"/>
      <point x="577.0" y="1728.0" type="line" smooth="yes"/>
      <point x="612.58165797" y="1728.0"/>
      <point x="640.0" y="1755.41834203"/>
      <point x="640.0" y="1791.0" type="curve" smooth="yes"/>
      <point x="640.0" y="1793.0" type="line" smooth="yes"/>
      <point x="640.0" y="1828.58165797"/>
      <point x="612.58165797" y="1856.0"/>
      <point x="577.0" y="1856.0" type="curve" smooth="yes"/>
      <point x="228.0" y="1856.0" type="line" smooth="yes"/>
      <point x="171.521177826" y="1856.0"/>
      <point x="128.0" y="1812.47882217"/>
      <point x="128.0" y="1756.0" type="curve" smooth="yes"/>
      <point x="128.0" y="36.0" type="line"/>
      <point x="128.0" y="-20.478822174"/>
      <point x="171.521177826" y="-64.0"/>
      <point x="228.0" y="-64.0" type="curve" smooth="yes"/>
    </contour>
  </outline>
</glyph>
<glyph name="backslash" format="1">
  <advance width="576"/>
  <unicode hex="005C"/>
  <outline>
    <contour>
      <point x="164.0" y="1792.0" type="line" smooth="yes"/>
      <point x="109.176617711" y="1792.0"/>
      <point x="68.8128061999" y="1747.08047547"/>
      <point x="74.6533123634" y="1692.56908461" type="curve" smooth="yes"/>
      <point x="245.346687637" y="99.430915392" type="line" smooth="yes"/>
      <point x="251.518460202" y="41.8277047781"/>
      <point x="298.067102182" y="0.0"/>
      <point x="356.0" y="0.0" type="curve" smooth="yes"/>
      <point x="412.0" y="0.0" type="line" smooth="yes"/>
      <point x="466.823382289" y="0.0"/>
      <point x="507.1871938" y="44.9195245327"/>
      <point x="501.346687637" y="99.430915392" type="curve" smooth="yes"/>
      <point x="330.653312363" y="1692.56908461" type="line" smooth="yes"/>
      <point x="324.481539798" y="1750.17229522"/>
      <point x="277.932897818" y="1792.0"/>
      <point x="220.0" y="1792.0" type="curve" smooth="yes"/>
    </contour>
  </outline>
</glyph>
<glyph name="bracketright" format="1">
  <advance width="768"/>
  <unicode hex="005D"/>
  <outline>
    <contour>
      <point x="191.0" y="1856.0" type="line" smooth="yes"/>
      <point x="155.41834203" y="1856.0"/>
      <point x="128.0" y="1828.58165797"/>
      <point x="128.0" y="1793.0" type="curve"/>
      <point x="128.0" y="1791.0" type="line" smooth="yes"/>
      <point x="128.0" y="1755.41834203"/>
      <point x="155.41834203" y="1728.0"/>
      <point x="191.0" y="1728.0" type="curve" smooth="yes"/>
      <point x="384" y="1728" type="line"/>
      <point x="384" y="64" type="line"/>
      <point x="191.0" y="64.0" type="line" smooth="yes"/>
      <point x="155.41834203" y="64.0"/>
      <point x="128.0" y="36.5816579696"/>
      <point x="128.0" y="1.0" type="curve"/>
      <point x="128.0" y="-1.0" type="line" smooth="yes"/>
      <point x="128.0" y="-36.5816579696"/>
      <point x="155.41834203" y="-64.0"/>
      <point x="191.0" y="-64.0" type="curve" smooth="yes"/>
      <point x="540.0" y="-64.0" type="line" smooth="yes"/>
      <point x="596.478822174" y="-64.0"/>
      <point x="640.0" y="-20.478822174"/>
      <point x="640.0" y="36.0" type="curve" smooth="yes"/>
      <point x="640.0" y="1756.0" type="line" smooth="yes"/>
      <point x="640.0" y="1812.47882217"/>
      <point x="596.478822174" y="1856.0"/>
      <point x="540.0" y="1856.0" type="curve" smooth="yes"/>
    </contour>
  </outline>
</glyph>
<glyph name="asciicircum" format="1">
  <advance width="896"/>
  <unicode hex="005E"/>
  <outline>
    <contour>
      <point x="101.139067635" y="988.847669089" type="line" smooth="yes"/>
      <point x="82.6678023131" y="942.669505783"/>
      <point x="114.264596021" y="896.0"/>
      <point x="164.0" y="896.0" type="curve" smooth="yes"/>
      <point x="220.0" y="896.0" type="line" smooth="yes"/>
      <point x="279.8286331" y="896.0"/>
      <point x="330.956141719" y="934.648436931"/>
      <point x="347.273509877" y="992.208916733" type="curve" smooth="yes"/>
      <point x="447" y="1344" type="line"/>
      <point x="548.329635289" y="992.09553016" type="line" smooth="yes"/>
      <point x="564.895432322" y="934.564700152"/>
      <point x="616.131627442" y="896.0"/>
      <point x="676.0" y="896.0" type="curve" smooth="yes"/>
      <point x="732.0" y="896.0" type="line" smooth="yes"/>
      <point x="781.735403979" y="896.0"/>
      <point x="813.332197687" y="942.669505783"/>
      <point x="794.860932365" y="988.847669089" type="curve" smooth="yes"/>
      <point x="613.139067635" y="1443.15233091" type="line" smooth="yes"/>
      <point x="590.582229982" y="1499.54442504"/>
      <point x="536.736144145" y="1536.0"/>
      <point x="476.0" y="1536.0" type="curve" smooth="yes"/>
      <point x="420.0" y="1536.0" type="line" smooth="yes"/>
      <point x="359.263855855" y="1536.0"/>
      <point x="305.417770018" y="1499.54442504"/>
      <point x="282.860932365" y="1443.15233091" type="curve" smooth="yes"/>
    </contour>
  </outline>
</glyph>
<glyph name="underscore" format="1">
  <advance width="768"/>
  <unicode hex="005F"/>
  <outline>
    <contour>
      <point x="673.0" y="0.0" type="line" smooth="yes"/>
      <point x="726.654881065" y="0.0"/>
      <point x="768.0" y="41.3451189347"/>
      <point x="768.0" y="95.0" type="curve" smooth="yes"/>
      <point x="768.0" y="97.0" type="line" smooth="yes"/>
      <point x="768.0" y="150.654881065"/>
      <point x="726.654881065" y="192.0"/>
      <point x="673.0" y="192.0" type="curve" smooth="yes"/>
      <point x="95.0" y="192.0" type="line" smooth="yes"/>
      <point x="41.3451189347" y="192.0"/>
      <point x="-7.59497513456e-15" y="150.654881065"/>
      <point x="-1.74512168878e-14" y="97.0" type="curve"/>
      <point x="1.74512168878e-14" y="95.0" type="line"/>
      <point x="7.59497513456e-15" y="41.3451189347"/>
      <point x="41.3451189347" y="0.0"/>
      <point x="95.0" y="0.0" type="curve" smooth="yes"/>
    </contour>
  </outline>
</glyph>
<glyph name="grave" format="1">
  <advance width="640"/>
  <unicode hex="0060"/>
  <outline>
    <contour>
      <point x="449.0" y="1408.0" type="line" smooth="yes"/>
      <point x="480.923850396" y="1408.0"/>
      <point x="502.172858634" y="1437.4814241"/>
      <point x="492.077650741" y="1467.76704778" type="curve" smooth="yes"/>
      <point x="415.622776602" y="1697.13167019" type="line" smooth="yes"/>
      <point x="396.570174092" y="1754.28947772"/>
      <point x="344.249619283" y="1792.0"/>
      <point x="284.0" y="1792.0" type="curve" smooth="yes"/>
      <point x="228.0" y="1792.0" type="line" smooth="yes"/>
      <point x="183.296502692" y="1792.0"/>
      <point x="158.672980894" y="1745.99052866"/>
      <point x="183.470019623" y="1708.79497057" type="curve" smooth="yes"/>
      <point x="349.053887638" y="1460.41916854" type="line" smooth="yes"/>
      <point x="370.689012844" y="1427.96648073"/>
      <point x="407.99672336" y="1408.0"/>
      <point x="447.0" y="1408.0" type="curve" smooth="yes"/>
    </contour>
  </outline>
</glyph>
<glyph name="a" format="1">
  <advance width="973"/>
  <unicode hex="0061"/>
  <outline>
    <contour>
      <point x="623" y="172" type="curve"/>
      <point x="623" y="169"/>
      <point x="636" y="0"/>
      <point x="742" y="0" type="curve" smooth="yes"/>
      <point x="792.288974927" y="0.0" type="line" smooth="yes"/>
      <point x="849.894141772" y="0.0"/>
      <point x="885.491964419" y="40.9961104686"/>
      <point x="877.412154309" y="98.0318178443" type="curve" smooth="yes"/>
      <point x="869.314210653" y="155.195530653"/>
      <point x="864.0" y="227.146484375"/>
      <point x="864.0" y="320.0" type="curve" smooth="yes"/>
      <point x="864.0" y="896.0" type="line" smooth="yes"/>
      <point x="864.0" y="1088.0"/>
      <point x="754.0" y="1298.0"/>
      <point x="480.0" y="1298.0" type="curve" smooth="yes"/>
      <point x="281.276367188" y="1298.0"/>
      <point x="143.450471923" y="1182.07418635"/>
      <point x="106.11592851" y="995.472403984" type="curve" smooth="yes"/>
      <point x="96.7118259867" y="948.469758926"/>
      <point x="139.723532447" y="896.0"/>
      <point x="187.657714266" y="896.0" type="curve" smooth="yes"/>
      <point x="237.607113705" y="896.0" type="line" smooth="yes"/>
      <point x="306.444666242" y="896.0"/>
      <point x="346.223335035" y="928.300994621"/>
      <point x="360.353920066" y="995.672614803" type="curve" smooth="yes"/>
      <point x="379.71875" y="1088.0"/>
      <point x="429.859375" y="1088.0"/>
      <point x="480.0" y="1088.0" type="curve" smooth="yes"/>
      <point x="544.0" y="1088.0"/>
      <point x="608" y="1088"/>
      <point x="608.0" y="896.0" type="curve" smooth="yes"/>
      <point x="608" y="794" type="line"/>
      <point x="137" y="610"/>
      <point x="96.0" y="479.0"/>
      <point x="96.0" y="283.0" type="curve" smooth="yes"/>
      <point x="96.0" y="127.0"/>
      <point x="224.0" y="-18.0"/>
      <point x="352.0" y="-18.0" type="curve" smooth="yes"/>
      <point x="480.0" y="-18.0"/>
      <point x="559" y="44"/>
    </contour>
    <contour>
      <point x="608" y="650" type="curve"/>
      <point x="608.0" y="286.0" type="line"/>
      <point x="580.0" y="245.0"/>
      <point x="531.0" y="192.0"/>
      <point x="480.0" y="192.0" type="curve" smooth="yes"/>
      <point x="416.0" y="192.0"/>
      <point x="352.0" y="224.0"/>
      <point x="352.0" y="351.0" type="curve" smooth="yes"/>
      <point x="352.0" y="466.0"/>
      <point x="436" y="536"/>
    </contour>
  </outline>
</glyph>
<glyph name="b" format="1">
  <advance width="1056"/>
  <unicode hex="0062"/>
  <outline>
    <contour>
      <point x="576.0" y="1088.0" type="curve" smooth="yes"/>
      <point x="704.0" y="1088.0"/>
      <point x="704.0" y="929.0"/>
      <point x="704.0" y="705.0" type="curve" smooth="yes"/>
      <point x="704.0" y="324.0"/>
      <point x="680.0" y="192.0"/>
      <point x="576.0" y="192.0" type="curve" smooth="yes"/>
      <point x="535.0" y="192.0"/>
      <point x="460.0" y="201.0"/>
      <point x="384.0" y="232.0" type="curve"/>
      <point x="384.0" y="1037.0" type="line"/>
      <point x="437.0" y="1069.0"/>
      <point x="512.0" y="1088.0"/>
    </contour>
    <contour>
      <point x="228" y="1792" type="line" smooth="yes"/>
      <point x="155" y="1792"/>
      <point x="128" y="1748"/>
      <point x="128" y="1692" type="curve" smooth="yes"/>
      <point x="128.0" y="100.0" type="line"/>
      <point x="128.0" y="44.0"/>
      <point x="172.0" y="0.0"/>
      <point x="228.0" y="0.0" type="curve" smooth="yes"/>
      <point x="284.0" y="0.0" type="line" smooth="yes"/>
      <point x="340.0" y="0.0"/>
      <point x="384.0" y="44.0"/>
      <point x="384.0" y="100.0" type="curve" smooth="yes"/>
      <point x="384.0" y="116.0" type="line"/>
      <point x="452.0" y="46.0"/>
      <point x="542.0" y="-18.0"/>
      <point x="640.0" y="-18.0" type="curve" smooth="yes"/>
      <point x="889.0" y="-18.0"/>
      <point x="960.0" y="345.0"/>
      <point x="960.0" y="577.0" type="curve" smooth="yes"/>
      <point x="960.0" y="1104.0"/>
      <point x="883.0" y="1298.0"/>
      <point x="644.0" y="1298.0" type="curve" smooth="yes"/>
      <point x="593.0" y="1298.0"/>
      <point x="516.0" y="1293.0"/>
      <point x="384.0" y="1153.0" type="curve"/>
      <point x="384" y="1692" type="line" smooth="yes"/>
      <point x="384" y="1748"/>
      <point x="352" y="1792"/>
      <point x="284" y="1792" type="curve" smooth="yes"/>
      <point x="256" y="1792" type="line"/>
    </contour>
  </outline>
</glyph>
<glyph name="c" format="1">
  <advance width="923"/>
  <unicode hex="0063"/>
  <outline>
    <contour>
      <point x="860.13830577" y="348.04009578" type="curve" smooth="yes"/>
      <point x="864.936700694" y="399.802903225"/>
      <point x="821.000817317" y="448.0"/>
      <point x="769.016080822" y="448.0" type="curve" smooth="yes"/>
      <point x="713.463803278" y="448.0" type="line" smooth="yes"/>
      <point x="652.867894139" y="448.0"/>
      <point x="610.197488374" y="408.469786364"/>
      <point x="605.574518085" y="348.050481915" type="curve" smooth="yes"/>
      <point x="598.90222168" y="260.84777832"/>
      <point x="573.875" y="192.0"/>
      <point x="480" y="192" type="curve" smooth="yes"/>
      <point x="352" y="192"/>
      <point x="352" y="384"/>
      <point x="352" y="640" type="curve" smooth="yes"/>
      <point x="352" y="896"/>
      <point x="352" y="1088"/>
      <point x="480" y="1088" type="curve" smooth="yes"/>
      <point x="565.393066406" y="1088.0"/>
      <point x="593.847448826" y="1006.41621399"/>
      <point x="603.309890378" y="931.883370422" type="curve" smooth="yes"/>
      <point x="611.3149089" y="868.830215488"/>
      <point x="653.116594023" y="832.0"/>
      <point x="716.675862967" y="832.0" type="curve" smooth="yes"/>
      <point x="768.502569159" y="832.0" type="line" smooth="yes"/>
      <point x="821.44111878" y="832.0"/>
      <point x="865.328761779" y="879.157767205"/>
      <point x="861.530819871" y="931.95990422" type="curve" smooth="yes"/>
      <point x="850.602645874" y="1083.89243889"/>
      <point x="791.9921875" y="1298.0"/>
      <point x="480" y="1298" type="curve" smooth="yes"/>
      <point x="96" y="1298"/>
      <point x="96" y="896"/>
      <point x="96" y="640" type="curve" smooth="yes"/>
      <point x="96" y="384"/>
      <point x="96" y="-18"/>
      <point x="480" y="-18" type="curve" smooth="yes"/>
      <point x="780.849609375" y="-18.0"/>
      <point x="846.054210663" y="196.107561111"/>
    </contour>
  </outline>
</glyph>
<glyph name="d" format="1">
  <advance width="1056"/>
  <unicode hex="0064"/>
  <outline>
    <contour>
      <point x="480" y="192" type="curve" smooth="yes"/>
      <point x="376" y="192"/>
      <point x="352" y="324"/>
      <point x="352" y="705" type="curve" smooth="yes"/>
      <point x="352" y="929"/>
      <point x="352" y="1088"/>
      <point x="480" y="1088" type="curve" smooth="yes"/>
      <point x="544" y="1088"/>
      <point x="619" y="1069"/>
      <point x="672" y="1037" type="curve"/>
      <point x="672" y="232" type="line"/>
      <point x="596" y="201"/>
      <point x="521" y="192"/>
    </contour>
    <contour>
      <point x="412" y="1298" type="curve" smooth="yes"/>
      <point x="173" y="1298"/>
      <point x="96" y="1104"/>
      <point x="96" y="577" type="curve" smooth="yes"/>
      <point x="96" y="345"/>
      <point x="167" y="-18"/>
      <point x="416" y="-18" type="curve" smooth="yes"/>
      <point x="514" y="-18"/>
      <point x="605" y="46"/>
      <point x="672" y="116" type="curve"/>
      <point x="672.0" y="100.0" type="line" smooth="yes"/>
      <point x="672.0" y="43.521177826"/>
      <point x="715.521177826" y="0.0"/>
      <point x="772.0" y="0.0" type="curve" smooth="yes"/>
      <point x="828.0" y="0.0" type="line" smooth="yes"/>
      <point x="884.478822174" y="0.0"/>
      <point x="928.0" y="43.521177826"/>
      <point x="928.0" y="100.0" type="curve" smooth="yes"/>
      <point x="928.0" y="1691.0" type="line" smooth="yes"/>
      <point x="928.0" y="1747.47882217"/>
      <point x="884.478822174" y="1791.0"/>
      <point x="828.0" y="1791.0" type="curve" smooth="yes"/>
      <point x="772.0" y="1791.0" type="line" smooth="yes"/>
      <point x="715.521177826" y="1791.0"/>
      <point x="672.0" y="1747.47882217"/>
      <point x="672.0" y="1691.0" type="curve" smooth="yes"/>
      <point x="672" y="1153" type="line"/>
      <point x="540" y="1293"/>
      <point x="463" y="1298"/>
    </contour>
  </outline>
</glyph>
<glyph name="e" format="1">
  <advance width="950"/>
  <unicode hex="0065"/>
  <outline>
    <contour>
      <point x="859.291407438" y="348.07183322" type="curve" smooth="yes"/>
      <point x="864.456576781" y="399.405369814"/>
      <point x="820.506152968" y="448.0"/>
      <point x="768.91341168" y="448.0" type="curve" smooth="yes"/>
      <point x="714.376267256" y="448.0" type="line" smooth="yes"/>
      <point x="653.900301147" y="448.0"/>
      <point x="611.200250405" y="408.359665667"/>
      <point x="606.711950954" y="348.050481915" type="curve" smooth="yes"/>
      <point x="600.222195625" y="260.84777832"/>
      <point x="575.341796875" y="192.0"/>
      <point x="480" y="192" type="curve" smooth="yes"/>
      <point x="352" y="192"/>
      <point x="352" y="384"/>
      <point x="352" y="576" type="curve" smooth="yes"/>
      <point x="352" y="640" type="line"/>
      <point x="850.0" y="640.0" type="line" smooth="yes"/>
      <point x="857.800996659" y="640.0"/>
      <point x="864.0" y="646.199003341"/>
      <point x="864.0" y="654.0" type="curve" smooth="yes"/>
      <point x="864" y="670" type="line" smooth="yes"/>
      <point x="864" y="1152"/>
      <point x="736" y="1298"/>
      <point x="480" y="1298" type="curve" smooth="yes"/>
      <point x="224" y="1298"/>
      <point x="96" y="1152"/>
      <point x="96" y="670" type="curve" smooth="yes"/>
      <point x="96" y="129"/>
      <point x="224" y="-18"/>
      <point x="479" y="-18" type="curve" smooth="yes"/>
      <point x="707.545532227" y="-18.0"/>
      <point x="834.074913129" y="97.4601402581"/>
    </contour>
    <contour>
      <point x="608" y="768" type="curve"/>
      <point x="352" y="768" type="line"/>
      <point x="352" y="896"/>
      <point x="352" y="1088"/>
      <point x="480" y="1088" type="curve" smooth="yes"/>
      <point x="611" y="1088"/>
      <point x="608" y="896"/>
    </contour>
  </outline>
</glyph>
<glyph name="f" format="1">
  <advance width="641"/>
  <unicode hex="0066"/>
  <outline>
    <contour>
      <point x="341" y="0" type="line" smooth="yes"/>
      <point x="397" y="0"/>
      <point x="441" y="44"/>
      <point x="441" y="100" type="curve" smooth="yes"/>
      <point x="441" y="1088" type="line"/>
      <point x="538" y="1088" type="line" smooth="yes"/>
      <point x="592" y="1088"/>
      <point x="633" y="1129"/>
      <point x="633" y="1183" type="curve" smooth="yes"/>
      <point x="633" y="1185" type="line" smooth="yes"/>
      <point x="633" y="1239"/>
      <point x="592" y="1280"/>
      <point x="538" y="1280" type="curve" smooth="yes"/>
      <point x="441" y="1280" type="line"/>
      <point x="441" y="1376" type="line" smooth="yes"/>
      <point x="441" y="1461"/>
      <point x="450" y="1536"/>
      <point x="547" y="1536" type="curve" smooth="yes"/>
      <point x="558" y="1536"/>
      <point x="574" y="1534"/>
      <point x="591" y="1531" type="curve" smooth="yes"/>
      <point x="613" y="1528"/>
      <point x="633" y="1545"/>
      <point x="633" y="1568" type="curve" smooth="yes"/>
      <point x="633" y="1640" type="line" smooth="yes"/>
      <point x="633" y="1684"/>
      <point x="599" y="1721"/>
      <point x="555" y="1725" type="curve" smooth="yes"/>
      <point x="526" y="1727"/>
      <point x="502" y="1728"/>
      <point x="475" y="1728" type="curve" smooth="yes"/>
      <point x="175" y="1728"/>
      <point x="185" y="1501"/>
      <point x="185" y="1329" type="curve" smooth="yes"/>
      <point x="185" y="1280" type="line"/>
      <point x="152" y="1280" type="line" smooth="yes"/>
      <point x="98" y="1280"/>
      <point x="57" y="1239"/>
      <point x="57" y="1185" type="curve"/>
      <point x="57" y="1183" type="line"/>
      <point x="57" y="1129"/>
      <point x="98" y="1088"/>
      <point x="152" y="1088" type="curve" smooth="yes"/>
      <point x="185" y="1088" type="line"/>
      <point x="185" y="100" type="line"/>
      <point x="185" y="44"/>
      <point x="229" y="0"/>
      <point x="285" y="0" type="curve" smooth="yes"/>
    </contour>
  </outline>
</glyph>
<glyph name="g" format="1">
  <advance width="973"/>
  <unicode hex="0067"/>
  <outline>
    <contour>
      <point x="757" y="1147" type="curve"/>
      <point x="685" y="1259"/>
      <point x="609" y="1298"/>
      <point x="481" y="1298" type="curve" smooth="yes"/>
      <point x="289" y="1298"/>
      <point x="97" y="1152"/>
      <point x="97" y="832" type="curve" smooth="yes"/>
      <point x="97" y="695"/>
      <point x="134" y="556"/>
      <point x="225" y="448" type="curve"/>
      <point x="183" y="394"/>
      <point x="97" y="274"/>
      <point x="97" y="201" type="curve" smooth="yes"/>
      <point x="97" y="159"/>
      <point x="141" y="112"/>
      <point x="225" y="89" type="curve"/>
      <point x="161" y="57"/>
      <point x="102" y="15"/>
      <point x="70" y="-52" type="curve" smooth="yes"/>
      <point x="38" y="-119"/>
      <point x="33" y="-163"/>
      <point x="33" y="-195" type="curve" smooth="yes"/>
      <point x="33" y="-380"/>
      <point x="404" y="-383"/>
      <point x="545" y="-383" type="curve" smooth="yes"/>
      <point x="669" y="-383"/>
      <point x="993" y="-351"/>
      <point x="993" y="-64" type="curve" smooth="yes"/>
      <point x="993" y="326"/>
      <point x="317" y="143"/>
      <point x="317" y="301" type="curve" smooth="yes"/>
      <point x="317" y="329"/>
      <point x="338" y="357"/>
      <point x="352" y="383" type="curve"/>
      <point x="400" y="375" type="line" smooth="yes"/>
      <point x="419" y="372"/>
      <point x="459" y="368"/>
      <point x="481" y="368" type="curve" smooth="yes"/>
      <point x="737" y="368"/>
      <point x="865" y="576"/>
      <point x="865" y="832" type="curve" smooth="yes"/>
      <point x="865" y="920"/>
      <point x="846" y="986"/>
      <point x="833" y="1024" type="curve"/>
      <point x="846.499999987" y="1037.49999999"/>
      <point x="866.249999963" y="1053.49999997"/>
      <point x="892.749999926" y="1066.12499996" type="curve" smooth="yes"/>
      <point x="976.20931799" y="1105.88627889"/>
      <point x="993.0" y="1132.4844399"/>
      <point x="993.0" y="1217.88561325" type="curve"/>
      <point x="993.0" y="1213.64623219" type="line"/>
      <point x="993.0" y="1253.66828887"/>
      <point x="931.726552744" y="1294.25195509"/>
      <point x="894.876248476" y="1278.63721537" type="curve" smooth="yes"/>
      <point x="825.760189414" y="1249.35036701"/>
      <point x="781.822998047" y="1192.390625"/>
    </contour>
    <contour>
      <point x="769" y="-99" type="curve" smooth="yes"/>
      <point x="769" y="-191"/>
      <point x="610" y="-194"/>
      <point x="545" y="-194" type="curve" smooth="yes"/>
      <point x="482" y="-194"/>
      <point x="424" y="-193"/>
      <point x="355" y="-188" type="curve" smooth="yes"/>
      <point x="287" y="-184"/>
      <point x="259" y="-167"/>
      <point x="259" y="-135" type="curve" smooth="yes"/>
      <point x="259" y="-56"/>
      <point x="314" y="27"/>
      <point x="353" y="57" type="curve"/>
      <point x="564" y="32" type="line" smooth="yes"/>
      <point x="689" y="17"/>
      <point x="756" y="-15"/>
      <point x="765" y="-66" type="curve"/>
      <point x="768" y="-78"/>
      <point x="769" y="-89"/>
    </contour>
    <contour>
      <point x="481" y="1120" type="curve" smooth="yes"/>
      <point x="609" y="1120"/>
      <point x="641" y="960"/>
      <point x="641" y="832" type="curve" smooth="yes"/>
      <point x="641" y="704"/>
      <point x="609" y="560"/>
      <point x="481" y="560" type="curve" smooth="yes"/>
      <point x="353" y="560"/>
      <point x="321" y="704"/>
      <point x="321" y="832" type="curve" smooth="yes"/>
      <point x="321" y="960"/>
      <point x="353" y="1120"/>
    </contour>
  </outline>
</glyph>
<glyph name="h" format="1">
  <advance width="1024"/>
  <unicode hex="0068"/>
  <outline>
    <contour>
      <point x="284.0" y="0.0" type="line" smooth="yes"/>
      <point x="340.478822174" y="0.0"/>
      <point x="384.0" y="43.521177826"/>
      <point x="384.0" y="100.0" type="curve" smooth="yes"/>
      <point x="384" y="1013" type="line"/>
      <point x="432" y="1053"/>
      <point x="487" y="1088"/>
      <point x="552" y="1088" type="curve" smooth="yes"/>
      <point x="640" y="1088"/>
      <point x="640" y="1024"/>
      <point x="640" y="960" type="curve" smooth="yes"/>
      <point x="640.0" y="100.0" type="line" smooth="yes"/>
      <point x="640.0" y="43.521177826"/>
      <point x="683.521177826" y="0.0"/>
      <point x="740.0" y="0.0" type="curve" smooth="yes"/>
      <point x="796.0" y="0.0" type="line" smooth="yes"/>
      <point x="852.478822174" y="0.0"/>
      <point x="896.0" y="43.521177826"/>
      <point x="896.0" y="100.0" type="curve" smooth="yes"/>
      <point x="896" y="1091" type="line" smooth="yes"/>
      <point x="896" y="1196"/>
      <point x="824" y="1298"/>
      <point x="712" y="1298" type="curve" smooth="yes"/>
      <point x="651" y="1298"/>
      <point x="556" y="1298"/>
      <point x="384" y="1142" type="curve"/>
      <point x="384.0" y="1692.0" type="line" smooth="yes"/>
      <point x="384.0" y="1748.47882217"/>
      <point x="340.478822174" y="1792.0"/>
      <point x="284.0" y="1792.0" type="curve" smooth="yes"/>
      <point x="228.0" y="1792.0" type="line" smooth="yes"/>
      <point x="171.521177826" y="1792.0"/>
      <point x="128.0" y="1748.47882217"/>
      <point x="128.0" y="1692.0" type="curve" smooth="yes"/>
      <point x="128.0" y="100.0" type="line"/>
      <point x="128.0" y="43.521177826"/>
      <point x="171.521177826" y="0.0"/>
      <point x="228.0" y="0.0" type="curve" smooth="yes"/>
    </contour>
  </outline>
</glyph>
<glyph name="i" format="1">
  <advance width="512"/>
  <unicode hex="0069"/>
  <outline>
    <contour>
      <point x="284.0" y="0.0" type="line" smooth="yes"/>
      <point x="340.478822174" y="0.0"/>
      <point x="384.0" y="43.521177826"/>
      <point x="384.0" y="100.0" type="curve" smooth="yes"/>
      <point x="384.0" y="1180.0" type="line" smooth="yes"/>
      <point x="384.0" y="1236.47882217"/>
      <point x="340.478822174" y="1280.0"/>
      <point x="284.0" y="1280.0" type="curve" smooth="yes"/>
      <point x="228.0" y="1280.0" type="line" smooth="yes"/>
      <point x="171.521177826" y="1280.0"/>
      <point x="128.0" y="1236.47882217"/>
      <point x="128.0" y="1180.0" type="curve" smooth="yes"/>
      <point x="128.0" y="100.0" type="line"/>
      <point x="128.0" y="43.521177826"/>
      <point x="171.521177826" y="0.0"/>
      <point x="228.0" y="0.0" type="curve" smooth="yes"/>
    </contour>
    <contour>
      <point x="284.0" y="1472.0" type="line" smooth="yes"/>
      <point x="340.478822174" y="1472.0"/>
      <point x="384.0" y="1515.52117783"/>
      <point x="384.0" y="1572.0" type="curve" smooth="yes"/>
      <point x="384.0" y="1628.0" type="line" smooth="yes"/>
      <point x="384.0" y="1684.47882217"/>
      <point x="340.478822174" y="1728.0"/>
      <point x="284.0" y="1728.0" type="curve" smooth="yes"/>
      <point x="228.0" y="1728.0" type="line" smooth="yes"/>
      <point x="171.521177826" y="1728.0"/>
      <point x="128.0" y="1684.47882217"/>
      <point x="128.0" y="1628.0" type="curve" smooth="yes"/>
      <point x="128.0" y="1572.0" type="line"/>
      <point x="128.0" y="1515.52117783"/>
      <point x="171.521177826" y="1472.0"/>
      <point x="228.0" y="1472.0" type="curve" smooth="yes"/>
    </contour>
  </outline>
</glyph>
<glyph name="j" format="1">
  <advance width="537"/>
  <unicode hex="006A"/>
  <outline>
    <contour>
      <point x="116" y="-320" type="curve" smooth="yes"/>
      <point x="300" y="-320"/>
      <point x="436" y="-212"/>
      <point x="436" y="-7" type="curve" smooth="yes"/>
      <point x="436.0" y="1180.0" type="line" smooth="yes"/>
      <point x="436.0" y="1236.47882217"/>
      <point x="392.478822174" y="1280.0"/>
      <point x="336.0" y="1280.0" type="curve" smooth="yes"/>
      <point x="280.0" y="1280.0" type="line" smooth="yes"/>
      <point x="223.521177826" y="1280.0"/>
      <point x="180.0" y="1236.47882217"/>
      <point x="180.0" y="1180.0" type="curve"/>
      <point x="180" y="21" type="line" smooth="yes"/>
      <point x="180" y="-14"/>
      <point x="180" y="-128"/>
      <point x="52" y="-128" type="curve" smooth="yes"/>
      <point x="43.46875" y="-128.0"/>
      <point x="31.2415275574" y="-127.147083282"/>
      <point x="18.8049629256" y="-125.744435087" type="curve" smooth="yes"/>
      <point x="1.01037467818" y="-123.737486397"/>
      <point x="-12.0" y="-135.36298248"/>
      <point x="-12.0" y="-153.270389159" type="curve"/>
      <point x="-12.0" y="-246.143775512" type="line"/>
      <point x="-12.0" y="-276.827663587"/>
      <point x="19.6886709424" y="-312.478055861"/>
      <point x="50.1608821098" y="-316.076018342" type="curve" smooth="yes"/>
      <point x="74.2847061157" y="-318.924404144"/>
      <point x="98.369140625" y="-320.0"/>
    </contour>
    <contour>
      <point x="336.0" y="1472.0" type="line" smooth="yes"/>
      <point x="392.478822174" y="1472.0"/>
      <point x="436.0" y="1515.52117783"/>
      <point x="436.0" y="1572.0" type="curve" smooth="yes"/>
      <point x="436.0" y="1628.0" type="line" smooth="yes"/>
      <point x="436.0" y="1684.47882217"/>
      <point x="392.478822174" y="1728.0"/>
      <point x="336.0" y="1728.0" type="curve" smooth="yes"/>
      <point x="280.0" y="1728.0" type="line" smooth="yes"/>
      <point x="223.521177826" y="1728.0"/>
      <point x="180.0" y="1684.47882217"/>
      <point x="180.0" y="1628.0" type="curve"/>
      <point x="180.0" y="1572.0" type="line"/>
      <point x="180.0" y="1515.52117783"/>
      <point x="223.521177826" y="1472.0"/>
      <point x="280.0" y="1472.0" type="curve" smooth="yes"/>
    </contour>
  </outline>
</glyph>
<glyph name="k" format="1">
  <advance width="960"/>
  <unicode hex="006B"/>
  <outline>
    <contour>
      <point x="128.0" y="100.0" type="line"/>
      <point x="128.0" y="43.521177826"/>
      <point x="171.521177826" y="0.0"/>
      <point x="228.0" y="0.0" type="curve" smooth="yes"/>
      <point x="284.0" y="0.0" type="line" smooth="yes"/>
      <point x="340.478822174" y="0.0"/>
      <point x="384.0" y="43.521177826"/>
      <point x="384.0" y="100.0" type="curve" smooth="yes"/>
      <point x="384" y="508" type="line"/>
      <point x="502" y="684" type="line"/>
      <point x="674.374638501" y="95.5109310816" type="line" smooth="yes"/>
      <point x="692" y="38"/>
      <point x="743.939727851" y="0.0"/>
      <point x="804.0" y="0.0" type="curve" smooth="yes"/>
      <point x="860.0" y="0.0" type="line" smooth="yes"/>
      <point x="910.510653875" y="0.0"/>
      <point x="943.879052338" y="46.790067604"/>
      <point x="927.425417945" y="94.5457381587" type="curve" smooth="yes"/>
      <point x="673" y="833" type="line"/>
      <point x="905.971822095" y="1195.85158354" type="line" smooth="yes"/>
      <point x="930.364889733" y="1233.84357391"/>
      <point x="905.148788251" y="1280.0"/>
      <point x="860.0" y="1280.0" type="curve" smooth="yes"/>
      <point x="804.0" y="1280.0" type="line" smooth="yes"/>
      <point x="742.066857044" y="1280.0"/>
      <point x="703" y="1269"/>
      <point x="668" y="1219" type="curve" smooth="yes"/>
      <point x="384" y="807" type="line"/>
      <point x="384.0" y="1692.0" type="line" smooth="yes"/>
      <point x="384.0" y="1748.47882217"/>
      <point x="340.478822174" y="1792.0"/>
      <point x="284.0" y="1792.0" type="curve" smooth="yes"/>
      <point x="228.0" y="1792.0" type="line" smooth="yes"/>
      <point x="171.521177826" y="1792.0"/>
      <point x="128.0" y="1748.47882217"/>
      <point x="128.0" y="1692.0" type="curve" smooth="yes"/>
    </contour>
  </outline>
</glyph>
<glyph name="l" format="1">
  <advance width="505"/>
  <unicode hex="006C"/>
  <outline>
    <contour>
      <point x="228.0" y="1792.0" type="line" smooth="yes"/>
      <point x="171.521177826" y="1792.0"/>
      <point x="128.0" y="1748.47882217"/>
      <point x="128.0" y="1692.0" type="curve" smooth="yes"/>
      <point x="128.0" y="100.0" type="line"/>
      <point x="128.0" y="43.521177826"/>
      <point x="171.521177826" y="0.0"/>
      <point x="228.0" y="0.0" type="curve" smooth="yes"/>
      <point x="284.0" y="0.0" type="line" smooth="yes"/>
      <point x="340.478822174" y="0.0"/>
      <point x="384.0" y="43.521177826"/>
      <point x="384.0" y="100.0" type="curve" smooth="yes"/>
      <point x="384.0" y="1692.0" type="line" smooth="yes"/>
      <point x="384.0" y="1748.47882217"/>
      <point x="340.478822174" y="1792.0"/>
      <point x="284.0" y="1792.0" type="curve" smooth="yes"/>
    </contour>
  </outline>
</glyph>
<glyph name="m" format="1">
  <advance width="1536"/>
  <unicode hex="006D"/>
  <outline>
    <contour>
      <point x="796.0" y="0.0" type="line" smooth="yes"/>
      <point x="852.478822174" y="0.0"/>
      <point x="896.0" y="43.521177826"/>
      <point x="896.0" y="100.0" type="curve" smooth="yes"/>
      <point x="896" y="1002" type="line"/>
      <point x="939" y="1038"/>
      <point x="1010" y="1088"/>
      <point x="1088" y="1088" type="curve" smooth="yes"/>
      <point x="1152" y="1088"/>
      <point x="1152" y="1024"/>
      <point x="1152" y="934" type="curve" smooth="yes"/>
      <point x="1152.0" y="100.0" type="line" smooth="yes"/>
      <point x="1152.0" y="43.521177826"/>
      <point x="1195.52117783" y="0.0"/>
      <point x="1252.0" y="0.0" type="curve" smooth="yes"/>
      <point x="1308.0" y="0.0" type="line" smooth="yes"/>
      <point x="1364.47882217" y="0.0"/>
      <point x="1408.0" y="43.521177826"/>
      <point x="1408.0" y="100.0" type="curve" smooth="yes"/>
      <point x="1408" y="931" type="line" smooth="yes"/>
      <point x="1408" y="1151"/>
      <point x="1408" y="1298"/>
      <point x="1216" y="1298" type="curve" smooth="yes"/>
      <point x="1152" y="1298"/>
      <point x="1024" y="1297"/>
      <point x="896" y="1129" type="curve"/>
      <point x="872" y="1273"/>
      <point x="802" y="1298"/>
      <point x="703" y="1298" type="curve" smooth="yes"/>
      <point x="547" y="1298"/>
      <point x="440" y="1202"/>
      <point x="384" y="1135" type="curve"/>
      <point x="384.0" y="1180.0" type="line" smooth="yes"/>
      <point x="384.0" y="1236.47882217"/>
      <point x="340.478822174" y="1280.0"/>
      <point x="284.0" y="1280.0" type="curve" smooth="yes"/>
      <point x="228.0" y="1280.0" type="line" smooth="yes"/>
      <point x="171.521177826" y="1280.0"/>
      <point x="128.0" y="1236.47882217"/>
      <point x="128.0" y="1180.0" type="curve" smooth="yes"/>
      <point x="128.0" y="100.0" type="line"/>
      <point x="128.0" y="43.521177826"/>
      <point x="171.521177826" y="0.0"/>
      <point x="228.0" y="0.0" type="curve" smooth="yes"/>
      <point x="284.0" y="0.0" type="line" smooth="yes"/>
      <point x="340.478822174" y="0.0"/>
      <point x="384.0" y="43.521177826"/>
      <point x="384.0" y="100.0" type="curve" smooth="yes"/>
      <point x="384" y="1007" type="line"/>
      <point x="427" y="1041"/>
      <point x="497" y="1088"/>
      <point x="576" y="1088" type="curve" smooth="yes"/>
      <point x="640" y="1088"/>
      <point x="640" y="1024"/>
      <point x="640" y="929" type="curve" smooth="yes"/>
      <point x="640.0" y="100.0" type="line" smooth="yes"/>
      <point x="640.0" y="43.521177826"/>
      <point x="683.521177826" y="0.0"/>
      <point x="740.0" y="0.0" type="curve" smooth="yes"/>
    </contour>
  </outline>
</glyph>
<glyph name="n" format="1">
  <advance width="992"/>
  <unicode hex="006E"/>
  <outline>
    <contour>
      <point x="284.0" y="0.0" type="line" smooth="yes"/>
      <point x="340.478822174" y="0.0"/>
      <point x="384.0" y="43.521177826"/>
      <point x="384.0" y="100.0" type="curve" smooth="yes"/>
      <point x="384" y="1013" type="line"/>
      <point x="432" y="1053"/>
      <point x="479" y="1088"/>
      <point x="544" y="1088" type="curve" smooth="yes"/>
      <point x="640" y="1088"/>
      <point x="640" y="1024"/>
      <point x="640" y="960" type="curve" smooth="yes"/>
      <point x="640.0" y="100.0" type="line" smooth="yes"/>
      <point x="640.0" y="43.521177826"/>
      <point x="683.521177826" y="0.0"/>
      <point x="740.0" y="0.0" type="curve" smooth="yes"/>
      <point x="796.0" y="0.0" type="line" smooth="yes"/>
      <point x="852.478822174" y="0.0"/>
      <point x="896" y="44"/>
      <point x="896.0" y="100.0" type="curve" smooth="yes"/>
      <point x="896" y="1031" type="line" smooth="yes"/>
      <point x="896" y="1203"/>
      <point x="806" y="1298"/>
      <point x="694" y="1298" type="curve" smooth="yes"/>
      <point x="633" y="1298"/>
      <point x="506" y="1289"/>
      <point x="384" y="1133" type="curve"/>
      <point x="384.0" y="1180.0" type="line" smooth="yes"/>
      <point x="384" y="1236"/>
      <point x="340.478822174" y="1280.0"/>
      <point x="284.0" y="1280.0" type="curve" smooth="yes"/>
      <point x="228.0" y="1280.0" type="line" smooth="yes"/>
      <point x="171.521177826" y="1280.0"/>
      <point x="128.0" y="1236.47882217"/>
      <point x="128.0" y="1180.0" type="curve" smooth="yes"/>
      <point x="128.0" y="100.0" type="line"/>
      <point x="128.0" y="43.521177826"/>
      <point x="171.521177826" y="0.0"/>
      <point x="228.0" y="0.0" type="curve" smooth="yes"/>
    </contour>
  </outline>
</glyph>
<glyph name="o" format="1">
  <advance width="960"/>
  <unicode hex="006F"/>
  <outline>
    <contour>
      <point x="480" y="-18" type="curve" smooth="yes"/>
      <point x="864" y="-18"/>
      <point x="864" y="320"/>
      <point x="864" y="448" type="curve" smooth="yes"/>
      <point x="864" y="832" type="line" smooth="yes"/>
      <point x="864" y="960"/>
      <point x="864" y="1298"/>
      <point x="480" y="1298" type="curve" smooth="yes"/>
      <point x="96" y="1298"/>
      <point x="96" y="960"/>
      <point x="96" y="832" type="curve" smooth="yes"/>
      <point x="96" y="448" type="line" smooth="yes"/>
      <point x="96" y="320"/>
      <point x="96" y="-18"/>
    </contour>
    <contour>
      <point x="480" y="1088" type="curve" smooth="yes"/>
      <point x="608" y="1088"/>
      <point x="608" y="960"/>
      <point x="608" y="832" type="curve" smooth="yes"/>
      <point x="608" y="448" type="line" smooth="yes"/>
      <point x="608" y="320"/>
      <point x="608" y="192"/>
      <point x="480" y="192" type="curve" smooth="yes"/>
      <point x="352" y="192"/>
      <point x="352" y="320"/>
      <point x="352" y="448" type="curve" smooth="yes"/>
      <point x="352" y="832" type="line" smooth="yes"/>
      <point x="352" y="960"/>
      <point x="352" y="1088"/>
    </contour>
  </outline>
</glyph>
<glyph name="p" format="1">
  <advance width="1056"/>
  <unicode hex="0070"/>
  <outline>
    <contour>
      <point x="284.0" y="-384.0" type="line" smooth="yes"/>
      <point x="340.478822174" y="-384.0"/>
      <point x="384.0" y="-340.478822174"/>
      <point x="384.0" y="-284.0" type="curve" smooth="yes"/>
      <point x="384" y="115" type="line"/>
      <point x="451" y="46"/>
      <point x="543" y="-18"/>
      <point x="640" y="-18" type="curve" smooth="yes"/>
      <point x="889" y="-18"/>
      <point x="960" y="344"/>
      <point x="960" y="576" type="curve" smooth="yes"/>
      <point x="960" y="1104"/>
      <point x="883" y="1298"/>
      <point x="644" y="1298" type="curve" smooth="yes"/>
      <point x="592" y="1298"/>
      <point x="517" y="1293"/>
      <point x="384" y="1152" type="curve"/>
      <point x="384.0" y="1180.0" type="line" smooth="yes"/>
      <point x="384.0" y="1236.47882217"/>
      <point x="340.478822174" y="1280.0"/>
      <point x="284.0" y="1280.0" type="curve" smooth="yes"/>
      <point x="228.0" y="1280.0" type="line" smooth="yes"/>
      <point x="171.521177826" y="1280.0"/>
      <point x="128.0" y="1236.47882217"/>
      <point x="128.0" y="1180.0" type="curve" smooth="yes"/>
      <point x="128.0" y="-284.0" type="line"/>
      <point x="128.0" y="-340.478822174"/>
      <point x="171.521177826" y="-384.0"/>
      <point x="228.0" y="-384.0" type="curve" smooth="yes"/>
    </contour>
    <contour>
      <point x="553" y="1101" type="curve" smooth="yes"/>
      <point x="681" y="1101"/>
      <point x="704" y="928"/>
      <point x="704" y="704" type="curve" smooth="yes"/>
      <point x="704" y="323"/>
      <point x="680" y="192"/>
      <point x="576" y="192" type="curve" smooth="yes"/>
      <point x="535" y="192"/>
      <point x="460" y="200"/>
      <point x="384" y="244" type="curve"/>
      <point x="384" y="1036" type="line"/>
      <point x="437" y="1068"/>
      <point x="489" y="1101"/>
    </contour>
  </outline>
</glyph>
<glyph name="q" format="1">
  <advance width="1056"/>
  <unicode hex="0071"/>
  <outline>
    <contour>
      <point x="772.0" y="1280.0" type="line" smooth="yes"/>
      <point x="715.521177826" y="1280.0"/>
      <point x="672.0" y="1236.47882217"/>
      <point x="672.0" y="1180.0" type="curve" smooth="yes"/>
      <point x="672" y="1152" type="line"/>
      <point x="539" y="1293"/>
      <point x="464" y="1298"/>
      <point x="412" y="1298" type="curve" smooth="yes"/>
      <point x="173" y="1298"/>
      <point x="96" y="1104"/>
      <point x="96" y="576" type="curve" smooth="yes"/>
      <point x="96" y="344"/>
      <point x="167" y="-18"/>
      <point x="416" y="-18" type="curve" smooth="yes"/>
      <point x="513" y="-18"/>
      <point x="605" y="46"/>
      <point x="672" y="115" type="curve"/>
      <point x="672.0" y="-284.0" type="line" smooth="yes"/>
      <point x="672.0" y="-340.478822174"/>
      <point x="715.521177826" y="-384.0"/>
      <point x="772.0" y="-384.0" type="curve" smooth="yes"/>
      <point x="828.0" y="-384.0" type="line" smooth="yes"/>
      <point x="884.478822174" y="-384.0"/>
      <point x="928.0" y="-340.478822174"/>
      <point x="928.0" y="-284.0" type="curve" smooth="yes"/>
      <point x="928.0" y="1180.0" type="line" smooth="yes"/>
      <point x="928.0" y="1236.47882217"/>
      <point x="884.478822174" y="1280.0"/>
      <point x="828.0" y="1280.0" type="curve" smooth="yes"/>
    </contour>
    <contour>
      <point x="480" y="192" type="curve" smooth="yes"/>
      <point x="376" y="192"/>
      <point x="352" y="323"/>
      <point x="352" y="704" type="curve" smooth="yes"/>
      <point x="352" y="928"/>
      <point x="375" y="1101"/>
      <point x="503" y="1101" type="curve" smooth="yes"/>
      <point x="567" y="1101"/>
      <point x="619" y="1068"/>
      <point x="672" y="1036" type="curve"/>
      <point x="672" y="244" type="line"/>
      <point x="596" y="200"/>
      <point x="521" y="192"/>
    </contour>
  </outline>
</glyph>
<glyph name="r" format="1">
  <advance width="691"/>
  <unicode hex="0072"/>
  <outline>
    <contour>
      <point x="128.0" y="100.0" type="line"/>
      <point x="128.0" y="43.521177826"/>
      <point x="171.521177826" y="0.0"/>
      <point x="228.0" y="0.0" type="curve" smooth="yes"/>
      <point x="284.0" y="0.0" type="line" smooth="yes"/>
      <point x="340.478822174" y="0.0"/>
      <point x="384.0" y="43.521177826"/>
      <point x="384.0" y="100.0" type="curve" smooth="yes"/>
      <point x="384" y="864" type="line" smooth="yes"/>
      <point x="384" y="969"/>
      <point x="461" y="1039"/>
      <point x="562" y="1039" type="curve" smooth="yes"/>
      <point x="585.02734375" y="1039.0"/>
      <point x="610.411392212" y="1036.11958313"/>
      <point x="635.472212076" y="1031.02873272" type="curve" smooth="yes"/>
      <point x="675.603483223" y="1022.87647356"/>
      <point x="704.0" y="1046.08450651"/>
      <point x="704.0" y="1087.03543144" type="curve" smooth="yes"/>
      <point x="704.0" y="1274.42211316" type="line" smooth="yes"/>
      <point x="704.0" y="1285.68982746"/>
      <point x="695.680194688" y="1294.9425788"/>
      <point x="684.475821622" y="1296.1356462" type="curve" smooth="yes"/>
      <point x="671.687828064" y="1297.49734116"/>
      <point x="665.8359375" y="1298.0"/>
      <point x="663" y="1298" type="curve" smooth="yes"/>
      <point x="549" y="1298"/>
      <point x="448" y="1207"/>
      <point x="398" y="1109" type="curve"/>
      <point x="384" y="1109" type="line"/>
      <point x="384.0" y="1180.0" type="line" smooth="yes"/>
      <point x="384.0" y="1236.47882217"/>
      <point x="340.478822174" y="1280.0"/>
      <point x="284.0" y="1280.0" type="curve" smooth="yes"/>
      <point x="228.0" y="1280.0" type="line" smooth="yes"/>
      <point x="171.521177826" y="1280.0"/>
      <point x="128.0" y="1236.47882217"/>
      <point x="128.0" y="1180.0" type="curve" smooth="yes"/>
    </contour>
  </outline>
</glyph>
<glyph name="s" format="1">
  <advance width="916"/>
  <unicode hex="0073"/>
  <outline>
    <contour>
      <point x="156" y="151" type="curve" smooth="yes"/>
      <point x="212" y="66"/>
      <point x="307" y="-18"/>
      <point x="468" y="-18" type="curve" smooth="yes"/>
      <point x="724" y="-18"/>
      <point x="852" y="128"/>
      <point x="852" y="320" type="curve" smooth="yes"/>
      <point x="852" y="456"/>
      <point x="781" y="563"/>
      <point x="660" y="660" type="curve" smooth="yes"/>
      <point x="404" y="852" type="line" smooth="yes"/>
      <point x="376" y="873"/>
      <point x="340" y="909"/>
      <point x="340" y="960" type="curve" smooth="yes"/>
      <point x="340" y="1056"/>
      <point x="404" y="1088"/>
      <point x="468" y="1088" type="curve" smooth="yes"/>
      <point x="534.160400391" y="1088.0"/>
      <point x="582.991896987" y="1040.55181104"/>
      <point x="616.879692036" y="986.203871316" type="curve" smooth="yes"/>
      <point x="653.991618361" y="926.685194106"/>
      <point x="701.122776315" y="909.707592105"/>
      <point x="765.917683819" y="931.305894606" type="curve"/>
      <point x="764.865096784" y="930.955032261" type="line"/>
      <point x="812.041273091" y="946.680424364"/>
      <point x="840.201087039" y="1009.22822365"/>
      <point x="820.699473345" y="1054.97280399" type="curve" smooth="yes"/>
      <point x="769.933710113" y="1174.05313095"/>
      <point x="667.747924805" y="1298.0"/>
      <point x="468" y="1298" type="curve" smooth="yes"/>
      <point x="212" y="1298"/>
      <point x="84" y="1152"/>
      <point x="84" y="960" type="curve" smooth="yes"/>
      <point x="84" y="875"/>
      <point x="110" y="775"/>
      <point x="276" y="660" type="curve" smooth="yes"/>
      <point x="532" y="468" type="line"/>
      <point x="559" y="443"/>
      <point x="596" y="397"/>
      <point x="596" y="320" type="curve" smooth="yes"/>
      <point x="596" y="224"/>
      <point x="532" y="192"/>
      <point x="468" y="192" type="curve" smooth="yes"/>
      <point x="402.86328125" y="192.0"/>
      <point x="353.849172592" y="238.670713425"/>
      <point x="319.299504681" y="293.874245318" type="curve" smooth="yes"/>
      <point x="282.066884229" y="353.364604409"/>
      <point x="234.915188371" y="370.30506279"/>
      <point x="170.104433386" y="348.701477795" type="curve" smooth="yes"/>
      <point x="163.219022052" y="346.406340684" type="line" smooth="yes"/>
      <point x="120.173787133" y="332.057929044"/>
      <point x="94.4069435597" y="275.45371508"/>
      <point x="111.854049683" y="233.568542838" type="curve" smooth="yes"/>
      <point x="124.140151978" y="204.073364258"/>
      <point x="138.85546875" y="176.45703125"/>
    </contour>
  </outline>
</glyph>
<glyph name="t" format="1">
  <advance width="669"/>
  <unicode hex="0074"/>
  <outline>
    <contour>
      <point x="147.0" y="1280.0" type="line" smooth="yes"/>
      <point x="93.3451189347" y="1280.0"/>
      <point x="52.0" y="1238.65488107"/>
      <point x="52.0" y="1185.0" type="curve"/>
      <point x="52.0" y="1183.0" type="line"/>
      <point x="52.0" y="1129.34511893"/>
      <point x="93.3451189347" y="1088.0"/>
      <point x="147.0" y="1088.0" type="curve" smooth="yes"/>
      <point x="180" y="1088" type="line"/>
      <point x="180" y="381" type="line" smooth="yes"/>
      <point x="180" y="208"/>
      <point x="170" y="-18"/>
      <point x="470" y="-18" type="curve" smooth="yes"/>
      <point x="497.28125" y="-18.0"/>
      <point x="521.332176208" y="-17.0309028625"/>
      <point x="550.231111795" y="-14.5419131443" type="curve" smooth="yes"/>
      <point x="593.91117924" y="-10.7798632086"/>
      <point x="628.0" y="26.3711390771"/>
      <point x="628.0" y="70.2129149507" type="curve" smooth="yes"/>
      <point x="628.0" y="159.10656177" type="line" smooth="yes"/>
      <point x="628.0" y="182.413648092"/>
      <point x="609.30609212" y="198.840640526"/>
      <point x="586.192403695" y="195.8443628" type="curve" smooth="yes"/>
      <point x="568.69813633" y="193.576542854"/>
      <point x="552.668945312" y="192.0"/>
      <point x="542" y="192" type="curve" smooth="yes"/>
      <point x="445" y="192"/>
      <point x="436" y="255"/>
      <point x="436" y="341" type="curve" smooth="yes"/>
      <point x="436" y="1088" type="line"/>
      <point x="533.0" y="1088.0" type="line" smooth="yes"/>
      <point x="586.654881065" y="1088.0"/>
      <point x="628.0" y="1129.34511893"/>
      <point x="628.0" y="1183.0" type="curve" smooth="yes"/>
      <point x="628.0" y="1185.0" type="line" smooth="yes"/>
      <point x="628.0" y="1238.65488107"/>
      <point x="586.654881065" y="1280.0"/>
      <point x="533.0" y="1280.0" type="curve" smooth="yes"/>
      <point x="436" y="1280" type="line"/>
      <point x="436.0" y="1628.0" type="line" smooth="yes"/>
      <point x="436.0" y="1684.47882217"/>
      <point x="392.478822174" y="1728.0"/>
      <point x="336.0" y="1728.0" type="curve" smooth="yes"/>
      <point x="280.0" y="1728.0" type="line" smooth="yes"/>
      <point x="223.521177826" y="1728.0"/>
      <point x="180.0" y="1684.47882217"/>
      <point x="180.0" y="1628.0" type="curve"/>
      <point x="180" y="1280" type="line"/>
    </contour>
  </outline>
</glyph>
<glyph name="v" format="1">
  <advance width="880"/>
  <unicode hex="0076"/>
  <outline>
    <contour>
      <point x="834.193946845" y="1182.40647539" type="line" smooth="yes"/>
      <point x="845.70896711" y="1233.94223042"/>
      <point x="808.806531212" y="1280.0"/>
      <point x="756.0" y="1280.0" type="curve" smooth="yes"/>
      <point x="700.0" y="1280.0" type="line" smooth="yes"/>
      <point x="641.356159048" y="1280.0"/>
      <point x="593.201089334" y="1239.206536"/>
      <point x="583.560101269" y="1181.36060762" type="curve" smooth="yes"/>
      <point x="440" y="320" type="line"/>
      <point x="296.439898731" y="1181.36060762" type="line" smooth="yes"/>
      <point x="286.798910666" y="1239.206536"/>
      <point x="238.643840952" y="1280.0"/>
      <point x="180.0" y="1280.0" type="curve" smooth="yes"/>
      <point x="124.0" y="1280.0" type="line" smooth="yes"/>
      <point x="71.2206437077" y="1280.0"/>
      <point x="34.3655071553" y="1233.93107931"/>
      <point x="45.9512195122" y="1182.43902439" type="curve" smooth="yes"/>
      <point x="290.048780488" y="97.5609756098" type="line" smooth="yes"/>
      <point x="303.059376443" y="39.7361046993"/>
      <point x="352.729507317" y="0.0"/>
      <point x="412.0" y="0.0" type="curve" smooth="yes"/>
      <point x="470.0" y="0.0" type="line" smooth="yes"/>
      <point x="529.254618743" y="0.0"/>
      <point x="578.884959495" y="39.7648536843"/>
      <point x="591.806053155" y="97.59352461" type="curve" smooth="yes"/>
    </contour>
  </outline>
</glyph>
<glyph name="w" format="1">
  <advance width="1315"/>
  <unicode hex="0077"/>
  <outline>
    <contour>
      <point x="931.0" y="0.0" type="line" smooth="yes"/>
      <point x="989.94347576" y="0.0"/>
      <point x="1038.80947184" y="40.3069514141"/>
      <point x="1050.0212688" y="98.1742905916" type="curve" smooth="yes"/>
      <point x="1259.9787312" y="1181.82570941" type="line" smooth="yes"/>
      <point x="1270.12049747" y="1234.17030955"/>
      <point x="1232.31803248" y="1280.0"/>
      <point x="1179.0" y="1280.0" type="curve" smooth="yes"/>
      <point x="1151.0" y="1280.0" type="line" smooth="yes"/>
      <point x="1092.60041249" y="1280.0"/>
      <point x="1045.00899533" y="1238.83323935"/>
      <point x="1036.59868927" y="1181.04242197" type="curve" smooth="yes"/>
      <point x="911" y="318" type="line"/>
      <point x="788.998023343" y="1180.98457018" type="line" smooth="yes"/>
      <point x="780.83011102" y="1238.76053823"/>
      <point x="733.350469371" y="1280.0"/>
      <point x="675.0" y="1280.0" type="curve" smooth="yes"/>
      <point x="641.0" y="1280.0" type="line" smooth="yes"/>
      <point x="582.691290805" y="1280.0"/>
      <point x="535.306286218" y="1238.69932988"/>
      <point x="527.343157835" y="1180.93693593" type="curve" smooth="yes"/>
      <point x="407" y="308" type="line"/>
      <point x="279.455608882" y="1181.0503392" type="line" smooth="yes"/>
      <point x="271.012639857" y="1238.84305675"/>
      <point x="223.406180559" y="1280.0"/>
      <point x="165.0" y="1280.0" type="curve" smooth="yes"/>
      <point x="138.0" y="1280.0" type="line" smooth="yes"/>
      <point x="84.535703355" y="1280.0"/>
      <point x="46.4723716774" y="1234.24204326"/>
      <point x="56.2061751872" y="1181.67129013" type="curve" smooth="yes"/>
      <point x="256.793824813" y="98.3287098718" type="line" smooth="yes"/>
      <point x="267.508163979" y="40.4622367403"/>
      <point x="316.149972163" y="0.0"/>
      <point x="375.0" y="0.0" type="curve" smooth="yes"/>
      <point x="421.0" y="0.0" type="line" smooth="yes"/>
      <point x="479.527057957" y="0.0"/>
      <point x="527.410966231" y="40.974436344"/>
      <point x="536.458190123" y="98.7979977435" type="curve" smooth="yes"/>
      <point x="659" y="882" type="line"/>
      <point x="779.760601366" y="98.8319823198" type="line" smooth="yes"/>
      <point x="788.675774237" y="41.0144641425"/>
      <point x="836.499181925" y="0.0"/>
      <point x="895.0" y="0.0" type="curve" smooth="yes"/>
    </contour>
  </outline>
</glyph>
<glyph name="x" format="1">
  <advance width="914"/>
  <unicode hex="0078"/>
  <outline>
    <contour>
      <point x="197.0" y="0.0" type="line" smooth="yes"/>
      <point x="257.249619283" y="0.0"/>
      <point x="309.570174092" y="37.7105222769"/>
      <point x="328.622776602" y="94.8683298051" type="curve" smooth="yes"/>
      <point x="425" y="384" type="line"/>
      <point x="457" y="512" type="line"/>
      <point x="489" y="384" type="line"/>
      <point x="585.377223398" y="94.8683298051" type="line" smooth="yes"/>
      <point x="604.429825908" y="37.7105222769"/>
      <point x="656.750380717" y="0.0"/>
      <point x="717.0" y="0.0" type="curve" smooth="yes"/>
      <point x="773.0" y="0.0" type="line" smooth="yes"/>
      <point x="822.735403979" y="0.0"/>
      <point x="854.332197687" y="46.6695057827"/>
      <point x="835.860932365" y="92.8476690885" type="curve" smooth="yes"/>
      <point x="617" y="640" type="line"/>
      <point x="617" y="704" type="line"/>
      <point x="832.386153395" y="1188.61884514" type="line" smooth="yes"/>
      <point x="852.239823979" y="1233.28960395"/>
      <point x="821.883994608" y="1280.0"/>
      <point x="773.0" y="1280.0" type="curve" smooth="yes"/>
      <point x="717.0" y="1280.0" type="line" smooth="yes"/>
      <point x="656.750380717" y="1280.0"/>
      <point x="604.429825908" y="1242.28947772"/>
      <point x="585.377223398" y="1185.13167019" type="curve" smooth="yes"/>
      <point x="489" y="896" type="line"/>
      <point x="457" y="768" type="line"/>
      <point x="425" y="896" type="line"/>
      <point x="328.622776602" y="1185.13167019" type="line" smooth="yes"/>
      <point x="309.570174092" y="1242.28947772"/>
      <point x="257.249619283" y="1280.0"/>
      <point x="197.0" y="1280.0" type="curve" smooth="yes"/>
      <point x="141.0" y="1280.0" type="line" smooth="yes"/>
      <point x="92.1160053924" y="1280.0"/>
      <point x="61.7601760208" y="1233.28960395"/>
      <point x="81.6138466053" y="1188.61884514" type="curve" smooth="yes"/>
      <point x="297" y="704" type="line"/>
      <point x="297" y="640" type="line"/>
      <point x="78.1390676354" y="92.8476690885" type="line" smooth="yes"/>
      <point x="59.6678023131" y="46.6695057827"/>
      <point x="91.2645960214" y="0.0"/>
      <point x="141.0" y="0.0" type="curve" smooth="yes"/>
    </contour>
  </outline>
</glyph>
<glyph name="y" format="1">
  <advance width="895"/>
  <unicode hex="0079"/>
  <outline>
    <contour>
      <point x="318.88854382" y="1181.61300899" type="line" smooth="yes"/>
      <point x="308.367697073" y="1239.4776661"/>
      <point x="259.81332127" y="1280.0"/>
      <point x="201.0" y="1280.0" type="curve" smooth="yes"/>
      <point x="145.0" y="1280.0" type="line" smooth="yes"/>
      <point x="92.4784794904" y="1280.0"/>
      <point x="55.9481891537" y="1233.80104797"/>
      <point x="68.0592665798" y="1182.694963" type="curve" smooth="yes"/>
      <point x="318" y="128" type="line" smooth="yes"/>
      <point x="325" y="103"/>
      <point x="326" y="79"/>
      <point x="326" y="56" type="curve" smooth="yes"/>
      <point x="326.0" y="-25.466796875"/>
      <point x="291.150097847" y="-90.394657135"/>
      <point x="203.291611739" y="-116.085228527" type="curve" smooth="yes"/>
      <point x="134.435539539" y="-136.219331867"/>
      <point x="109.0" y="-170.157544215"/>
      <point x="109.0" y="-238.656900773" type="curve"/>
      <point x="109.0" y="-228.556321895" type="line"/>
      <point x="109.0" y="-278.797924098"/>
      <point x="153.8464884" y="-320.489278844"/>
      <point x="203.954695484" y="-316.830566669" type="curve" smooth="yes"/>
      <point x="401.53096813" y="-302.404292881"/>
      <point x="517.025146484" y="-236.065673828"/>
      <point x="557" y="-64" type="curve" smooth="yes"/>
      <point x="853.837947269" y="1182.71937853" type="line" smooth="yes"/>
      <point x="865.998577825" y="1233.79402687"/>
      <point x="829.502386975" y="1280.0"/>
      <point x="777.0" y="1280.0" type="curve" smooth="yes"/>
      <point x="721.0" y="1280.0" type="line" smooth="yes"/>
      <point x="662.18667873" y="1280.0"/>
      <point x="613.632302927" y="1239.4776661"/>
      <point x="603.11145618" y="1181.61300899" type="curve" smooth="yes"/>
      <point x="493" y="576" type="line"/>
      <point x="462" y="384" type="line"/>
      <point x="429" y="576" type="line"/>
    </contour>
  </outline>
</glyph>
<glyph name="z" format="1">
  <advance width="830"/>
  <unicode hex="007A"/>
  <outline>
    <contour>
      <point x="64.0" y="95.0" type="line" smooth="yes"/>
      <point x="64.0" y="41.3451189347"/>
      <point x="105.345118935" y="0.0"/>
      <point x="159.0" y="0.0" type="curve" smooth="yes"/>
      <point x="673.0" y="0.0" type="line" smooth="yes"/>
      <point x="726.654881065" y="0.0"/>
      <point x="768.0" y="41.3451189347"/>
      <point x="768.0" y="95.0" type="curve" smooth="yes"/>
      <point x="768.0" y="97.0" type="line" smooth="yes"/>
      <point x="768.0" y="150.654881065"/>
      <point x="726.654881065" y="192.0"/>
      <point x="673.0" y="192.0" type="curve" smooth="yes"/>
      <point x="320" y="192" type="line"/>
      <point x="725.514708428" y="1003.02941686" type="line" smooth="yes"/>
      <point x="751.075080668" y="1054.15016134"/>
      <point x="768.0" y="1125.84527014"/>
      <point x="768.0" y="1183.0" type="curve" smooth="yes"/>
      <point x="768.0" y="1185.0" type="line" smooth="yes"/>
      <point x="768.0" y="1238.65488107"/>
      <point x="726.654881065" y="1280.0"/>
      <point x="673.0" y="1280.0" type="curve" smooth="yes"/>
      <point x="223.0" y="1280.0" type="line" smooth="yes"/>
      <point x="169.345118935" y="1280.0"/>
      <point x="128.0" y="1238.65488107"/>
      <point x="128.0" y="1185.0" type="curve" smooth="yes"/>
      <point x="128.0" y="1183.0" type="line"/>
      <point x="128.0" y="1129.34511893"/>
      <point x="169.345118935" y="1088.0"/>
      <point x="223.0" y="1088.0" type="curve" smooth="yes"/>
      <point x="512" y="1088" type="line"/>
      <point x="106.485291572" y="276.970583145" type="line" smooth="yes"/>
      <point x="80.9249193317" y="225.849838663"/>
      <point x="64.0" y="154.154729861"/>
      <point x="64.0" y="97.0" type="curve"/>
    </contour>
  </outline>
</glyph>
<glyph name="braceleft" format="1">
  <advance width="704"/>
  <unicode hex="007B"/>
  <outline>
    <contour>
      <point x="545.125579536" y="1658.65516806" type="curve" smooth="yes"/>
      <point x="608.809428928" y="1670.8172977"/>
      <point x="640.0" y="1708.52823911"/>
      <point x="640.0" y="1771.77396918" type="curve"/>
      <point x="640.0" y="1763.66436535" type="line"/>
      <point x="640.0" y="1814.99521656"/>
      <point x="596.328356548" y="1856.57598644"/>
      <point x="545.059220169" y="1854.05965179" type="curve" smooth="yes"/>
      <point x="315.002963617" y="1842.76828682"/>
      <point x="192.0" y="1772.67431641"/>
      <point x="192" y="1408" type="curve" smooth="yes"/>
      <point x="192.0" y="1223.48095703"/>
      <point x="182.849965811" y="1121.67822313"/>
      <point x="152.81444245" y="1070.04251751" type="curve" smooth="yes"/>
      <point x="43.1836366279" y="881.570222577"/>
      <point x="64.0" y="958.757224125"/>
      <point x="64.0" y="790.356767676" type="curve"/>
      <point x="64.0" y="1016.47225872" type="line"/>
      <point x="64.0" y="835.208294727"/>
      <point x="47.0753529779" y="883.342302797"/>
      <point x="160.520126128" y="741.967241041" type="curve" smooth="yes"/>
      <point x="184.44287014" y="712.154678345"/>
      <point x="192.0" y="648.3515625"/>
      <point x="192" y="512" type="curve" smooth="yes"/>
      <point x="192.0" y="97.701171875"/>
      <point x="315.036893129" y="-34.4748439789"/>
      <point x="545.154408841" y="-59.3532726853" type="curve" smooth="yes"/>
      <point x="593.708265968" y="-64.602519659"/>
      <point x="640.0" y="-23.0457233843"/>
      <point x="640.0" y="25.3927956638" type="curve"/>
      <point x="640.0" y="-4.52715141415" type="line"/>
      <point x="640.0" y="81.5028646388"/>
      <point x="623.692402062" y="107.54481689"/>
      <point x="546.29687486" y="145.109375068" type="curve" smooth="yes"/>
      <point x="471.062499971" y="181.625000126"/>
      <point x="448.0" y="283.250000142"/>
      <point x="448" y="512" type="curve" smooth="yes"/>
      <point x="448" y="771"/>
      <point x="332" y="864"/>
      <point x="256" y="896" type="curve"/>
      <point x="330" y="931"/>
      <point x="448" y="1043"/>
      <point x="448" y="1408" type="curve" smooth="yes"/>
      <point x="448.0" y="1593.03125"/>
      <point x="470.822891235" y="1644.46508789"/>
    </contour>
  </outline>
</glyph>
<glyph name="bar" format="1">
  <advance width="384"/>
  <unicode hex="007C"/>
  <outline>
    <contour>
      <point x="225.0" y="-128.0" type="line" smooth="yes"/>
      <point x="278.654881065" y="-128.0"/>
      <point x="320.0" y="-86.6548810653"/>
      <point x="320.0" y="-33.0" type="curve" smooth="yes"/>
      <point x="320.0" y="1825.0" type="line" smooth="yes"/>
      <point x="320.0" y="1878.65488107"/>
      <point x="278.654881065" y="1920.0"/>
      <point x="225.0" y="1920.0" type="curve" smooth="yes"/>
      <point x="223.0" y="1920.0" type="line" smooth="yes"/>
      <point x="169.345118935" y="1920.0"/>
      <point x="128.0" y="1878.65488107"/>
      <point x="128.0" y="1825.0" type="curve" smooth="yes"/>
      <point x="128.0" y="-33.0" type="line"/>
      <point x="128.0" y="-86.6548810653"/>
      <point x="169.345118935" y="-128.0"/>
      <point x="223.0" y="-128.0" type="curve" smooth="yes"/>
    </contour>
  </outline>
</glyph>
<glyph name="braceright" format="1">
  <advance width="704"/>
  <unicode hex="007D"/>
  <outline>
    <contour>
      <point x="448" y="896" type="curve"/>
      <point x="370" y="863"/>
      <point x="256" y="768"/>
      <point x="256" y="512" type="curve" smooth="yes"/>
      <point x="256.0" y="283.250000142"/>
      <point x="232.937500029" y="181.625000126"/>
      <point x="157.70312514" y="145.109375068" type="curve" smooth="yes"/>
      <point x="78.8739180442" y="106.848968516"/>
      <point x="64.0" y="83.096490378"/>
      <point x="64.0" y="4.62978957977" type="curve"/>
      <point x="64.0" y="25.7910622969" type="line"/>
      <point x="64.0" y="-22.8505246027"/>
      <point x="110.485801959" y="-64.5815386178"/>
      <point x="158.845591159" y="-59.3532726853" type="curve" smooth="yes"/>
      <point x="388.963106871" y="-34.4748439789"/>
      <point x="512.0" y="97.701171875"/>
      <point x="512" y="512" type="curve" smooth="yes"/>
      <point x="512.0" y="648.3515625"/>
      <point x="519.55712986" y="712.154678345"/>
      <point x="543.479873872" y="741.967241041" type="curve" smooth="yes"/>
      <point x="653.937294531" y="879.61945924"/>
      <point x="640.0" y="839.981536713"/>
      <point x="640.0" y="989.25078001" type="curve"/>
      <point x="640.0" y="740.718879927" type="line"/>
      <point x="640.0" y="974.938572235"/>
      <point x="668.952428793" y="867.583068967"/>
      <point x="551.18555755" y="1070.04251751" type="curve" smooth="yes"/>
      <point x="521.150034189" y="1121.67822313"/>
      <point x="512.0" y="1223.48095703"/>
      <point x="512" y="1408" type="curve" smooth="yes"/>
      <point x="512.0" y="1772.67431641"/>
      <point x="388.997036383" y="1842.76828682"/>
      <point x="158.940779831" y="1854.05965179" type="curve" smooth="yes"/>
      <point x="107.646345086" y="1856.57722811"/>
      <point x="64.0" y="1815.02054537"/>
      <point x="64.0" y="1763.71942941" type="curve"/>
      <point x="64.0" y="1773.3630297" type="line"/>
      <point x="64.0" y="1709.05939129"/>
      <point x="95.7122942843" y="1670.71766074"/>
      <point x="158.874420464" y="1658.65516806" type="curve" smooth="yes"/>
      <point x="233.177108765" y="1644.46508789"/>
      <point x="256.0" y="1593.03125"/>
      <point x="256" y="1408" type="curve" smooth="yes"/>
      <point x="256" y="1047"/>
      <point x="371" y="932"/>
    </contour>
  </outline>
</glyph>
<glyph name="asciitilde" format="1">
  <advance width="960"/>
  <unicode hex="007E"/>
  <outline>
    <contour>
      <point x="127" y="846" type="curve" smooth="yes"/>
      <point x="127.0" y="842.8828125"/>
      <point x="127.0" y="840.162231445"/>
      <point x="127.088306904" y="837.92656374" type="curve" smooth="yes"/>
      <point x="127.189157158" y="835.373335772"/>
      <point x="130.6983672" y="832.0"/>
      <point x="133.25358614" y="832.0" type="curve" smooth="yes"/>
      <point x="229.519373251" y="832.0" type="line" smooth="yes"/>
      <point x="261.789334839" y="832.0"/>
      <point x="275.4067203" y="841.522646914"/>
      <point x="286.480609505" y="871.833031253" type="curve" smooth="yes"/>
      <point x="293.790220261" y="891.840194702"/>
      <point x="308.262695312" y="899.0"/>
      <point x="329" y="899" type="curve" smooth="yes"/>
      <point x="393" y="899"/>
      <point x="500" y="812"/>
      <point x="613" y="812" type="curve" smooth="yes"/>
      <point x="809" y="812"/>
      <point x="833" y="1016"/>
      <point x="833" y="1074" type="curve" smooth="yes"/>
      <point x="833.0" y="1077.08984375"/>
      <point x="832.805160522" y="1079.79000854"/>
      <point x="832.587488294" y="1082.01449102" type="curve" smooth="yes"/>
      <point x="832.239701047" y="1085.56867265"/>
      <point x="829.558848581" y="1088.0"/>
      <point x="825.987691487" y="1088.0" type="curve" smooth="yes"/>
      <point x="734.417437884" y="1088.0" type="line" smooth="yes"/>
      <point x="699.048862404" y="1088.0"/>
      <point x="685.989722923" y="1079.30446637"/>
      <point x="672.349867873" y="1046.67180657" type="curve" smooth="yes"/>
      <point x="664.043048859" y="1026.79816437"/>
      <point x="648.404296875" y="1019.0"/>
      <point x="628" y="1019" type="curve" smooth="yes"/>
      <point x="564" y="1019"/>
      <point x="450" y="1105"/>
      <point x="347" y="1105" type="curve" smooth="yes"/>
      <point x="151" y="1105"/>
      <point x="127" y="905"/>
    </contour>
  </outline>
</glyph>
<glyph name="exclamdown" format="1">
  <advance width="384"/>
  <unicode hex="00A1"/>
  <outline>
    <contour>
      <point x="161.0" y="0.0" type="line" smooth="yes"/>
      <point x="214.654881065" y="0.0"/>
      <point x="256.0" y="41.3451189347"/>
      <point x="256.0" y="95.0" type="curve" smooth="yes"/>
      <point x="256.0" y="1089.0" type="line" smooth="yes"/>
      <point x="256.0" y="1124.58165797"/>
      <point x="228.58165797" y="1152.0"/>
      <point x="193.0" y="1152.0" type="curve" smooth="yes"/>
      <point x="191.0" y="1152.0" type="line" smooth="yes"/>
      <point x="154.926275966" y="1152.0"/>
      <point x="126.506398944" y="1125.11518099"/>
      <point x="124.505388764" y="1089.09699775" type="curve" smooth="yes"/>
      <point x="69.2696518641" y="94.8537335545" type="line" smooth="yes"/>
      <point x="66.3374391906" y="42.0739054309"/>
      <point x="106.138784275" y="0.0"/>
      <point x="159.0" y="0.0" type="curve" smooth="yes"/>
    </contour>
    <contour>
      <point x="220.0" y="1280.0" type="line" smooth="yes"/>
      <point x="276.478822174" y="1280.0"/>
      <point x="320.0" y="1323.52117783"/>
      <point x="320.0" y="1380.0" type="curve" smooth="yes"/>
      <point x="320.0" y="1436.0" type="line" smooth="yes"/>
      <point x="320.0" y="1492.47882217"/>
      <point x="276.478822174" y="1536.0"/>
      <point x="220.0" y="1536.0" type="curve" smooth="yes"/>
      <point x="164.0" y="1536.0" type="line" smooth="yes"/>
      <point x="107.521177826" y="1536.0"/>
      <point x="64.0" y="1492.47882217"/>
      <point x="64.0" y="1436.0" type="curve"/>
      <point x="64.0" y="1380.0" type="line" smooth="yes"/>
      <point x="64.0" y="1323.52117783"/>
      <point x="107.521177826" y="1280.0"/>
      <point x="164.0" y="1280.0" type="curve" smooth="yes"/>
    </contour>
  </outline>
</glyph>
<glyph name="cent" format="1">
  <advance width="1027"/>
  <unicode hex="00A2"/>
  <outline>
    <contour>
      <point x="519.0" y="-128.0" type="line" smooth="yes"/>
      <point x="540.419204563" y="-128.0"/>
      <point x="557.0" y="-111.419204563"/>
      <point x="557.0" y="-90.0" type="curve" smooth="yes"/>
      <point x="557" y="-14" type="line"/>
      <point x="870" y="22"/>
      <point x="898" y="317"/>
      <point x="898" y="430" type="curve" smooth="yes"/>
      <point x="898.0" y="438.53515625"/>
      <point x="897.862289429" y="446.106338501"/>
      <point x="897.689075351" y="452.458029091" type="curve" smooth="yes"/>
      <point x="897.366194536" y="464.297938736"/>
      <point x="888.423588115" y="473.0"/>
      <point x="876.623071396" y="473.0" type="curve" smooth="yes"/>
      <point x="745.698857008" y="473.0" type="line" smooth="yes"/>
      <point x="685.723863891" y="473.0"/>
      <point x="642.865675968" y="432.833196167"/>
      <point x="638.98139255" y="372.984118132" type="curve" smooth="yes"/>
      <point x="634.004893303" y="296.306167603"/>
      <point x="616.759765625" y="235.45703125"/>
      <point x="557" y="207" type="curve"/>
      <point x="557" y="1073" type="line"/>
      <point x="612.494140625" y="1048.55615234"/>
      <point x="631.32638073" y="994.433623314"/>
      <point x="637.717204398" y="931.969506032" type="curve" smooth="yes"/>
      <point x="644.047507946" y="870.096914367"/>
      <point x="686.270832665" y="831.82316081"/>
      <point x="748.465939529" y="831.580211174" type="curve" smooth="yes"/>
      <point x="802.508688483" y="831.369106686" type="line" smooth="yes"/>
      <point x="854.356141182" y="831.166577574"/>
      <point x="898.345133106" y="879.340191378"/>
      <point x="893.444880562" y="930.955953452" type="curve" smooth="yes"/>
      <point x="880.649451137" y="1065.73387253"/>
      <point x="822.248291016" y="1263.42382812"/>
      <point x="557" y="1294" type="curve"/>
      <point x="557.0" y="1370.0" type="line" smooth="yes"/>
      <point x="557.0" y="1391.41920456"/>
      <point x="540.419204563" y="1408.0"/>
      <point x="519.0" y="1408.0" type="curve" smooth="yes"/>
      <point x="517.0" y="1408.0" type="line" smooth="yes"/>
      <point x="495.580795437" y="1408.0"/>
      <point x="479.0" y="1391.41920456"/>
      <point x="479.0" y="1370.0" type="curve" smooth="yes"/>
      <point x="479" y="1294" type="line"/>
      <point x="149" y="1262"/>
      <point x="129" y="983"/>
      <point x="129" y="733" type="curve" smooth="yes"/>
      <point x="129" y="532" type="line" smooth="yes"/>
      <point x="129" y="249"/>
      <point x="149" y="13"/>
      <point x="479" y="-15" type="curve"/>
      <point x="479.0" y="-90.0" type="line" smooth="yes"/>
      <point x="479.0" y="-111.419204563"/>
      <point x="495.580795437" y="-128.0"/>
      <point x="517.0" y="-128.0" type="curve" smooth="yes"/>
    </contour>
    <contour>
      <point x="479" y="1071" type="curve"/>
      <point x="479" y="206" type="line"/>
      <point x="385" y="243"/>
      <point x="385" y="360"/>
      <point x="385" y="640" type="curve" smooth="yes"/>
      <point x="385" y="894"/>
      <point x="385" y="1026"/>
    </contour>
  </outline>
</glyph>
<glyph name="sterling" format="1">
  <advance width="896"/>
  <unicode hex="00A3"/>
  <outline>
    <contour>
      <point x="128" y="768" type="line"/>
      <point x="128" y="191" type="line"/>
      <point x="56.524444479" y="155.820625017" type="line" smooth="yes"/>
      <point x="21.8903311958" y="138.774147385"/>
      <point x="-4.4818641639e-15" y="103.601867864"/>
      <point x="-1.15729122519e-14" y="65.0" type="curve"/>
      <point x="1.15729122519e-14" y="63.0" type="line"/>
      <point x="5.03666772081e-15" y="27.4183420304"/>
      <point x="27.4183420304" y="0.0"/>
      <point x="63.0" y="0.0" type="curve" smooth="yes"/>
      <point x="737.0" y="0.0" type="line" smooth="yes"/>
      <point x="790.654881065" y="0.0"/>
      <point x="832.0" y="41.3451189347"/>
      <point x="832.0" y="95.0" type="curve" smooth="yes"/>
      <point x="832.0" y="97.0" type="line" smooth="yes"/>
      <point x="832.0" y="150.654881065"/>
      <point x="790.654881065" y="192.0"/>
      <point x="737.0" y="192.0" type="curve" smooth="yes"/>
      <point x="384" y="192" type="line"/>
      <point x="384" y="768" type="line"/>
      <point x="545.0" y="768.0" type="line" smooth="yes"/>
      <point x="598.654881065" y="768.0"/>
      <point x="640.0" y="809.345118935"/>
      <point x="640.0" y="863.0" type="curve" smooth="yes"/>
      <point x="640.0" y="865.0" type="line" smooth="yes"/>
      <point x="640.0" y="918.654881065"/>
      <point x="598.654881065" y="960.0"/>
      <point x="545.0" y="960.0" type="curve" smooth="yes"/>
      <point x="384" y="960" type="line"/>
      <point x="384" y="1152" type="line" smooth="yes"/>
      <point x="384" y="1408"/>
      <point x="384" y="1600"/>
      <point x="512" y="1600" type="curve" smooth="yes"/>
      <point x="599.312011719" y="1600.0"/>
      <point x="627.097544193" y="1514.70832825"/>
      <point x="635.919466371" y="1438.87037206" type="curve" smooth="yes"/>
      <point x="642.845507538" y="1379.33042194"/>
      <point x="682.52401188" y="1344.0"/>
      <point x="741.955352377" y="1344.0" type="curve"/>
      <point x="740.081869983" y="1344.0" type="line"/>
      <point x="791.57330654" y="1344.0"/>
      <point x="833.162491027" y="1387.54833179"/>
      <point x="830.793948395" y="1438.98526448" type="curve" smooth="yes"/>
      <point x="823.799138427" y="1590.88946277"/>
      <point x="779.717041016" y="1810.0"/>
      <point x="512" y="1810" type="curve" smooth="yes"/>
      <point x="128" y="1810"/>
      <point x="128" y="1408"/>
      <point x="128" y="1152" type="curve" smooth="yes"/>
      <point x="128" y="960" type="line"/>
      <point x="95.0" y="960.0" type="line" smooth="yes"/>
      <point x="41.3451189347" y="960.0"/>
      <point x="-7.59497513456e-15" y="918.654881065"/>
      <point x="-1.74512168878e-14" y="865.0" type="curve"/>
      <point x="1.74512168878e-14" y="863.0" type="line"/>
      <point x="7.59497513456e-15" y="809.345118935"/>
      <point x="41.3451189347" y="768.0"/>
      <point x="95.0" y="768.0" type="curve" smooth="yes"/>
    </contour>
  </outline>
</glyph>
<glyph name="currency" format="1">
  <advance width="1024"/>
  <unicode hex="00A4"/>
  <outline>
    <contour>
      <point x="281" y="1217" type="curve"/>
      <point x="239.292893219" y="1258.70710678" type="line" smooth="yes"/>
      <point x="214.276788822" y="1283.72321118"/>
      <point x="175.723211178" y="1283.72321118"/>
      <point x="150.707106781" y="1258.70710678" type="curve" smooth="yes"/>
      <point x="149.292893219" y="1257.29289322" type="line" smooth="yes"/>
      <point x="124.276788822" y="1232.27678882"/>
      <point x="124.276788822" y="1193.72321118"/>
      <point x="149.292893219" y="1168.70710678" type="curve" smooth="yes"/>
      <point x="191" y="1127" type="line"/>
      <point x="147" y="1059"/>
      <point x="128" y="978"/>
      <point x="128" y="897" type="curve" smooth="yes"/>
      <point x="128" y="814"/>
      <point x="147" y="733"/>
      <point x="191" y="665" type="curve"/>
      <point x="149.292893219" y="623.292893219" type="line" smooth="yes"/>
      <point x="124.276788822" y="598.276788822"/>
      <point x="124.276788822" y="559.723211178"/>
      <point x="149.292893219" y="534.707106781" type="curve" smooth="yes"/>
      <point x="150.707106781" y="533.292893219" type="line" smooth="yes"/>
      <point x="175.723211178" y="508.276788822"/>
      <point x="214.276788822" y="508.276788822"/>
      <point x="239.292893219" y="533.292893219" type="curve" smooth="yes"/>
      <point x="281" y="575" type="line"/>
      <point x="340" y="536"/>
      <point x="415" y="512"/>
      <point x="512" y="512" type="curve" smooth="yes"/>
      <point x="609" y="512"/>
      <point x="684" y="536"/>
      <point x="743" y="575" type="curve"/>
      <point x="784.707106781" y="533.292893219" type="line" smooth="yes"/>
      <point x="809.723211178" y="508.276788822"/>
      <point x="848.276788822" y="508.276788822"/>
      <point x="873.292893219" y="533.292893219" type="curve" smooth="yes"/>
      <point x="874.707106781" y="534.707106781" type="line" smooth="yes"/>
      <point x="899.685797421" y="559.685797421"/>
      <point x="899.574479155" y="598.202238996"/>
      <point x="874.451822721" y="623.036129264" type="curve" smooth="yes"/>
      <point x="832" y="665" type="line"/>
      <point x="876" y="733"/>
      <point x="896" y="814"/>
      <point x="896" y="897" type="curve" smooth="yes"/>
      <point x="896" y="978"/>
      <point x="876" y="1059"/>
      <point x="832" y="1126" type="curve"/>
      <point x="874.707106781" y="1168.70710678" type="line" smooth="yes"/>
      <point x="899.723211178" y="1193.72321118"/>
      <point x="899.723211178" y="1232.27678882"/>
      <point x="874.707106781" y="1257.29289322" type="curve" smooth="yes"/>
      <point x="873.292893219" y="1258.70710678" type="line" smooth="yes"/>
      <point x="848.276788822" y="1283.72321118"/>
      <point x="809.723211178" y="1283.72321118"/>
      <point x="784.707106781" y="1258.70710678" type="curve" smooth="yes"/>
      <point x="743" y="1217" type="line"/>
      <point x="684" y="1256"/>
      <point x="609" y="1280"/>
      <point x="512" y="1280" type="curve" smooth="yes"/>
      <point x="415" y="1280"/>
      <point x="340" y="1256"/>
    </contour>
    <contour>
      <point x="320" y="897" type="curve" smooth="yes"/>
      <point x="320" y="1005"/>
      <point x="377" y="1110"/>
      <point x="512" y="1110" type="curve" smooth="yes"/>
      <point x="647" y="1110"/>
      <point x="704" y="1003"/>
      <point x="704" y="896" type="curve" smooth="yes"/>
      <point x="704" y="789"/>
      <point x="646" y="682"/>
      <point x="512" y="682" type="curve" smooth="yes"/>
      <point x="378" y="682"/>
      <point x="320" y="790"/>
    </contour>
  </outline>
</glyph>
<glyph name="yen" format="1">
  <advance width="1024"/>
  <unicode hex="00A5"/>
  <outline>
    <contour>
      <point x="640" y="256" type="line"/>
      <point x="749.0" y="256.0" type="line" smooth="yes"/>
      <point x="795.877422404" y="256.0"/>
      <point x="832.0" y="292.122577596"/>
      <point x="832.0" y="339.0" type="curve" smooth="yes"/>
      <point x="832.0" y="341.0" type="line" smooth="yes"/>
      <point x="832.0" y="387.877422404"/>
      <point x="795.877422404" y="424.0"/>
      <point x="749.0" y="424.0" type="curve" smooth="yes"/>
      <point x="640" y="424" type="line"/>
      <point x="640" y="553" type="line"/>
      <point x="750.0" y="553.0" type="line" smooth="yes"/>
      <point x="796.312634183" y="553.0"/>
      <point x="832.0" y="588.687365817"/>
      <point x="832.0" y="635.0" type="curve" smooth="yes"/>
      <point x="832.0" y="637.0" type="line" smooth="yes"/>
      <point x="832.0" y="683.312634183"/>
      <point x="796.312634183" y="719.0"/>
      <point x="750.0" y="719.0" type="curve" smooth="yes"/>
      <point x="679" y="719" type="line"/>
      <point x="947.490617575" y="1695.57773782" type="line" smooth="yes"/>
      <point x="961.226409632" y="1745.53877131"/>
      <point x="925.814832339" y="1792.0"/>
      <point x="874.0" y="1792.0" type="curve" smooth="yes"/>
      <point x="814.0" y="1792.0" type="line" smooth="yes"/>
      <point x="754.842502938" y="1792.0"/>
      <point x="705.453865134" y="1752.06162716"/>
      <point x="693.075388991" y="1694.21369905" type="curve" smooth="yes"/>
      <point x="512" y="848" type="line"/>
      <point x="329.122585317" y="1694.25627187" type="line" smooth="yes"/>
      <point x="316.622361662" y="1752.10044407"/>
      <point x="267.17942083" y="1792.0"/>
      <point x="208.0" y="1792.0" type="curve" smooth="yes"/>
      <point x="148.0" y="1792.0" type="line" smooth="yes"/>
      <point x="96.1030800027" y="1792.0"/>
      <point x="60.6713944646" y="1745.59588307"/>
      <point x="74.3421686593" y="1695.5319216" type="curve" smooth="yes"/>
      <point x="341" y="719" type="line"/>
      <point x="274.0" y="719.0" type="line" smooth="yes"/>
      <point x="227.687365817" y="719.0"/>
      <point x="192.0" y="683.312634183"/>
      <point x="192.0" y="637.0" type="curve"/>
      <point x="192.0" y="635.0" type="line"/>
      <point x="192.0" y="588.687365817"/>
      <point x="227.687365817" y="553.0"/>
      <point x="274.0" y="553.0" type="curve" smooth="yes"/>
      <point x="384" y="553" type="line"/>
      <point x="384" y="424" type="line"/>
      <point x="275.0" y="424.0" type="line" smooth="yes"/>
      <point x="228.122577596" y="424.0"/>
      <point x="192.0" y="387.877422404"/>
      <point x="192.0" y="341.0" type="curve"/>
      <point x="192.0" y="339.0" type="line"/>
      <point x="192.0" y="292.122577596"/>
      <point x="228.122577596" y="256.0"/>
      <point x="275.0" y="256.0" type="curve" smooth="yes"/>
      <point x="384" y="256" type="line"/>
      <point x="384.0" y="100.0" type="line" smooth="yes"/>
      <point x="384.0" y="43.521177826"/>
      <point x="427.521177826" y="0.0"/>
      <point x="484.0" y="0.0" type="curve" smooth="yes"/>
      <point x="540.0" y="0.0" type="line" smooth="yes"/>
      <point x="596.478822174" y="0.0"/>
      <point x="640.0" y="43.521177826"/>
      <point x="640.0" y="100.0" type="curve" smooth="yes"/>
    </contour>
  </outline>
</glyph>
